<svg width="113" height="100" viewBox="0 0 113 100" fill="none" xmlns="http://www.w3.org/2000/svg">
<path d="M77.9828 29.6318C77.0028 29.4069 76.0227 29.1981 75.0467 28.953C74.6853 28.8607 74.1832 28.9249 74.0948 28.3988C74.0145 27.9208 74.3961 27.716 74.7214 27.471C77.9948 25.0169 79.9268 21.7595 80.7421 17.7551C81.457 14.2487 81.0072 10.9311 79.5251 7.7139C79.3122 7.252 78.77 6.81019 79.2158 6.276C79.6536 5.74984 80.2119 6.21977 80.706 6.28805C90.5744 7.64963 96.9044 13.8511 101.929 21.8318C102.6 22.9002 102.363 23.6553 101.323 24.3381C95.3621 28.2381 88.8795 30.4713 81.7141 30.395C80.473 30.3829 79.2359 29.8648 77.9989 29.5836C77.9908 29.5957 77.9868 29.6158 77.9828 29.6318Z" fill="#676FC8"/>
<path d="M26.917 36.1063C25.937 35.8813 24.9569 35.6725 23.9809 35.4275C23.6194 35.3351 23.1174 35.3994 23.0411 34.8612C22.9728 34.3832 23.3624 34.1824 23.6837 33.9414C26.9571 31.4873 28.8851 28.2219 29.6924 24.2175C30.4033 20.7111 29.9655 17.3895 28.4633 14.1803C28.2464 13.7184 27.7283 13.2886 28.1701 12.7384C28.5517 12.2644 29.0417 12.6701 29.4715 12.7303C39.4203 14.0638 45.8225 20.2773 50.8833 28.3304C51.5581 29.4028 51.289 30.1538 50.2527 30.8286C44.3003 34.7246 37.8137 36.9457 30.6483 36.8694C29.4072 36.8573 28.1701 36.3392 26.933 36.0581C26.929 36.0741 26.921 36.0902 26.917 36.1063Z" fill="#676FC8"/>
<path d="M70.1255 64.1613C68.8644 63.6392 66.7919 64.1292 66.346 62.9242C65.9725 61.9121 67.9125 61.2735 68.7599 60.4019C73.1901 55.8392 74.4433 48.1195 71.6438 42.2916C71.4229 41.8297 70.8847 41.3999 71.2702 40.8497C71.6799 40.2633 72.2543 40.7452 72.7403 40.8095C82.6007 42.1671 88.9548 48.3324 93.9875 56.3171C94.6502 57.3694 94.5056 58.1486 93.4533 58.8395C87.4406 62.7877 80.8897 65.0208 73.652 64.9285C72.4712 64.9164 71.2984 64.4304 70.1255 64.1613Z" fill="#676FC8"/>
<path d="M24.366 47.8988C30.708 49.1761 35.343 53.1002 39.4439 57.8276C40.7693 59.3498 41.8096 61.0648 42.9061 62.7437C43.6491 63.8844 43.4202 64.6556 42.2916 65.3946C36.3271 69.2946 29.8284 71.5639 22.671 71.3752C20.3736 71.3149 18.0923 70.4433 15.8109 69.8971C14.6782 69.624 14.9514 69.0456 15.6663 68.5636C21.7633 64.4668 24.0407 54.779 20.3375 48.3005C19.7591 47.2883 20.1527 46.9349 21.2331 47.1839C22.2814 47.4249 23.3217 47.6618 24.366 47.8988Z" fill="#676FC8"/>
<path d="M67.395 75.9261C73.7531 77.1671 78.3841 81.0993 82.517 85.7905C83.8505 87.3047 84.8747 89.0318 85.9833 90.7027C86.7866 91.9157 86.5697 92.7069 85.3527 93.4982C79.4324 97.3419 73.006 99.6112 65.9169 99.4225C63.5512 99.3582 61.1935 98.5228 58.864 97.9083C57.6872 97.595 58.2696 97.0045 58.876 96.5587C62.1615 94.1127 64.0854 90.8513 64.9088 86.8509C65.6478 83.2762 65.1899 79.8943 63.6034 76.641C63.4066 76.2353 63.013 75.8377 63.3665 75.3597C63.744 74.8496 64.234 75.2352 64.6558 75.3115C65.5755 75.4762 66.4792 75.7172 67.395 75.9261Z" fill="#676FC8"/>
<path d="M75.0016 7.24794C74.5719 6.64547 74.2184 6.44063 73.387 6.62137C68.6074 7.67369 64.129 9.39676 60.0242 12.0999C58.775 12.9232 58.7188 13.6743 59.4458 14.8953C61.924 19.0604 65.1894 22.4945 68.9488 25.5109C69.5995 26.033 70.0734 26.1294 70.8486 25.6836C74.1341 23.8079 76.2789 21.1128 77.2629 16.8995C77.9497 13.6984 77.1946 10.3326 75.0016 7.24794ZM71.3546 15.3693C71.19 16.6987 70.4027 16.763 69.3143 16.514C68.1897 16.2529 67.9848 15.6585 68.2057 14.6102C68.4548 13.4213 69.0211 13.0919 70.1979 13.365C71.4189 13.6382 71.7483 14.2647 71.3546 15.3693Z" fill="#23ACDB" fill-opacity="0.75"/>
<path d="M24.0549 13.847C23.5086 13.0477 22.9905 12.8991 22.1028 13.116C17.4919 14.2366 13.1059 15.8593 9.10953 18.482C7.82827 19.3215 7.60335 20.0645 8.41468 21.41C10.9129 25.5631 14.1743 28.9932 17.9297 32.0095C18.6286 32.5678 19.0985 32.5478 19.8295 32.1341C23.0547 30.3066 25.1674 27.6637 25.9587 24.4586C26.9146 20.3457 26.1916 16.9799 24.0549 13.847ZM20.2954 22.0045C19.9902 23.3781 19.1106 23.1652 18.1305 22.9443C16.9055 22.6672 17.0099 21.888 17.1987 20.9401C17.4598 19.6348 18.243 19.5464 19.2471 19.8878C20.6569 20.1087 20.5203 20.9923 20.2954 22.0045Z" fill="#23ACDB" fill-opacity="0.75"/>
<path d="M67.126 41.8499C66.7324 41.2956 66.4633 40.9542 65.5516 41.147C60.6836 42.1712 56.1651 43.9586 52.008 46.6978C50.8392 47.4649 50.8191 48.216 51.4939 49.3567C54.0002 53.582 57.2897 57.0764 61.1334 60.1048C61.8042 60.635 62.2139 60.5988 62.8565 60.2414C66.1661 58.4139 68.327 55.7228 69.1744 52.1964C70.046 48.3164 69.323 44.9386 67.126 41.8499ZM63.463 49.8106C63.3345 51.0195 62.7039 51.3408 61.519 51.0758C60.302 50.8026 60.041 50.2002 60.3181 49.0555C60.5792 47.9791 61.0772 47.6256 62.1777 47.8706C63.2943 48.1196 63.8928 48.5855 63.463 49.8106Z" fill="#23ACDB" fill-opacity="0.75"/>
<path d="M16.0873 48.3446C15.7018 47.8064 15.4567 47.4248 14.5249 47.6216C9.66097 48.6498 5.14243 50.4332 0.981353 53.1644C-0.17941 53.9275 -0.243673 54.6705 0.439128 55.8193C2.94541 60.0486 6.22688 63.547 10.0747 66.5754C10.7213 67.0855 11.135 67.1016 11.7977 66.7361C15.1113 64.9126 17.2682 62.2175 18.0112 59.177C19.0073 54.8111 18.2924 51.4292 16.0873 48.3446ZM12.4323 56.2008C12.2998 57.3897 11.7576 57.8476 10.5245 57.5624C9.35973 57.2933 8.95808 56.7752 9.25932 55.5823C9.51637 54.5541 9.93811 54.0721 11.0748 54.3332C12.1391 54.5862 12.8782 54.9477 12.4323 56.2008Z" fill="#23ACDB" fill-opacity="0.75"/>
<path d="M59.2332 76.3636C58.7231 75.6206 58.2492 75.5121 57.4418 75.7009C52.7466 76.7854 48.3043 78.4442 44.2638 81.1272C43.0669 81.9184 42.8259 82.6253 43.585 83.8986C46.1033 88.1159 49.3848 91.6142 53.2286 94.6426C53.9073 95.1768 54.317 95.1246 54.9516 94.7712C58.2612 92.9437 60.4221 90.2526 61.2816 86.6498C62.1331 82.8422 61.378 79.4844 59.2332 76.3636ZM55.538 84.3966C55.3934 85.6779 54.6665 85.8586 53.5418 85.5895C52.4534 85.3324 52.1361 84.8103 52.373 83.7218C52.6221 82.5771 53.104 82.1273 54.3251 82.4165C55.5019 82.6896 55.9557 83.2399 55.538 84.3966Z" fill="#23ACDB" fill-opacity="0.75"/>
<path d="M112.633 21.3016C112.464 21.6752 112.36 22.0768 112.131 22.3901C110.858 24.1332 110.464 26.0531 110.761 28.1818C110.894 29.1498 110.95 30.1861 109.809 30.7685C108.757 31.3067 108.319 30.2664 107.604 29.9652C107.138 29.7684 106.761 29.3627 106.363 29.0253C105.15 28.0091 103.708 27.1576 105.371 25.2378C105.945 24.575 106.235 23.2135 105.978 22.378C105.375 20.418 106.528 20.177 107.861 19.932C108.881 19.7432 109.878 19.4661 110.922 19.3255C112.693 19.0885 112.789 19.9963 112.633 21.3016Z" fill="#23ACDB" fill-opacity="0.75"/>
<path d="M61.5833 27.8481C61.3986 28.1976 61.2218 28.6273 60.9688 29.0089C59.8161 30.7279 59.4104 32.5836 59.7116 34.644C59.8522 35.612 59.9084 36.6482 58.7758 37.2387C57.7355 37.7769 57.2776 36.7607 56.5667 36.4554C56.1048 36.2586 55.7233 35.853 55.3256 35.5156C54.1327 34.4994 52.5984 33.676 54.3175 31.7321C54.8959 31.0774 55.1851 29.7037 54.928 28.8764C54.3175 26.9203 55.4622 26.6633 56.7997 26.4183C57.8239 26.2335 58.82 25.9564 59.8602 25.8078C61.6355 25.5467 61.7319 26.4624 61.5833 27.8481Z" fill="#23ACDB" fill-opacity="0.75"/>
<path d="M104.71 55.8797C104.55 56.205 104.389 56.6509 104.132 57.0244C102.947 58.7314 102.55 60.591 102.831 62.6475C102.963 63.6195 103.076 64.6637 101.955 65.2662C100.847 65.8607 100.32 64.8565 99.6096 64.4067C99.0633 64.0613 98.5894 63.5954 98.0793 63.1937C96.9908 62.3382 95.8702 61.6634 97.3563 60.0207C98.015 59.2937 98.3444 57.7273 98.0431 56.7955C97.4447 54.9599 98.5452 54.8073 99.6859 54.5302C100.758 54.2691 101.859 54.1165 102.939 53.9036C104.526 53.5823 104.923 54.3695 104.71 55.8797Z" fill="#23ACDB" fill-opacity="0.75"/>
<path d="M53.7197 62.1895C53.5269 62.6112 53.3903 63.0691 53.1293 63.4427C51.9002 65.2059 51.4946 67.1177 51.8079 69.2465C51.9364 70.1381 51.9685 71.1141 50.9724 71.7126C49.8599 72.3833 49.3377 71.319 48.6027 70.9294C48.0926 70.6603 47.6749 70.2144 47.217 69.849C46.0482 68.9211 44.8031 68.1901 46.3414 66.3707C46.9881 65.6075 47.3134 64.1656 46.9318 62.9527C46.5945 61.8803 47.0082 61.3581 48.0002 61.1653C49.3417 60.9083 50.6391 60.5146 52.0087 60.3379C53.6916 60.121 53.7317 61.0047 53.7197 62.1895Z" fill="#23ACDB" fill-opacity="0.75"/>
<path d="M96.8092 90.4251C96.6244 90.7826 96.4477 91.2164 96.1947 91.5939C95.0821 93.2487 94.6323 95.0401 94.9014 97.0282C95.042 98.0805 95.2066 99.1811 94.0017 99.8157C92.7807 100.462 92.2826 99.2333 91.4994 98.8035C90.8769 98.4621 90.3387 97.952 89.8045 97.474C88.9208 96.6828 88.1497 96.0803 89.3627 94.6786C90.1137 93.807 90.4632 92.2486 90.0374 90.8991C89.7121 89.8668 90.2061 89.3969 91.0616 89.2362C92.4031 88.9872 93.7004 88.5735 95.0701 88.3928C96.8494 88.1518 96.9458 89.0435 96.8092 90.4251Z" fill="#23ACDB" fill-opacity="0.75"/>
<path d="M80.3262 2.49242C84.1137 -0.226741 87.9414 -0.419532 91.9338 0.488193C92.9861 0.729182 93.4681 1.46821 92.9178 2.42012C92.2993 3.49252 91.0863 4.12712 90.5762 5.33207C90.4196 5.69757 90.1987 5.37223 89.9818 5.25977C87.0538 3.76966 83.8125 3.33989 80.3262 2.49242Z" fill="#23ACDB" fill-opacity="0.75"/>
<path d="M29.3105 8.9389C33.0137 6.29203 36.7812 6.07113 40.7174 6.91459C41.8219 7.15156 42.4846 7.83035 41.8621 8.91078C41.2475 9.97916 40.0466 10.6298 39.5164 11.8227C39.3598 12.1762 39.1228 11.8308 38.914 11.7223C35.998 10.2282 32.7446 9.85465 29.3105 8.9389Z" fill="#23ACDB" fill-opacity="0.75"/>
<path d="M72.418 37.0301C76.1935 34.2949 80.0212 34.1222 84.0055 35.0219C85.1944 35.291 85.588 36.1545 84.9213 37.1145C84.2545 38.0744 83.1942 38.7411 82.672 39.8537C82.4953 40.2272 82.3025 39.922 82.0776 39.8095C79.1536 38.3033 75.9083 37.8696 72.418 37.0301Z" fill="#23ACDB" fill-opacity="0.75"/>
<path d="M21.4258 43.4764C25.1651 40.7532 29.025 40.5925 33.0575 41.5244C33.5274 41.6328 34.0094 41.8577 34.0817 42.3678C34.3548 44.3078 32.1859 44.7375 31.6196 46.2196C31.3103 47.0309 30.732 46.1072 30.4106 45.9545C27.6594 44.6733 24.651 44.3801 21.4258 43.4764Z" fill="#23ACDB" fill-opacity="0.75"/>
<path d="M64.502 71.5599C68.2935 68.8367 72.1252 68.648 76.1136 69.5597C77.1659 69.8007 77.6399 70.5478 77.0896 71.4957C76.4711 72.5681 75.2581 73.1986 74.744 74.4036C74.5873 74.7691 74.3624 74.4357 74.1455 74.3233C71.2255 72.8331 67.9842 72.4074 64.502 71.5599Z" fill="#23ACDB" fill-opacity="0.75"/>
</svg>
