<svg width="36" height="36" viewBox="0 0 36 36" fill="none" xmlns="http://www.w3.org/2000/svg">
<path d="M20.2633 15.0703C20.2633 15.5477 20.0737 16.0055 19.7361 16.3431C19.3986 16.6806 18.9407 16.8703 18.4633 16.8703C17.9859 16.8703 17.5281 16.6806 17.1905 16.3431C16.853 16.0055 16.6633 15.5477 16.6633 15.0703C16.6633 14.5929 16.853 14.135 17.1905 13.7975C17.5281 13.4599 17.9859 13.2703 18.4633 13.2703C18.9407 13.2703 19.3986 13.4599 19.7361 13.7975C20.0737 14.135 20.2633 14.5929 20.2633 15.0703V15.0703Z" fill="#B3EBFF"/>
<path d="M23.2 8.80005H13.6C12.9634 8.80005 12.353 9.05291 11.9029 9.50299C11.4528 9.95308 11.2 10.5635 11.2 11.2V25.6C11.2 26.2366 11.4528 26.847 11.9029 27.2971C12.353 27.7472 12.9634 28 13.6 28H23.2C23.8365 28 24.4469 27.7472 24.897 27.2971C25.3471 26.847 25.6 26.2366 25.6 25.6V11.2C25.6 10.5635 25.3471 9.95308 24.897 9.50299C24.4469 9.05291 23.8365 8.80005 23.2 8.80005V8.80005ZM12.4 11.2C12.4 10.8818 12.5264 10.5766 12.7514 10.3515C12.9765 10.1265 13.2817 10 13.6 10H23.2C23.5182 10 23.8234 10.1265 24.0485 10.3515C24.2735 10.5766 24.4 10.8818 24.4 11.2V20.8L21.9004 18.3004C21.8387 18.2389 21.7645 18.1916 21.6827 18.1616C21.6009 18.1317 21.5136 18.1199 21.4268 18.1271C21.3401 18.1343 21.2559 18.1603 21.1802 18.2033C21.1045 18.2463 21.039 18.3052 20.9884 18.376L18.4 22L15.802 20.44C15.6871 20.3713 15.5525 20.3429 15.4196 20.3594C15.2868 20.3759 15.1633 20.4364 15.0688 20.5312L12.4 23.2V11.2Z" fill="#B3EBFF"/>
<circle cx="18" cy="18" r="17.25" stroke="#B2EBFF" stroke-width="1.5"/>
</svg>
