<?xml version="1.0" encoding="utf-8"?>
<!-- Generator: Adobe Illustrator 24.3.0, SVG Export Plug-In . SVG Version: 6.00 Build 0)  -->
<svg version="1.1" id="Layer_1" xmlns="http://www.w3.org/2000/svg" xmlns:xlink="http://www.w3.org/1999/xlink" x="0px" y="0px"
	 width="105px" height="28px" viewBox="0 0 105 28" style="enable-background:new 0 0 105 28;" xml:space="preserve">
<style type="text/css">
	.st0{clip-path:url(#SVGID_2_);fill:#23ACDB;}
	.st1{clip-path:url(#SVGID_2_);fill:#23ABDB;}
	.st2{clip-path:url(#SVGID_2_);fill:#23ABDA;}
	.st3{clip-path:url(#SVGID_2_);fill:#24ABDA;}
	.st4{clip-path:url(#SVGID_2_);fill:#24AADA;}
	.st5{clip-path:url(#SVGID_2_);fill:#24A9D9;}
	.st6{clip-path:url(#SVGID_2_);fill:#25A8D8;}
	.st7{clip-path:url(#SVGID_2_);fill:#25A7D8;}
	.st8{clip-path:url(#SVGID_2_);fill:#25A6D7;}
	.st9{clip-path:url(#SVGID_2_);fill:#26A6D7;}
	.st10{clip-path:url(#SVGID_2_);fill:#26A5D6;}
	.st11{clip-path:url(#SVGID_2_);fill:#26A4D6;}
	.st12{clip-path:url(#SVGID_2_);fill:#27A3D5;}
	.st13{clip-path:url(#SVGID_2_);fill:#27A2D5;}
	.st14{clip-path:url(#SVGID_2_);fill:#27A2D4;}
	.st15{clip-path:url(#SVGID_2_);fill:#28A1D3;}
	.st16{clip-path:url(#SVGID_2_);fill:#28A0D3;}
	.st17{clip-path:url(#SVGID_2_);fill:#289FD2;}
	.st18{clip-path:url(#SVGID_2_);fill:#299ED2;}
	.st19{clip-path:url(#SVGID_2_);fill:#299DD1;}
	.st20{clip-path:url(#SVGID_2_);fill:#299CD0;}
	.st21{clip-path:url(#SVGID_2_);fill:#2A9CD0;}
	.st22{clip-path:url(#SVGID_2_);fill:#2A9BCF;}
	.st23{clip-path:url(#SVGID_2_);fill:#2A9ACF;}
	.st24{clip-path:url(#SVGID_2_);fill:#2B99CE;}
	.st25{clip-path:url(#SVGID_2_);fill:#2B98CD;}
	.st26{clip-path:url(#SVGID_2_);fill:#2C97CD;}
	.st27{clip-path:url(#SVGID_2_);fill:#2C96CC;}
	.st28{clip-path:url(#SVGID_2_);fill:#2C95CB;}
	.st29{clip-path:url(#SVGID_2_);fill:#2D94CB;}
	.st30{clip-path:url(#SVGID_2_);fill:#2D93CA;}
	.st31{clip-path:url(#SVGID_2_);fill:#2E92C9;}
	.st32{clip-path:url(#SVGID_2_);fill:#2E91C9;}
	.st33{clip-path:url(#SVGID_2_);fill:#2F90C8;}
	.st34{clip-path:url(#SVGID_2_);fill:#2F8FC7;}
	.st35{clip-path:url(#SVGID_2_);fill:#2F8EC6;}
	.st36{clip-path:url(#SVGID_2_);fill:#308DC6;}
	.st37{clip-path:url(#SVGID_2_);fill:#308CC5;}
	.st38{clip-path:url(#SVGID_2_);fill:#318AC4;}
	.st39{clip-path:url(#SVGID_2_);fill:#3189C3;}
	.st40{clip-path:url(#SVGID_2_);fill:#3288C3;}
	.st41{clip-path:url(#SVGID_2_);fill:#3287C2;}
	.st42{clip-path:url(#SVGID_2_);fill:#3386C1;}
	.st43{clip-path:url(#SVGID_2_);fill:#3385C0;}
	.st44{clip-path:url(#SVGID_2_);fill:#3484C0;}
	.st45{clip-path:url(#SVGID_2_);fill:#3483BF;}
	.st46{clip-path:url(#SVGID_2_);fill:#3481BE;}
	.st47{clip-path:url(#SVGID_2_);fill:#3580BD;}
	.st48{clip-path:url(#SVGID_2_);fill:#357FBC;}
	.st49{clip-path:url(#SVGID_2_);fill:#367EBC;}
	.st50{clip-path:url(#SVGID_2_);fill:#367DBB;}
	.st51{clip-path:url(#SVGID_2_);fill:#377BBA;}
	.st52{clip-path:url(#SVGID_2_);fill:#377AB9;}
	.st53{clip-path:url(#SVGID_2_);fill:#3879B8;}
	.st54{clip-path:url(#SVGID_2_);fill:#3878B8;}
	.st55{clip-path:url(#SVGID_2_);fill:#3977B7;}
	.st56{clip-path:url(#SVGID_2_);fill:#3975B6;}
	.st57{clip-path:url(#SVGID_2_);fill:#3A74B5;}
	.st58{clip-path:url(#SVGID_2_);fill:#3A73B4;}
	.st59{clip-path:url(#SVGID_2_);fill:#3B72B3;}
	.st60{clip-path:url(#SVGID_2_);fill:#3B70B2;}
	.st61{clip-path:url(#SVGID_2_);fill:#3C6FB2;}
	.st62{clip-path:url(#SVGID_2_);fill:#3D6EB1;}
	.st63{clip-path:url(#SVGID_2_);fill:#3D6DB0;}
	.st64{clip-path:url(#SVGID_2_);fill:#3E6BAF;}
	.st65{clip-path:url(#SVGID_2_);fill:#3E6AAE;}
	.st66{clip-path:url(#SVGID_2_);fill:#3F69AD;}
	.st67{clip-path:url(#SVGID_2_);fill:#3F67AC;}
	.st68{clip-path:url(#SVGID_2_);fill:#4066AB;}
	.st69{clip-path:url(#SVGID_2_);fill:#4065AB;}
	.st70{clip-path:url(#SVGID_2_);fill:#4163AA;}
	.st71{clip-path:url(#SVGID_2_);fill:#4162A9;}
	.st72{clip-path:url(#SVGID_2_);fill:#4261A8;}
	.st73{clip-path:url(#SVGID_2_);fill:#425FA7;}
	.st74{clip-path:url(#SVGID_2_);fill:#435EA6;}
	.st75{clip-path:url(#SVGID_2_);fill:#445DA6;}
	.st76{clip-path:url(#SVGID_2_);fill:#455DA5;}
	.st77{clip-path:url(#SVGID_2_);fill:#465CA5;}
	.st78{clip-path:url(#SVGID_2_);fill:#475BA5;}
	.st79{clip-path:url(#SVGID_2_);fill:#485BA4;}
	.st80{clip-path:url(#SVGID_2_);fill:#495AA4;}
	.st81{clip-path:url(#SVGID_2_);fill:#4A59A4;}
	.st82{clip-path:url(#SVGID_2_);fill:#4B59A3;}
	.st83{clip-path:url(#SVGID_2_);fill:#4C58A3;}
	.st84{clip-path:url(#SVGID_2_);fill:#4D57A3;}
	.st85{clip-path:url(#SVGID_2_);fill:#4E57A2;}
	.st86{clip-path:url(#SVGID_2_);fill:#4F56A2;}
	.st87{clip-path:url(#SVGID_2_);fill:#5056A1;}
	.st88{clip-path:url(#SVGID_2_);fill:#5155A1;}
	.st89{clip-path:url(#SVGID_2_);fill:#5254A1;}
	.st90{clip-path:url(#SVGID_2_);fill:#5354A0;}
	.st91{clip-path:url(#SVGID_2_);fill:#5453A0;}
	.st92{clip-path:url(#SVGID_2_);fill:#5552A0;}
	.st93{clip-path:url(#SVGID_2_);fill:#56529F;}
	.st94{clip-path:url(#SVGID_2_);fill:#57519F;}
	.st95{clip-path:url(#SVGID_2_);fill:#58509F;}
	.st96{clip-path:url(#SVGID_2_);fill:#59509E;}
	.st97{clip-path:url(#SVGID_2_);fill:#5A4F9E;}
	.st98{clip-path:url(#SVGID_2_);fill:#5B4E9E;}
	.st99{clip-path:url(#SVGID_2_);fill:#5C4E9D;}
	.st100{clip-path:url(#SVGID_2_);fill:#5D4D9D;}
	.st101{clip-path:url(#SVGID_2_);fill:#5E4C9D;}
	.st102{clip-path:url(#SVGID_2_);fill:#5F4C9C;}
	.st103{clip-path:url(#SVGID_2_);fill:#604B9C;}
	.st104{clip-path:url(#SVGID_2_);fill:#614A9C;}
	.st105{clip-path:url(#SVGID_2_);fill:#624A9B;}
	.st106{clip-path:url(#SVGID_2_);fill:#63499B;}
	.st107{clip-path:url(#SVGID_2_);fill:#64499A;}
	.st108{clip-path:url(#SVGID_2_);fill:#65489A;}
	.st109{clip-path:url(#SVGID_2_);fill:#66479A;}
	.st110{clip-path:url(#SVGID_2_);fill:#674799;}
	.st111{clip-path:url(#SVGID_2_);fill:#684699;}
	.st112{clip-path:url(#SVGID_2_);fill:#694599;}
	.st113{clip-path:url(#SVGID_2_);fill:#6A4598;}
	.st114{clip-path:url(#SVGID_2_);fill:#6B4498;}
	.st115{clip-path:url(#SVGID_2_);fill:#6C4398;}
	.st116{clip-path:url(#SVGID_2_);fill:#6D4397;}
	.st117{clip-path:url(#SVGID_2_);fill:#6F4297;}
	.st118{clip-path:url(#SVGID_2_);fill:#704197;}
	.st119{clip-path:url(#SVGID_2_);fill:#714196;}
	.st120{clip-path:url(#SVGID_2_);fill:#724096;}
	.st121{clip-path:url(#SVGID_2_);fill:#733F96;}
	.st122{clip-path:url(#SVGID_2_);fill:#743F95;}
	.st123{clip-path:url(#SVGID_2_);fill:#753E95;}
	.st124{clip-path:url(#SVGID_2_);fill:#763D95;}
	.st125{clip-path:url(#SVGID_2_);fill:#773D94;}
	.st126{clip-path:url(#SVGID_2_);fill:#783C94;}
	.st127{clip-path:url(#SVGID_2_);fill:#793B94;}
	.st128{clip-path:url(#SVGID_2_);fill:#7A3B93;}
	.st129{clip-path:url(#SVGID_2_);fill:#7B3A93;}
	.st130{clip-path:url(#SVGID_2_);fill:#7C3A92;}
	.st131{clip-path:url(#SVGID_2_);fill:#7D3992;}
	.st132{clip-path:url(#SVGID_2_);fill:#7E3892;}
	.st133{clip-path:url(#SVGID_2_);fill:#7F3891;}
	.st134{clip-path:url(#SVGID_2_);fill:#803791;}
	.st135{clip-path:url(#SVGID_2_);fill:#813691;}
	.st136{clip-path:url(#SVGID_2_);fill:#823690;}
	.st137{clip-path:url(#SVGID_2_);fill:#833590;}
	.st138{clip-path:url(#SVGID_2_);fill:#843490;}
	.st139{clip-path:url(#SVGID_2_);fill:#85348F;}
	.st140{clip-path:url(#SVGID_2_);fill:#86338F;}
	.st141{clip-path:url(#SVGID_2_);fill:#87328F;}
	.st142{clip-path:url(#SVGID_2_);fill:#88328E;}
	.st143{clip-path:url(#SVGID_2_);fill:#89318E;}
	.st144{clip-path:url(#SVGID_2_);fill:#8A308E;}
	.st145{clip-path:url(#SVGID_2_);fill:#8B308D;}
	.st146{clip-path:url(#SVGID_2_);fill:#8C2F8D;}
	.st147{clip-path:url(#SVGID_2_);fill:#8D2E8D;}
	.st148{clip-path:url(#SVGID_2_);fill:#8E2E8C;}
	.st149{clip-path:url(#SVGID_2_);fill:#8F2D8C;}
	.st150{clip-path:url(#SVGID_2_);fill:#902D8B;}
	.st151{clip-path:url(#SVGID_2_);fill:#912C8B;}
	.st152{clip-path:url(#SVGID_2_);fill:#922B8B;}
	.st153{clip-path:url(#SVGID_2_);fill:#932B8A;}
	.st154{clip-path:url(#SVGID_2_);fill:#942A8A;}
	.st155{clip-path:url(#SVGID_2_);fill:#95298A;}
	.st156{clip-path:url(#SVGID_2_);fill:#962989;}
	.st157{clip-path:url(#SVGID_2_);fill:#972889;}
	.st158{clip-path:url(#SVGID_2_);fill:#982789;}
	.st159{clip-path:url(#SVGID_2_);fill:#992788;}
	.st160{clip-path:url(#SVGID_2_);fill:#9A2688;}
	.st161{clip-path:url(#SVGID_2_);fill:#9B2688;}
	.st162{clip-path:url(#SVGID_2_);fill:#9C2687;}
	.st163{clip-path:url(#SVGID_2_);fill:#9D2687;}
	.st164{clip-path:url(#SVGID_2_);fill:#9E2687;}
	.st165{clip-path:url(#SVGID_2_);fill:#9F2686;}
	.st166{clip-path:url(#SVGID_2_);fill:#A02686;}
	.st167{clip-path:url(#SVGID_2_);fill:#A12686;}
	.st168{clip-path:url(#SVGID_2_);fill:#A22685;}
	.st169{clip-path:url(#SVGID_2_);fill:#A32685;}
	.st170{clip-path:url(#SVGID_2_);fill:#A42585;}
	.st171{clip-path:url(#SVGID_2_);fill:#A52584;}
	.st172{clip-path:url(#SVGID_2_);fill:#A62584;}
	.st173{clip-path:url(#SVGID_2_);fill:#A72584;}
	.st174{clip-path:url(#SVGID_2_);fill:#A82583;}
	.st175{clip-path:url(#SVGID_2_);fill:#A92583;}
	.st176{clip-path:url(#SVGID_2_);fill:#AA2583;}
	.st177{clip-path:url(#SVGID_2_);fill:#AB2582;}
	.st178{clip-path:url(#SVGID_2_);fill:#AC2582;}
	.st179{clip-path:url(#SVGID_2_);fill:#AD2582;}
	.st180{clip-path:url(#SVGID_2_);fill:#AE2581;}
	.st181{clip-path:url(#SVGID_2_);fill:#AF2581;}
	.st182{clip-path:url(#SVGID_2_);fill:#B02581;}
	.st183{clip-path:url(#SVGID_2_);fill:#B12580;}
	.st184{clip-path:url(#SVGID_2_);fill:#B22580;}
	.st185{clip-path:url(#SVGID_2_);fill:#B32580;}
	.st186{clip-path:url(#SVGID_2_);fill:#B4257F;}
	.st187{clip-path:url(#SVGID_2_);fill:#B5257F;}
	.st188{clip-path:url(#SVGID_2_);fill:#B6247F;}
	.st189{clip-path:url(#SVGID_2_);fill:#B7247E;}
	.st190{clip-path:url(#SVGID_2_);fill:#B8247E;}
	.st191{clip-path:url(#SVGID_2_);fill:#B9247E;}
	.st192{clip-path:url(#SVGID_2_);fill:#BA247D;}
	.st193{clip-path:url(#SVGID_2_);fill:#BB247D;}
	.st194{clip-path:url(#SVGID_2_);fill:#BC247D;}
	.st195{clip-path:url(#SVGID_2_);fill:#BD247C;}
	.st196{clip-path:url(#SVGID_2_);fill:#BE247C;}
	.st197{clip-path:url(#SVGID_2_);fill:#C0247C;}
	.st198{clip-path:url(#SVGID_2_);fill:#C1247B;}
	.st199{clip-path:url(#SVGID_2_);fill:#C2247B;}
	.st200{clip-path:url(#SVGID_2_);fill:#C3247A;}
	.st201{clip-path:url(#SVGID_2_);fill:#C4247A;}
	.st202{clip-path:url(#SVGID_2_);fill:#C5247A;}
	.st203{clip-path:url(#SVGID_2_);fill:#C62479;}
	.st204{clip-path:url(#SVGID_2_);fill:#C72479;}
	.st205{clip-path:url(#SVGID_2_);fill:#C82479;}
	.st206{clip-path:url(#SVGID_2_);fill:#C92478;}
	.st207{clip-path:url(#SVGID_2_);fill:#CA2378;}
	.st208{clip-path:url(#SVGID_2_);fill:#CB2378;}
	.st209{clip-path:url(#SVGID_2_);fill:#CC2377;}
	.st210{clip-path:url(#SVGID_2_);fill:#CD2377;}
	.st211{clip-path:url(#SVGID_2_);fill:#CE2377;}
	.st212{clip-path:url(#SVGID_2_);fill:#CF2376;}
	.st213{clip-path:url(#SVGID_2_);fill:#D02376;}
	.st214{clip-path:url(#SVGID_2_);fill:#D12376;}
	.st215{clip-path:url(#SVGID_2_);fill:#D22375;}
	.st216{clip-path:url(#SVGID_2_);fill:#D32375;}
	.st217{clip-path:url(#SVGID_2_);fill:#D42375;}
	.st218{clip-path:url(#SVGID_2_);fill:#D52374;}
	.st219{clip-path:url(#SVGID_2_);fill:#D62374;}
	.st220{clip-path:url(#SVGID_2_);fill:#D72374;}
	.st221{clip-path:url(#SVGID_2_);fill:#D82373;}
	.st222{clip-path:url(#SVGID_2_);fill:#D92373;}
	.st223{clip-path:url(#SVGID_2_);fill:#DA2373;}
	.st224{clip-path:url(#SVGID_2_);fill:#DB2372;}
	.st225{clip-path:url(#SVGID_2_);fill:#DC2272;}
	.st226{clip-path:url(#SVGID_2_);fill:#DD2272;}
	.st227{clip-path:url(#SVGID_2_);fill:#DE2271;}
	.st228{clip-path:url(#SVGID_2_);fill:#DF2271;}
	.st229{clip-path:url(#SVGID_2_);fill:#E02271;}
	.st230{clip-path:url(#SVGID_2_);fill:#E12270;}
	.st231{clip-path:url(#SVGID_2_);fill:#E22270;}
	.st232{clip-path:url(#SVGID_2_);fill:#E32270;}
	.st233{clip-path:url(#SVGID_2_);fill:#E4226F;}
	.st234{clip-path:url(#SVGID_2_);fill:#E5226F;}
	.st235{fill:#E5226F;}
	.st236{fill:#FFFFFF;}
	.st237{fill:#9A2688;}
	.st238{fill:#23BEDB;}
	.st239{fill:#435EA6;}
	.st240{fill:#2F8EC6;}
	.st241{fill:#23ACDB;}
	.st242{clip-path:url(#SVGID_4_);}
	.st243{clip-path:url(#SVGID_6_);fill:#E5226F;}
	.st244{clip-path:url(#SVGID_6_);fill:#E4226F;}
	.st245{clip-path:url(#SVGID_6_);fill:#E32270;}
	.st246{clip-path:url(#SVGID_6_);fill:#E22270;}
	.st247{clip-path:url(#SVGID_6_);fill:#E12270;}
	.st248{clip-path:url(#SVGID_6_);fill:#E02271;}
	.st249{clip-path:url(#SVGID_6_);fill:#DF2271;}
	.st250{clip-path:url(#SVGID_6_);fill:#DE2271;}
	.st251{clip-path:url(#SVGID_6_);fill:#DD2272;}
	.st252{clip-path:url(#SVGID_6_);fill:#DC2272;}
	.st253{clip-path:url(#SVGID_6_);fill:#DB2372;}
	.st254{clip-path:url(#SVGID_6_);fill:#DA2373;}
	.st255{clip-path:url(#SVGID_6_);fill:#D92373;}
	.st256{clip-path:url(#SVGID_6_);fill:#D82373;}
	.st257{clip-path:url(#SVGID_6_);fill:#D72374;}
	.st258{clip-path:url(#SVGID_6_);fill:#D62374;}
	.st259{clip-path:url(#SVGID_6_);fill:#D52374;}
	.st260{clip-path:url(#SVGID_6_);fill:#D42375;}
	.st261{clip-path:url(#SVGID_6_);fill:#D32375;}
	.st262{clip-path:url(#SVGID_6_);fill:#D22375;}
	.st263{clip-path:url(#SVGID_6_);fill:#D12376;}
	.st264{clip-path:url(#SVGID_6_);fill:#D02376;}
	.st265{clip-path:url(#SVGID_6_);fill:#CF2376;}
	.st266{clip-path:url(#SVGID_6_);fill:#CE2377;}
	.st267{clip-path:url(#SVGID_6_);fill:#CD2377;}
	.st268{clip-path:url(#SVGID_6_);fill:#CC2377;}
	.st269{clip-path:url(#SVGID_6_);fill:#CB2378;}
	.st270{clip-path:url(#SVGID_6_);fill:#CA2378;}
	.st271{clip-path:url(#SVGID_6_);fill:#C92478;}
	.st272{clip-path:url(#SVGID_6_);fill:#C82479;}
	.st273{clip-path:url(#SVGID_6_);fill:#C72479;}
	.st274{clip-path:url(#SVGID_6_);fill:#C62479;}
	.st275{clip-path:url(#SVGID_6_);fill:#C5247A;}
	.st276{clip-path:url(#SVGID_6_);fill:#C4247A;}
	.st277{clip-path:url(#SVGID_6_);fill:#C3247A;}
	.st278{clip-path:url(#SVGID_6_);fill:#C2247B;}
	.st279{clip-path:url(#SVGID_6_);fill:#C1247B;}
	.st280{clip-path:url(#SVGID_6_);fill:#C0247C;}
	.st281{clip-path:url(#SVGID_6_);fill:#BE247C;}
	.st282{clip-path:url(#SVGID_6_);fill:#BD247C;}
	.st283{clip-path:url(#SVGID_6_);fill:#BC247D;}
	.st284{clip-path:url(#SVGID_6_);fill:#BB247D;}
	.st285{clip-path:url(#SVGID_6_);fill:#BA247D;}
	.st286{clip-path:url(#SVGID_6_);fill:#B9247E;}
	.st287{clip-path:url(#SVGID_6_);fill:#B8247E;}
	.st288{clip-path:url(#SVGID_6_);fill:#B7247E;}
	.st289{clip-path:url(#SVGID_6_);fill:#B6247F;}
	.st290{clip-path:url(#SVGID_6_);fill:#B5257F;}
	.st291{clip-path:url(#SVGID_6_);fill:#B4257F;}
	.st292{clip-path:url(#SVGID_6_);fill:#B32580;}
	.st293{clip-path:url(#SVGID_6_);fill:#B22580;}
	.st294{clip-path:url(#SVGID_6_);fill:#B12580;}
	.st295{clip-path:url(#SVGID_6_);fill:#B02581;}
	.st296{clip-path:url(#SVGID_6_);fill:#AF2581;}
	.st297{clip-path:url(#SVGID_6_);fill:#AE2581;}
	.st298{clip-path:url(#SVGID_6_);fill:#AD2582;}
	.st299{clip-path:url(#SVGID_6_);fill:#AC2582;}
	.st300{clip-path:url(#SVGID_6_);fill:#AB2582;}
	.st301{clip-path:url(#SVGID_6_);fill:#AA2583;}
	.st302{clip-path:url(#SVGID_6_);fill:#A92583;}
	.st303{clip-path:url(#SVGID_6_);fill:#A82583;}
	.st304{clip-path:url(#SVGID_6_);fill:#A72584;}
	.st305{clip-path:url(#SVGID_6_);fill:#A62584;}
	.st306{clip-path:url(#SVGID_6_);fill:#A52584;}
	.st307{clip-path:url(#SVGID_6_);fill:#A42585;}
	.st308{clip-path:url(#SVGID_6_);fill:#A32685;}
	.st309{clip-path:url(#SVGID_6_);fill:#A22685;}
	.st310{clip-path:url(#SVGID_6_);fill:#A12686;}
	.st311{clip-path:url(#SVGID_6_);fill:#A02686;}
	.st312{clip-path:url(#SVGID_6_);fill:#9F2686;}
	.st313{clip-path:url(#SVGID_6_);fill:#9E2687;}
	.st314{clip-path:url(#SVGID_6_);fill:#9D2687;}
	.st315{clip-path:url(#SVGID_6_);fill:#9C2687;}
	.st316{clip-path:url(#SVGID_6_);fill:#9B2688;}
	.st317{clip-path:url(#SVGID_6_);fill:#9A2688;}
	.st318{clip-path:url(#SVGID_8_);}
	.st319{clip-path:url(#SVGID_10_);fill:#E5226F;}
	.st320{clip-path:url(#SVGID_10_);fill:#E4226F;}
	.st321{clip-path:url(#SVGID_10_);fill:#E32270;}
	.st322{clip-path:url(#SVGID_10_);fill:#E22270;}
	.st323{clip-path:url(#SVGID_10_);fill:#E12270;}
	.st324{clip-path:url(#SVGID_10_);fill:#E02271;}
	.st325{clip-path:url(#SVGID_10_);fill:#DF2271;}
	.st326{clip-path:url(#SVGID_10_);fill:#DE2271;}
	.st327{clip-path:url(#SVGID_10_);fill:#DD2272;}
	.st328{clip-path:url(#SVGID_10_);fill:#DC2272;}
	.st329{clip-path:url(#SVGID_10_);fill:#DB2372;}
	.st330{clip-path:url(#SVGID_10_);fill:#DA2373;}
	.st331{clip-path:url(#SVGID_10_);fill:#D92373;}
	.st332{clip-path:url(#SVGID_10_);fill:#D82373;}
	.st333{clip-path:url(#SVGID_10_);fill:#D72374;}
	.st334{clip-path:url(#SVGID_10_);fill:#D62374;}
	.st335{clip-path:url(#SVGID_10_);fill:#D52374;}
	.st336{clip-path:url(#SVGID_10_);fill:#D42375;}
	.st337{clip-path:url(#SVGID_10_);fill:#D32375;}
	.st338{clip-path:url(#SVGID_10_);fill:#D22375;}
	.st339{clip-path:url(#SVGID_10_);fill:#D12376;}
	.st340{clip-path:url(#SVGID_10_);fill:#D02376;}
	.st341{clip-path:url(#SVGID_10_);fill:#CF2376;}
	.st342{clip-path:url(#SVGID_10_);fill:#CE2377;}
	.st343{clip-path:url(#SVGID_10_);fill:#CD2377;}
	.st344{clip-path:url(#SVGID_10_);fill:#CC2377;}
	.st345{clip-path:url(#SVGID_10_);fill:#CB2378;}
	.st346{clip-path:url(#SVGID_10_);fill:#CA2378;}
	.st347{clip-path:url(#SVGID_10_);fill:#C92478;}
	.st348{clip-path:url(#SVGID_10_);fill:#C82479;}
	.st349{clip-path:url(#SVGID_10_);fill:#C72479;}
	.st350{clip-path:url(#SVGID_10_);fill:#C62479;}
	.st351{clip-path:url(#SVGID_10_);fill:#C5247A;}
	.st352{clip-path:url(#SVGID_10_);fill:#C4247A;}
	.st353{clip-path:url(#SVGID_10_);fill:#C3247A;}
	.st354{clip-path:url(#SVGID_10_);fill:#C2247B;}
	.st355{clip-path:url(#SVGID_10_);fill:#C1247B;}
	.st356{clip-path:url(#SVGID_10_);fill:#C0247C;}
	.st357{clip-path:url(#SVGID_10_);fill:#BE247C;}
	.st358{clip-path:url(#SVGID_10_);fill:#BD247C;}
	.st359{clip-path:url(#SVGID_10_);fill:#BC247D;}
	.st360{clip-path:url(#SVGID_10_);fill:#BB247D;}
	.st361{clip-path:url(#SVGID_10_);fill:#BA247D;}
	.st362{clip-path:url(#SVGID_10_);fill:#B9247E;}
	.st363{clip-path:url(#SVGID_10_);fill:#B8247E;}
	.st364{clip-path:url(#SVGID_10_);fill:#B7247E;}
	.st365{clip-path:url(#SVGID_10_);fill:#B6247F;}
	.st366{clip-path:url(#SVGID_10_);fill:#B5257F;}
	.st367{clip-path:url(#SVGID_10_);fill:#B4257F;}
	.st368{clip-path:url(#SVGID_10_);fill:#B32580;}
	.st369{clip-path:url(#SVGID_10_);fill:#B22580;}
	.st370{clip-path:url(#SVGID_10_);fill:#B12580;}
	.st371{clip-path:url(#SVGID_10_);fill:#B02581;}
	.st372{clip-path:url(#SVGID_10_);fill:#AF2581;}
	.st373{clip-path:url(#SVGID_10_);fill:#AE2581;}
	.st374{clip-path:url(#SVGID_10_);fill:#AD2582;}
	.st375{clip-path:url(#SVGID_10_);fill:#AC2582;}
	.st376{clip-path:url(#SVGID_10_);fill:#AB2582;}
	.st377{clip-path:url(#SVGID_10_);fill:#AA2583;}
	.st378{clip-path:url(#SVGID_10_);fill:#A92583;}
	.st379{clip-path:url(#SVGID_10_);fill:#A82583;}
	.st380{clip-path:url(#SVGID_10_);fill:#A72584;}
	.st381{clip-path:url(#SVGID_10_);fill:#A62584;}
	.st382{clip-path:url(#SVGID_10_);fill:#A52584;}
	.st383{clip-path:url(#SVGID_10_);fill:#A42585;}
	.st384{clip-path:url(#SVGID_10_);fill:#A32685;}
	.st385{clip-path:url(#SVGID_10_);fill:#A22685;}
	.st386{clip-path:url(#SVGID_10_);fill:#A12686;}
	.st387{clip-path:url(#SVGID_10_);fill:#A02686;}
	.st388{clip-path:url(#SVGID_10_);fill:#9F2686;}
	.st389{clip-path:url(#SVGID_10_);fill:#9E2687;}
	.st390{clip-path:url(#SVGID_10_);fill:#9D2687;}
	.st391{clip-path:url(#SVGID_10_);fill:#9C2687;}
	.st392{clip-path:url(#SVGID_10_);fill:#9B2688;}
	.st393{clip-path:url(#SVGID_10_);fill:#9A2688;}
	.st394{clip-path:url(#SVGID_12_);}
	.st395{clip-path:url(#SVGID_14_);fill:#E5226F;}
	.st396{clip-path:url(#SVGID_14_);fill:#E4226F;}
	.st397{clip-path:url(#SVGID_14_);fill:#E32270;}
	.st398{clip-path:url(#SVGID_14_);fill:#E22270;}
	.st399{clip-path:url(#SVGID_14_);fill:#E12270;}
	.st400{clip-path:url(#SVGID_14_);fill:#E02271;}
	.st401{clip-path:url(#SVGID_14_);fill:#DF2271;}
	.st402{clip-path:url(#SVGID_14_);fill:#DE2271;}
	.st403{clip-path:url(#SVGID_14_);fill:#DD2272;}
	.st404{clip-path:url(#SVGID_14_);fill:#DC2272;}
	.st405{clip-path:url(#SVGID_14_);fill:#DB2372;}
	.st406{clip-path:url(#SVGID_14_);fill:#DA2373;}
	.st407{clip-path:url(#SVGID_14_);fill:#D92373;}
	.st408{clip-path:url(#SVGID_14_);fill:#D82373;}
	.st409{clip-path:url(#SVGID_14_);fill:#D72374;}
	.st410{clip-path:url(#SVGID_14_);fill:#D62374;}
	.st411{clip-path:url(#SVGID_14_);fill:#D52374;}
	.st412{clip-path:url(#SVGID_14_);fill:#D42375;}
	.st413{clip-path:url(#SVGID_14_);fill:#D32375;}
	.st414{clip-path:url(#SVGID_14_);fill:#D22375;}
	.st415{clip-path:url(#SVGID_14_);fill:#D12376;}
	.st416{clip-path:url(#SVGID_14_);fill:#D02376;}
	.st417{clip-path:url(#SVGID_14_);fill:#CF2376;}
	.st418{clip-path:url(#SVGID_14_);fill:#CE2377;}
	.st419{clip-path:url(#SVGID_14_);fill:#CD2377;}
	.st420{clip-path:url(#SVGID_14_);fill:#CC2377;}
	.st421{clip-path:url(#SVGID_14_);fill:#CB2378;}
	.st422{clip-path:url(#SVGID_14_);fill:#CA2378;}
	.st423{clip-path:url(#SVGID_14_);fill:#C92478;}
	.st424{clip-path:url(#SVGID_14_);fill:#C82479;}
	.st425{clip-path:url(#SVGID_14_);fill:#C72479;}
	.st426{clip-path:url(#SVGID_14_);fill:#C62479;}
	.st427{clip-path:url(#SVGID_14_);fill:#C5247A;}
	.st428{clip-path:url(#SVGID_14_);fill:#C4247A;}
	.st429{clip-path:url(#SVGID_14_);fill:#C3247A;}
	.st430{clip-path:url(#SVGID_14_);fill:#C2247B;}
	.st431{clip-path:url(#SVGID_14_);fill:#C1247B;}
	.st432{clip-path:url(#SVGID_14_);fill:#C0247C;}
	.st433{clip-path:url(#SVGID_14_);fill:#BE247C;}
	.st434{clip-path:url(#SVGID_14_);fill:#BD247C;}
	.st435{clip-path:url(#SVGID_14_);fill:#BC247D;}
	.st436{clip-path:url(#SVGID_14_);fill:#BB247D;}
	.st437{clip-path:url(#SVGID_14_);fill:#BA247D;}
	.st438{clip-path:url(#SVGID_14_);fill:#B9247E;}
	.st439{clip-path:url(#SVGID_14_);fill:#B8247E;}
	.st440{clip-path:url(#SVGID_14_);fill:#B7247E;}
	.st441{clip-path:url(#SVGID_14_);fill:#B6247F;}
	.st442{clip-path:url(#SVGID_14_);fill:#B5257F;}
	.st443{clip-path:url(#SVGID_14_);fill:#B4257F;}
	.st444{clip-path:url(#SVGID_14_);fill:#B32580;}
	.st445{clip-path:url(#SVGID_14_);fill:#B22580;}
	.st446{clip-path:url(#SVGID_14_);fill:#B12580;}
	.st447{clip-path:url(#SVGID_14_);fill:#B02581;}
	.st448{clip-path:url(#SVGID_14_);fill:#AF2581;}
	.st449{clip-path:url(#SVGID_14_);fill:#AE2581;}
	.st450{clip-path:url(#SVGID_14_);fill:#AD2582;}
	.st451{clip-path:url(#SVGID_14_);fill:#AC2582;}
	.st452{clip-path:url(#SVGID_14_);fill:#AB2582;}
	.st453{clip-path:url(#SVGID_14_);fill:#AA2583;}
	.st454{clip-path:url(#SVGID_14_);fill:#A92583;}
	.st455{clip-path:url(#SVGID_14_);fill:#A82583;}
	.st456{clip-path:url(#SVGID_14_);fill:#A72584;}
	.st457{clip-path:url(#SVGID_14_);fill:#A62584;}
	.st458{clip-path:url(#SVGID_14_);fill:#A52584;}
	.st459{clip-path:url(#SVGID_14_);fill:#A42585;}
	.st460{clip-path:url(#SVGID_14_);fill:#A32685;}
	.st461{clip-path:url(#SVGID_14_);fill:#A22685;}
	.st462{clip-path:url(#SVGID_14_);fill:#A12686;}
	.st463{clip-path:url(#SVGID_14_);fill:#A02686;}
	.st464{clip-path:url(#SVGID_14_);fill:#9F2686;}
	.st465{clip-path:url(#SVGID_14_);fill:#9E2687;}
	.st466{clip-path:url(#SVGID_14_);fill:#9D2687;}
	.st467{clip-path:url(#SVGID_14_);fill:#9C2687;}
	.st468{clip-path:url(#SVGID_14_);fill:#9B2688;}
	.st469{clip-path:url(#SVGID_14_);fill:#9A2688;}
	.st470{clip-path:url(#SVGID_16_);}
	.st471{clip-path:url(#SVGID_18_);fill:#E5226F;}
	.st472{clip-path:url(#SVGID_18_);fill:#E4226F;}
	.st473{clip-path:url(#SVGID_18_);fill:#E32270;}
	.st474{clip-path:url(#SVGID_18_);fill:#E22270;}
	.st475{clip-path:url(#SVGID_18_);fill:#E12270;}
	.st476{clip-path:url(#SVGID_18_);fill:#E02271;}
	.st477{clip-path:url(#SVGID_18_);fill:#DF2271;}
	.st478{clip-path:url(#SVGID_18_);fill:#DE2271;}
	.st479{clip-path:url(#SVGID_18_);fill:#DD2272;}
	.st480{clip-path:url(#SVGID_18_);fill:#DC2272;}
	.st481{clip-path:url(#SVGID_18_);fill:#DB2372;}
	.st482{clip-path:url(#SVGID_18_);fill:#DA2373;}
	.st483{clip-path:url(#SVGID_18_);fill:#D92373;}
	.st484{clip-path:url(#SVGID_18_);fill:#D82373;}
	.st485{clip-path:url(#SVGID_18_);fill:#D72374;}
	.st486{clip-path:url(#SVGID_18_);fill:#D62374;}
	.st487{clip-path:url(#SVGID_18_);fill:#D52374;}
	.st488{clip-path:url(#SVGID_18_);fill:#D42375;}
	.st489{clip-path:url(#SVGID_18_);fill:#D32375;}
	.st490{clip-path:url(#SVGID_18_);fill:#D22375;}
	.st491{clip-path:url(#SVGID_18_);fill:#D12376;}
	.st492{clip-path:url(#SVGID_18_);fill:#D02376;}
	.st493{clip-path:url(#SVGID_18_);fill:#CF2376;}
	.st494{clip-path:url(#SVGID_18_);fill:#CE2377;}
	.st495{clip-path:url(#SVGID_18_);fill:#CD2377;}
	.st496{clip-path:url(#SVGID_18_);fill:#CC2377;}
	.st497{clip-path:url(#SVGID_18_);fill:#CB2378;}
	.st498{clip-path:url(#SVGID_18_);fill:#CA2378;}
	.st499{clip-path:url(#SVGID_18_);fill:#C92478;}
	.st500{clip-path:url(#SVGID_18_);fill:#C82479;}
	.st501{clip-path:url(#SVGID_18_);fill:#C72479;}
	.st502{clip-path:url(#SVGID_18_);fill:#C62479;}
	.st503{clip-path:url(#SVGID_18_);fill:#C5247A;}
	.st504{clip-path:url(#SVGID_18_);fill:#C4247A;}
	.st505{clip-path:url(#SVGID_18_);fill:#C3247A;}
	.st506{clip-path:url(#SVGID_18_);fill:#C2247B;}
	.st507{clip-path:url(#SVGID_18_);fill:#C1247B;}
	.st508{clip-path:url(#SVGID_18_);fill:#C0247C;}
	.st509{clip-path:url(#SVGID_18_);fill:#BE247C;}
	.st510{clip-path:url(#SVGID_18_);fill:#BD247C;}
	.st511{clip-path:url(#SVGID_18_);fill:#BC247D;}
	.st512{clip-path:url(#SVGID_18_);fill:#BB247D;}
	.st513{clip-path:url(#SVGID_18_);fill:#BA247D;}
	.st514{clip-path:url(#SVGID_18_);fill:#B9247E;}
	.st515{clip-path:url(#SVGID_18_);fill:#B8247E;}
	.st516{clip-path:url(#SVGID_18_);fill:#B7247E;}
	.st517{clip-path:url(#SVGID_18_);fill:#B6247F;}
	.st518{clip-path:url(#SVGID_18_);fill:#B5257F;}
	.st519{clip-path:url(#SVGID_18_);fill:#B4257F;}
	.st520{clip-path:url(#SVGID_18_);fill:#B32580;}
	.st521{clip-path:url(#SVGID_18_);fill:#B22580;}
	.st522{clip-path:url(#SVGID_18_);fill:#B12580;}
	.st523{clip-path:url(#SVGID_18_);fill:#B02581;}
	.st524{clip-path:url(#SVGID_18_);fill:#AF2581;}
	.st525{clip-path:url(#SVGID_18_);fill:#AE2581;}
	.st526{clip-path:url(#SVGID_18_);fill:#AD2582;}
	.st527{clip-path:url(#SVGID_18_);fill:#AC2582;}
	.st528{clip-path:url(#SVGID_18_);fill:#AB2582;}
	.st529{clip-path:url(#SVGID_18_);fill:#AA2583;}
	.st530{clip-path:url(#SVGID_18_);fill:#A92583;}
	.st531{clip-path:url(#SVGID_18_);fill:#A82583;}
	.st532{clip-path:url(#SVGID_18_);fill:#A72584;}
	.st533{clip-path:url(#SVGID_18_);fill:#A62584;}
	.st534{clip-path:url(#SVGID_18_);fill:#A52584;}
	.st535{clip-path:url(#SVGID_18_);fill:#A42585;}
	.st536{clip-path:url(#SVGID_18_);fill:#A32685;}
	.st537{clip-path:url(#SVGID_18_);fill:#A22685;}
	.st538{clip-path:url(#SVGID_18_);fill:#A12686;}
	.st539{clip-path:url(#SVGID_18_);fill:#A02686;}
	.st540{clip-path:url(#SVGID_18_);fill:#9F2686;}
	.st541{clip-path:url(#SVGID_18_);fill:#9E2687;}
	.st542{clip-path:url(#SVGID_18_);fill:#9D2687;}
	.st543{clip-path:url(#SVGID_18_);fill:#9C2687;}
	.st544{clip-path:url(#SVGID_18_);fill:#9B2688;}
	.st545{clip-path:url(#SVGID_18_);fill:#9A2688;}
</style>
<g>
	<g>
		<g>
			<g>
				<defs>
					<path id="SVGID_1_" d="M25.21,19.38c-3.4-1.66-7.12-2.17-10.95-1.54c-0.04-0.04-0.08-0.07-0.12-0.11
						c0.12-0.39,0.23-0.78,0.33-1.16c1.77-0.5,3.36-1.2,4.75-1.98c0.12,0.11,0.24,0.22,0.36,0.33c0.92,0.79,2.14,1.63,3.77,2.5
						c0.54,0.28,1.25,0.12,1.6-0.36c0.35-0.48,0.19-1.1-0.35-1.38c-1.56-0.82-2.66-1.6-3.45-2.3c2.83-1.96,4.46-3.94,4.57-4.08
						c0.35-0.44,0.25-1.05-0.23-1.38c-0.48-0.32-1.16-0.23-1.52,0.21c-0.04,0.05-3.46,4.2-8.95,6.17c0.28-1.35,0.48-2.61,0.6-3.78
						c4.85-2.55,6.19-6.43,6.25-6.6c0.18-0.53-0.15-1.09-0.73-1.25c-0.58-0.16-1.2,0.13-1.38,0.66c-0.01,0.03-0.93,2.6-3.95,4.68
						c0.13-3.75-0.42-6.07-0.47-6.27c-0.14-0.55-0.76-0.9-1.4-0.78c-0.63,0.12-1.04,0.67-0.9,1.22c0.01,0.05,0.69,2.96,0.27,7.61
						c-1.55-1.59-4.09-4.65-4.39-7.81C8.87,1.44,8.35,1.04,7.76,1.08C7.17,1.13,6.73,1.6,6.78,2.14c0.47,5.11,5.6,9.65,6.21,10.17
						c-0.19,1.17-0.46,2.43-0.81,3.75c-0.4-0.32-0.82-0.65-1.26-0.98c-4.41-3.3-6.57-6.52-7.6-8.64C3.05,5.9,2.34,5.65,1.73,5.88
						c-0.62,0.23-0.9,0.85-0.64,1.39c0.63,1.3,1.65,2.97,3.25,4.81c-1.81,0.3-3.06,0.16-3.09,0.16c-0.61-0.08-1.16,0.29-1.23,0.83
						c-0.07,0.54,0.37,1.05,0.98,1.13c0.14,0.02,2.2,0.27,4.97-0.39c0.96,0.94,2.08,1.91,3.38,2.88c0.43,0.32,0.83,0.63,1.22,0.95
						c-1.4-0.57-4.04-1.34-7.38-0.82c-0.56,0.09-1.14,0.21-1.73,0.38c-0.53,0.15-0.82,0.7-0.65,1.23c0.16,0.53,0.72,0.85,1.25,0.7
						c3.16-0.88,5.79-0.34,7.28,0.17C5.54,20.86,3.11,22.96,3,23.05c-0.45,0.39-0.45,1.03,0,1.43c0.23,0.2,0.52,0.3,0.82,0.3
						c0.3,0,0.59-0.1,0.82-0.29c0.05-0.04,2.35-2,5.85-3.42c-0.68,1.64-1.5,3.35-2.5,5.11c-0.29,0.51-0.05,1.13,0.53,1.38
						c0.17,0.07,0.35,0.11,0.52,0.11c0.43,0,0.85-0.21,1.05-0.57c1.38-2.42,2.44-4.75,3.25-6.95c0.01,0,0.02,0,0.02-0.01
						c3.66,3.63,4.38,6.12,4.38,6.14c0.12,0.49,0.63,0.83,1.18,0.83c0.09,0,0.17-0.01,0.26-0.03c0.65-0.13,1.07-0.69,0.92-1.26
						c-0.04-0.14-0.69-2.58-4.01-6.14c2.5-0.21,5.22,0.14,7.98,1.48c0.56,0.27,1.26,0.1,1.57-0.39
						C25.97,20.27,25.77,19.66,25.21,19.38z"/>
				</defs>
				<clipPath id="SVGID_2_">
					<use xlink:href="#SVGID_1_"  style="overflow:visible;"/>
				</clipPath>
				<polygon class="st0" points="25.22,0.83 25.45,2.63 -0.06,5.97 -0.06,0.83 				"/>
				<polygon class="st0" points="25.45,2.63 25.46,2.72 -0.06,6.06 -0.06,5.97 				"/>
				<polygon class="st0" points="25.46,2.72 25.47,2.81 -0.06,6.15 -0.06,6.06 				"/>
				<polygon class="st1" points="25.47,2.81 25.49,2.9 -0.06,6.24 -0.06,6.15 				"/>
				<polygon class="st2" points="25.49,2.9 25.5,2.99 -0.06,6.33 -0.06,6.24 				"/>
				<polygon class="st3" points="25.5,2.99 25.51,3.08 -0.06,6.42 -0.06,6.33 				"/>
				<polygon class="st4" points="25.51,3.08 25.52,3.17 -0.06,6.51 -0.06,6.42 				"/>
				<polygon class="st5" points="25.52,3.17 25.53,3.26 -0.06,6.61 -0.06,6.51 				"/>
				<polygon class="st5" points="25.53,3.26 25.54,3.35 -0.06,6.7 -0.06,6.61 				"/>
				<polygon class="st6" points="25.54,3.35 25.56,3.44 -0.06,6.79 -0.06,6.7 				"/>
				<polygon class="st6" points="25.56,3.44 25.57,3.53 -0.06,6.88 -0.06,6.79 				"/>
				<polygon class="st7" points="25.57,3.53 25.58,3.62 -0.06,6.97 -0.06,6.88 				"/>
				<polygon class="st8" points="25.58,3.62 25.59,3.71 -0.06,7.06 -0.06,6.97 				"/>
				<polygon class="st9" points="25.59,3.71 25.6,3.8 -0.06,7.16 -0.06,7.06 				"/>
				<polygon class="st10" points="25.6,3.8 25.61,3.89 -0.06,7.25 -0.06,7.16 				"/>
				<polygon class="st11" points="25.61,3.89 25.63,3.98 -0.06,7.34 -0.06,7.25 				"/>
				<polygon class="st12" points="25.63,3.98 25.64,4.07 -0.06,7.43 -0.06,7.34 				"/>
				<polygon class="st13" points="25.64,4.07 25.65,4.16 -0.06,7.52 -0.06,7.43 				"/>
				<polygon class="st14" points="25.65,4.16 25.66,4.25 -0.06,7.61 -0.06,7.52 				"/>
				<polygon class="st15" points="25.66,4.25 25.67,4.34 -0.06,7.7 -0.06,7.61 				"/>
				<polygon class="st16" points="25.67,4.34 25.68,4.43 -0.06,7.8 -0.06,7.7 				"/>
				<polygon class="st17" points="25.68,4.43 25.7,4.52 -0.06,7.89 -0.06,7.8 				"/>
				<polygon class="st18" points="25.7,4.52 25.71,4.61 -0.06,7.98 -0.06,7.89 				"/>
				<polygon class="st19" points="25.71,4.61 25.72,4.7 -0.06,8.07 -0.06,7.98 				"/>
				<polygon class="st20" points="25.72,4.7 25.73,4.79 -0.06,8.16 -0.06,8.07 				"/>
				<polygon class="st21" points="25.73,4.79 25.74,4.88 -0.06,8.25 -0.06,8.16 				"/>
				<polygon class="st22" points="25.74,4.88 25.76,4.97 -0.06,8.34 -0.06,8.25 				"/>
				<polygon class="st23" points="25.76,4.97 25.77,5.06 -0.06,8.44 -0.06,8.34 				"/>
				<polygon class="st24" points="25.77,5.06 25.78,5.15 -0.06,8.53 -0.06,8.44 				"/>
				<polygon class="st25" points="25.78,5.15 25.79,5.24 -0.06,8.62 -0.06,8.53 				"/>
				<polygon class="st26" points="25.79,5.24 25.8,5.33 -0.06,8.71 -0.06,8.62 				"/>
				<polygon class="st27" points="25.8,5.33 25.81,5.42 -0.06,8.8 -0.06,8.71 				"/>
				<polygon class="st28" points="25.81,5.42 25.83,5.51 -0.06,8.89 -0.06,8.8 				"/>
				<polygon class="st29" points="25.83,5.51 25.84,5.6 -0.06,8.98 -0.06,8.89 				"/>
				<polygon class="st30" points="25.84,5.6 25.85,5.69 -0.06,9.08 -0.06,8.98 				"/>
				<polygon class="st31" points="25.85,5.69 25.86,5.78 -0.06,9.17 -0.06,9.08 				"/>
				<polygon class="st32" points="25.86,5.78 25.87,5.87 -0.06,9.26 -0.06,9.17 				"/>
				<polygon class="st33" points="25.87,5.87 25.88,5.96 -0.06,9.35 -0.06,9.26 				"/>
				<polygon class="st34" points="25.88,5.96 25.9,6.05 -0.06,9.44 -0.06,9.35 				"/>
				<polygon class="st35" points="25.9,6.05 25.91,6.14 -0.06,9.53 -0.06,9.44 				"/>
				<polygon class="st36" points="25.91,6.14 25.92,6.23 -0.06,9.63 -0.06,9.53 				"/>
				<polygon class="st37" points="25.92,6.23 25.93,6.32 -0.06,9.72 -0.06,9.63 				"/>
				<polygon class="st38" points="25.93,6.32 25.94,6.41 -0.06,9.81 -0.06,9.72 				"/>
				<polygon class="st39" points="25.94,6.41 25.95,6.5 -0.06,9.9 -0.06,9.81 				"/>
				<polygon class="st40" points="25.95,6.5 25.97,6.58 -0.06,9.99 -0.06,9.9 				"/>
				<polygon class="st41" points="25.97,6.58 25.98,6.67 -0.06,10.08 -0.06,9.99 				"/>
				<polygon class="st42" points="25.98,6.67 25.99,6.76 -0.06,10.17 -0.06,10.08 				"/>
				<polygon class="st43" points="25.99,6.76 26,6.85 -0.06,10.27 -0.06,10.17 				"/>
				<polygon class="st44" points="26,6.85 26.01,6.94 -0.06,10.36 -0.06,10.27 				"/>
				<polygon class="st45" points="26.01,6.94 26.02,7.03 -0.06,10.45 -0.06,10.36 				"/>
				<polygon class="st46" points="26.02,7.03 26.04,7.12 -0.06,10.54 -0.06,10.45 				"/>
				<polygon class="st47" points="26.04,7.12 26.05,7.21 -0.06,10.63 -0.06,10.54 				"/>
				<polygon class="st48" points="26.05,7.21 26.06,7.3 -0.06,10.72 -0.06,10.63 				"/>
				<polygon class="st49" points="26.06,7.3 26.07,7.39 -0.06,10.81 -0.06,10.72 				"/>
				<polygon class="st50" points="26.07,7.39 26.08,7.48 -0.06,10.91 -0.06,10.81 				"/>
				<polygon class="st51" points="26.08,7.48 26.09,7.5 26.09,7.58 -0.06,11 -0.06,10.91 				"/>
				<polygon class="st52" points="26.09,7.67 -0.06,11.09 -0.06,11 26.09,7.58 				"/>
				<polygon class="st53" points="26.09,7.76 -0.06,11.18 -0.06,11.09 26.09,7.67 				"/>
				<polygon class="st54" points="26.09,7.85 -0.06,11.27 -0.06,11.18 26.09,7.76 				"/>
				<polygon class="st55" points="26.09,7.94 -0.06,11.36 -0.06,11.27 26.09,7.85 				"/>
				<polygon class="st56" points="26.09,8.03 -0.06,11.45 -0.06,11.36 26.09,7.94 				"/>
				<polygon class="st57" points="26.09,8.12 -0.06,11.55 -0.06,11.45 26.09,8.03 				"/>
				<polygon class="st58" points="26.09,8.22 -0.06,11.64 -0.06,11.55 26.09,8.12 				"/>
				<polygon class="st59" points="26.09,8.31 -0.06,11.73 -0.06,11.64 26.09,8.22 				"/>
				<polygon class="st60" points="26.09,8.4 -0.06,11.82 -0.06,11.73 26.09,8.31 				"/>
				<polygon class="st61" points="26.09,8.49 -0.06,11.91 -0.06,11.82 26.09,8.4 				"/>
				<polygon class="st62" points="26.09,8.58 -0.06,12 -0.06,11.91 26.09,8.49 				"/>
				<polygon class="st63" points="26.09,8.67 -0.06,12.09 -0.06,12 26.09,8.58 				"/>
				<polygon class="st64" points="26.09,8.76 -0.06,12.19 -0.06,12.09 26.09,8.67 				"/>
				<polygon class="st65" points="26.09,8.86 -0.06,12.28 -0.06,12.19 26.09,8.76 				"/>
				<polygon class="st66" points="26.09,8.95 -0.06,12.37 -0.06,12.28 26.09,8.86 				"/>
				<polygon class="st67" points="26.09,9.04 -0.06,12.46 -0.06,12.37 26.09,8.95 				"/>
				<polygon class="st68" points="26.09,9.13 -0.06,12.55 -0.06,12.46 26.09,9.04 				"/>
				<polygon class="st69" points="26.09,9.22 -0.06,12.64 -0.06,12.55 26.09,9.13 				"/>
				<polygon class="st70" points="26.09,9.31 -0.06,12.74 -0.06,12.64 26.09,9.22 				"/>
				<polygon class="st71" points="26.09,9.41 -0.06,12.83 -0.06,12.74 26.09,9.31 				"/>
				<polygon class="st72" points="26.09,9.5 -0.06,12.92 -0.06,12.83 26.09,9.41 				"/>
				<polygon class="st73" points="26.09,9.59 -0.06,13.01 -0.06,12.92 26.09,9.5 				"/>
				<polygon class="st74" points="26.09,9.68 -0.06,13.1 -0.06,13.01 26.09,9.59 				"/>
				<polygon class="st74" points="26.09,9.76 -0.06,13.18 -0.06,13.1 26.09,9.68 				"/>
				<polygon class="st75" points="26.09,9.84 -0.06,13.27 -0.06,13.18 26.09,9.76 				"/>
				<polygon class="st76" points="26.09,9.93 -0.06,13.35 -0.06,13.27 26.09,9.84 				"/>
				<polygon class="st77" points="26.09,10.01 -0.06,13.43 -0.06,13.35 26.09,9.93 				"/>
				<polygon class="st78" points="26.09,10.09 -0.06,13.51 -0.06,13.43 26.09,10.01 				"/>
				<polygon class="st79" points="26.09,10.17 -0.06,13.59 -0.06,13.51 26.09,10.09 				"/>
				<polygon class="st80" points="26.09,10.25 -0.06,13.68 -0.06,13.59 26.09,10.17 				"/>
				<polygon class="st81" points="26.09,10.34 -0.06,13.76 -0.06,13.68 26.09,10.25 				"/>
				<polygon class="st82" points="26.09,10.42 -0.06,13.84 -0.06,13.76 26.09,10.34 				"/>
				<polygon class="st83" points="26.09,10.5 -0.06,13.92 -0.06,13.84 26.09,10.42 				"/>
				<polygon class="st84" points="26.09,10.58 -0.06,14 -0.06,13.92 26.09,10.5 				"/>
				<polygon class="st85" points="26.09,10.66 -0.06,14.09 -0.06,14 26.09,10.58 				"/>
				<polygon class="st86" points="26.09,10.75 -0.06,14.17 -0.06,14.09 26.09,10.66 				"/>
				<polygon class="st87" points="26.09,10.83 -0.06,14.25 -0.06,14.17 26.09,10.75 				"/>
				<polygon class="st88" points="26.09,10.91 -0.06,14.33 -0.06,14.25 26.09,10.83 				"/>
				<polygon class="st89" points="26.09,10.99 -0.06,14.41 -0.06,14.33 26.09,10.91 				"/>
				<polygon class="st90" points="26.09,11.07 -0.06,14.5 -0.06,14.41 26.09,10.99 				"/>
				<polygon class="st91" points="26.09,11.16 -0.06,14.58 -0.06,14.5 26.09,11.07 				"/>
				<polygon class="st92" points="26.09,11.24 -0.06,14.66 -0.06,14.58 26.09,11.16 				"/>
				<polygon class="st93" points="26.09,11.32 -0.06,14.74 -0.06,14.66 26.09,11.24 				"/>
				<polygon class="st94" points="26.09,11.4 -0.06,14.82 -0.06,14.74 26.09,11.32 				"/>
				<polygon class="st95" points="26.09,11.48 -0.06,14.91 -0.06,14.82 26.09,11.4 				"/>
				<polygon class="st96" points="26.09,11.57 -0.06,14.99 -0.06,14.98 -0.06,14.91 26.09,11.48 				"/>
				<polygon class="st97" points="26.09,11.65 -0.05,15.07 -0.06,14.99 26.09,11.57 				"/>
				<polygon class="st98" points="26.09,11.73 -0.04,15.15 -0.05,15.07 26.09,11.65 				"/>
				<polygon class="st99" points="26.09,11.81 -0.03,15.23 -0.04,15.15 26.09,11.73 				"/>
				<polygon class="st100" points="26.09,11.89 -0.02,15.31 -0.03,15.23 26.09,11.81 				"/>
				<polygon class="st101" points="26.09,11.98 -0.01,15.39 -0.02,15.31 26.09,11.89 				"/>
				<polygon class="st102" points="26.09,12.06 0,15.47 -0.01,15.39 26.09,11.98 				"/>
				<polygon class="st103" points="26.09,12.14 0.01,15.55 0,15.47 26.09,12.06 				"/>
				<polygon class="st104" points="26.09,12.22 0.02,15.63 0.01,15.55 26.09,12.14 				"/>
				<polygon class="st105" points="26.09,12.3 0.03,15.71 0.02,15.63 26.09,12.22 				"/>
				<polygon class="st106" points="26.09,12.39 0.04,15.79 0.03,15.71 26.09,12.3 				"/>
				<polygon class="st107" points="26.09,12.47 0.05,15.87 0.04,15.79 26.09,12.39 				"/>
				<polygon class="st108" points="26.09,12.55 0.06,15.96 0.05,15.87 26.09,12.47 				"/>
				<polygon class="st109" points="26.09,12.63 0.07,16.04 0.06,15.96 26.09,12.55 				"/>
				<polygon class="st110" points="26.09,12.71 0.09,16.12 0.07,16.04 26.09,12.63 				"/>
				<polygon class="st111" points="26.09,12.8 0.1,16.2 0.09,16.12 26.09,12.71 				"/>
				<polygon class="st112" points="26.09,12.88 0.11,16.28 0.1,16.2 26.09,12.8 				"/>
				<polygon class="st113" points="26.09,12.96 0.12,16.36 0.11,16.28 26.09,12.88 				"/>
				<polygon class="st114" points="26.09,13.04 0.13,16.44 0.12,16.36 26.09,12.96 				"/>
				<polygon class="st115" points="26.09,13.12 0.14,16.52 0.13,16.44 26.09,13.04 				"/>
				<polygon class="st116" points="26.09,13.21 0.15,16.6 0.14,16.52 26.09,13.12 				"/>
				<polygon class="st117" points="26.09,13.29 0.16,16.68 0.15,16.6 26.09,13.21 				"/>
				<polygon class="st118" points="26.09,13.37 0.17,16.76 0.16,16.68 26.09,13.29 				"/>
				<polygon class="st119" points="26.09,13.45 0.18,16.84 0.17,16.76 26.09,13.37 				"/>
				<polygon class="st120" points="26.09,13.53 0.19,16.92 0.18,16.84 26.09,13.45 				"/>
				<polygon class="st121" points="26.09,13.62 0.2,17 0.19,16.92 26.09,13.53 				"/>
				<polygon class="st122" points="26.09,13.7 0.21,17.08 0.2,17 26.09,13.62 				"/>
				<polygon class="st123" points="26.09,13.78 0.22,17.16 0.21,17.08 26.09,13.7 				"/>
				<polygon class="st124" points="26.09,13.86 0.23,17.25 0.22,17.16 26.09,13.78 				"/>
				<polygon class="st125" points="26.09,13.94 0.24,17.33 0.23,17.25 26.09,13.86 				"/>
				<polygon class="st126" points="26.09,14.03 0.25,17.41 0.24,17.33 26.09,13.94 				"/>
				<polygon class="st127" points="26.09,14.11 0.26,17.49 0.25,17.41 26.09,14.03 				"/>
				<polygon class="st128" points="26.09,14.19 0.27,17.57 0.26,17.49 26.09,14.11 				"/>
				<polygon class="st129" points="26.09,14.27 0.28,17.65 0.27,17.57 26.09,14.19 				"/>
				<polygon class="st130" points="26.09,14.35 0.3,17.73 0.28,17.65 26.09,14.27 				"/>
				<polygon class="st131" points="26.09,14.44 0.31,17.81 0.3,17.73 26.09,14.35 				"/>
				<polygon class="st132" points="26.09,14.52 0.32,17.89 0.31,17.81 26.09,14.44 				"/>
				<polygon class="st133" points="26.09,14.6 0.33,17.97 0.32,17.89 26.09,14.52 				"/>
				<polygon class="st134" points="26.09,14.68 0.34,18.05 0.33,17.97 26.09,14.6 				"/>
				<polygon class="st135" points="26.09,14.76 0.35,18.13 0.34,18.05 26.09,14.68 				"/>
				<polygon class="st136" points="26.09,14.85 0.36,18.21 0.35,18.13 26.09,14.76 				"/>
				<polygon class="st137" points="26.09,14.93 0.37,18.29 0.36,18.21 26.09,14.85 				"/>
				<polygon class="st138" points="26.09,15.01 0.38,18.37 0.37,18.29 26.09,14.93 				"/>
				<polygon class="st139" points="26.09,15.09 0.39,18.46 0.38,18.37 26.09,15.01 				"/>
				<polygon class="st140" points="26.09,15.17 0.4,18.54 0.39,18.46 26.09,15.09 				"/>
				<polygon class="st141" points="26.09,15.26 0.41,18.62 0.4,18.54 26.09,15.17 				"/>
				<polygon class="st142" points="26.09,15.34 0.42,18.7 0.41,18.62 26.09,15.26 				"/>
				<polygon class="st143" points="26.09,15.42 0.43,18.78 0.42,18.7 26.09,15.34 				"/>
				<polygon class="st144" points="26.09,15.5 0.44,18.86 0.43,18.78 26.09,15.42 				"/>
				<polygon class="st145" points="26.09,15.58 0.45,18.94 0.44,18.86 26.09,15.5 				"/>
				<polygon class="st146" points="26.09,15.67 0.46,19.02 0.45,18.94 26.09,15.58 				"/>
				<polygon class="st147" points="26.09,15.75 0.47,19.1 0.46,19.02 26.09,15.67 				"/>
				<polygon class="st148" points="26.09,15.83 0.48,19.18 0.47,19.1 26.09,15.75 				"/>
				<polygon class="st149" points="26.09,15.91 0.49,19.26 0.48,19.18 26.09,15.83 				"/>
				<polygon class="st150" points="26.09,15.99 0.5,19.34 0.49,19.26 26.09,15.91 				"/>
				<polygon class="st151" points="26.09,16.08 0.52,19.42 0.5,19.34 26.09,15.99 				"/>
				<polygon class="st152" points="26.09,16.16 0.53,19.5 0.52,19.42 26.09,16.08 				"/>
				<polygon class="st153" points="26.09,16.24 0.54,19.58 0.53,19.5 26.09,16.16 				"/>
				<polygon class="st154" points="26.09,16.32 0.55,19.66 0.54,19.58 26.09,16.24 				"/>
				<polygon class="st155" points="26.09,16.4 0.56,19.75 0.55,19.66 26.09,16.32 				"/>
				<polygon class="st156" points="26.09,16.49 0.57,19.83 0.56,19.75 26.09,16.4 				"/>
				<polygon class="st157" points="26.09,16.57 0.58,19.91 0.57,19.83 26.09,16.49 				"/>
				<polygon class="st158" points="26.09,16.65 0.59,19.99 0.58,19.91 26.09,16.57 				"/>
				<polygon class="st159" points="26.09,16.73 0.6,20.07 0.59,19.99 26.09,16.65 				"/>
				<polygon class="st160" points="26.09,16.81 0.61,20.15 0.6,20.07 26.09,16.73 				"/>
				<polygon class="st160" points="26.09,16.89 0.62,20.22 0.61,20.15 26.09,16.81 				"/>
				<polygon class="st161" points="26.09,16.96 0.63,20.29 0.62,20.22 26.09,16.89 				"/>
				<polygon class="st162" points="26.09,17.03 0.64,20.36 0.63,20.29 26.09,16.96 				"/>
				<polygon class="st163" points="26.09,17.1 0.65,20.43 0.64,20.36 26.09,17.03 				"/>
				<polygon class="st164" points="26.09,17.17 0.66,20.5 0.65,20.43 26.09,17.1 				"/>
				<polygon class="st165" points="26.09,17.24 0.66,20.57 0.66,20.5 26.09,17.17 				"/>
				<polygon class="st166" points="26.09,17.31 0.67,20.64 0.66,20.57 26.09,17.24 				"/>
				<polygon class="st167" points="26.09,17.38 0.68,20.71 0.67,20.64 26.09,17.31 				"/>
				<polygon class="st168" points="26.09,17.46 0.69,20.78 0.68,20.71 26.09,17.38 				"/>
				<polygon class="st169" points="26.09,17.53 0.7,20.85 0.69,20.78 26.09,17.46 				"/>
				<polygon class="st170" points="26.09,17.6 0.71,20.92 0.7,20.85 26.09,17.53 				"/>
				<polygon class="st171" points="26.09,17.67 0.72,20.99 0.71,20.92 26.09,17.6 				"/>
				<polygon class="st172" points="26.09,17.74 0.73,21.06 0.72,20.99 26.09,17.67 				"/>
				<polygon class="st173" points="26.09,17.81 0.74,21.13 0.73,21.06 26.09,17.74 				"/>
				<polygon class="st174" points="26.09,17.88 0.75,21.2 0.74,21.13 26.09,17.81 				"/>
				<polygon class="st175" points="26.09,17.95 0.76,21.27 0.75,21.2 26.09,17.88 				"/>
				<polygon class="st176" points="26.09,18.03 0.76,21.34 0.76,21.27 26.09,17.95 				"/>
				<polygon class="st177" points="26.09,18.1 0.77,21.41 0.76,21.34 26.09,18.03 				"/>
				<polygon class="st178" points="26.09,18.17 0.78,21.48 0.77,21.41 26.09,18.1 				"/>
				<polygon class="st179" points="26.09,18.24 0.79,21.55 0.78,21.48 26.09,18.17 				"/>
				<polygon class="st180" points="26.09,18.31 0.8,21.62 0.79,21.55 26.09,18.24 				"/>
				<polygon class="st181" points="26.09,18.38 0.81,21.69 0.8,21.62 26.09,18.31 				"/>
				<polygon class="st182" points="26.09,18.45 0.82,21.76 0.81,21.69 26.09,18.38 				"/>
				<polygon class="st183" points="26.09,18.52 0.83,21.83 0.82,21.76 26.09,18.45 				"/>
				<polygon class="st184" points="26.09,18.6 0.84,21.9 0.83,21.83 26.09,18.52 				"/>
				<polygon class="st185" points="26.09,18.67 0.85,21.97 0.84,21.9 26.09,18.6 				"/>
				<polygon class="st186" points="26.09,18.74 0.86,22.04 0.85,21.97 26.09,18.67 				"/>
				<polygon class="st187" points="26.09,18.81 0.86,22.11 0.86,22.04 26.09,18.74 				"/>
				<polygon class="st188" points="26.09,18.88 0.87,22.18 0.86,22.11 26.09,18.81 				"/>
				<polygon class="st189" points="26.09,18.95 0.88,22.25 0.87,22.18 26.09,18.88 				"/>
				<polygon class="st190" points="26.09,19.02 0.89,22.32 0.88,22.25 26.09,18.95 				"/>
				<polygon class="st191" points="26.09,19.09 0.9,22.39 0.89,22.32 26.09,19.02 				"/>
				<polygon class="st192" points="26.09,19.17 0.91,22.46 0.9,22.39 26.09,19.09 				"/>
				<polygon class="st193" points="26.09,19.24 0.92,22.53 0.91,22.46 26.09,19.17 				"/>
				<polygon class="st194" points="26.09,19.31 0.93,22.6 0.92,22.53 26.09,19.24 				"/>
				<polygon class="st195" points="26.09,19.38 0.94,22.67 0.93,22.6 26.09,19.31 				"/>
				<polygon class="st196" points="26.09,19.45 0.95,22.74 0.94,22.67 26.09,19.38 				"/>
				<polygon class="st197" points="26.09,19.52 0.96,22.81 0.95,22.74 26.09,19.45 				"/>
				<polygon class="st198" points="26.09,19.59 0.96,22.88 0.96,22.81 26.09,19.52 				"/>
				<polygon class="st199" points="26.09,19.66 0.97,22.95 0.96,22.88 26.09,19.59 				"/>
				<polygon class="st200" points="26.09,19.73 0.98,23.02 0.97,22.95 26.09,19.66 				"/>
				<polygon class="st201" points="26.09,19.81 0.99,23.09 0.98,23.02 26.09,19.73 				"/>
				<polygon class="st202" points="26.09,19.88 1,23.16 0.99,23.09 26.09,19.81 				"/>
				<polygon class="st203" points="26.09,19.95 1.01,23.23 1,23.16 26.09,19.88 				"/>
				<polygon class="st204" points="26.09,20.02 1.02,23.3 1.01,23.23 26.09,19.95 				"/>
				<polygon class="st205" points="26.09,20.09 1.03,23.37 1.02,23.3 26.09,20.02 				"/>
				<polygon class="st206" points="26.09,20.16 1.04,23.44 1.03,23.37 26.09,20.09 				"/>
				<polygon class="st207" points="26.09,20.23 1.05,23.51 1.04,23.44 26.09,20.16 				"/>
				<polygon class="st208" points="26.09,20.3 1.06,23.58 1.05,23.51 26.09,20.23 				"/>
				<polygon class="st209" points="26.09,20.38 1.06,23.65 1.06,23.58 26.09,20.3 				"/>
				<polygon class="st210" points="26.09,20.45 1.07,23.72 1.06,23.65 26.09,20.38 				"/>
				<polygon class="st211" points="26.09,20.52 1.08,23.79 1.07,23.72 26.09,20.45 				"/>
				<polygon class="st212" points="26.09,20.59 1.09,23.86 1.08,23.79 26.09,20.52 				"/>
				<polygon class="st213" points="26.09,20.66 1.1,23.93 1.09,23.86 26.09,20.59 				"/>
				<polygon class="st214" points="26.09,20.73 1.11,24 1.1,23.93 26.09,20.66 				"/>
				<polygon class="st215" points="26.09,20.8 1.12,24.07 1.11,24 26.09,20.73 				"/>
				<polygon class="st216" points="26.09,20.87 1.13,24.14 1.12,24.07 26.09,20.8 				"/>
				<polygon class="st217" points="26.09,20.95 1.14,24.21 1.13,24.14 26.09,20.87 				"/>
				<polygon class="st218" points="26.09,21.02 1.15,24.28 1.14,24.21 26.09,20.95 				"/>
				<polygon class="st219" points="26.09,21.09 1.16,24.35 1.15,24.28 26.09,21.02 				"/>
				<polygon class="st220" points="26.09,21.16 1.16,24.42 1.16,24.35 26.09,21.09 				"/>
				<polygon class="st221" points="26.09,21.23 1.17,24.49 1.16,24.42 26.09,21.16 				"/>
				<polygon class="st222" points="26.09,21.3 1.18,24.56 1.17,24.49 26.09,21.23 				"/>
				<polygon class="st223" points="26.09,21.37 1.19,24.63 1.18,24.56 26.09,21.3 				"/>
				<polygon class="st224" points="26.09,21.44 1.2,24.7 1.19,24.63 26.09,21.37 				"/>
				<polygon class="st225" points="26.09,21.52 1.21,24.77 1.2,24.7 26.09,21.44 				"/>
				<polygon class="st226" points="26.09,21.59 1.22,24.84 1.21,24.77 26.09,21.52 				"/>
				<polygon class="st227" points="26.09,21.66 1.23,24.91 1.22,24.84 26.09,21.59 				"/>
				<polygon class="st228" points="26.09,21.73 1.24,24.98 1.23,24.91 26.09,21.66 				"/>
				<polygon class="st229" points="26.09,21.8 1.25,25.05 1.24,24.98 26.09,21.73 				"/>
				<polygon class="st230" points="26.09,21.87 1.26,25.12 1.25,25.05 26.09,21.8 				"/>
				<polygon class="st231" points="26.09,21.94 1.27,25.19 1.26,25.12 26.09,21.87 				"/>
				<polygon class="st232" points="26.09,22.01 1.27,25.26 1.27,25.19 26.09,21.94 				"/>
				<polygon class="st233" points="26.09,22.09 1.28,25.33 1.27,25.26 26.09,22.01 				"/>
				<polygon class="st234" points="26.09,22.16 1.29,25.4 1.28,25.33 26.09,22.09 				"/>
				<polygon class="st234" points="1.58,27.65 1.29,25.4 26.09,22.16 26.09,27.65 				"/>
			</g>
		</g>
		<g>
			<ellipse class="st235" cx="2.1" cy="6.84" rx="2.09" ry="2.1"/>
		</g>
		<g>
			<ellipse class="st236" cx="2.1" cy="6.84" rx="0.99" ry="0.99"/>
		</g>
		<g>
			<ellipse class="st237" cx="14.22" cy="2.28" rx="2.27" ry="2.28"/>
		</g>
		<g>
			<ellipse class="st236" cx="14.22" cy="2.28" rx="1.07" ry="1.07"/>
		</g>
		<g>
			<ellipse class="st238" cx="24.3" cy="9.18" rx="1.9" ry="1.91"/>
		</g>
		<g>
			<ellipse class="st236" cx="24.3" cy="9.18" rx="0.9" ry="0.9"/>
		</g>
		<g>
			<ellipse class="st239" cx="9.11" cy="26.09" rx="1.9" ry="1.91"/>
		</g>
		<g>
			<ellipse class="st236" cx="9.11" cy="26.09" rx="0.9" ry="0.9"/>
		</g>
		<g>
			<ellipse class="st240" cx="24.83" cy="20.36" rx="1.9" ry="1.91"/>
		</g>
		<g>
			<ellipse class="st236" cx="24.83" cy="20.36" rx="0.9" ry="0.9"/>
		</g>
		<g>
			<ellipse class="st241" cx="12.58" cy="17.91" rx="3.32" ry="3.33"/>
		</g>
		<g>
			<ellipse class="st236" cx="12.58" cy="17.91" rx="1.57" ry="1.57"/>
		</g>
	</g>
	<g>
		<g>
			<defs>
				<path id="SVGID_3_" d="M104.05,8.53h-2.75c0.02-0.75,0.31-1.43,0.8-1.93c0.5-0.49,1.19-0.8,1.96-0.8c0.53,0,0.95-0.44,0.95-0.96
					c0-0.53-0.42-0.96-0.95-0.96c-1.28,0-2.46,0.52-3.3,1.37c-0.78,0.78-1.36,2.01-1.36,3.14v5.95v0.76v1.83
					c0,0.53,0.42,0.96,0.95,0.96c0.52,0,0.95-0.42,0.95-0.96V15.1v-0.76v-3.89h2.75c0.53,0,0.95-0.42,0.95-0.96
					C105,8.97,104.58,8.53,104.05,8.53z"/>
			</defs>
			<clipPath id="SVGID_4_">
				<use xlink:href="#SVGID_3_"  style="overflow:visible;"/>
			</clipPath>
			<g class="st242">
				<g>
					<defs>

							<rect id="SVGID_5_" x="80.72" y="-5.64" transform="matrix(-1.836970e-16 1 -1 -1.836970e-16 100.5991 -78.3167)" width="17.48" height="33.56"/>
					</defs>
					<clipPath id="SVGID_6_">
						<use xlink:href="#SVGID_5_"  style="overflow:visible;"/>
					</clipPath>
					<polygon class="st243" points="106.2,19.88 104.49,2.4 106.24,2.4 106.24,19.88 					"/>
					<polygon class="st243" points="105.78,19.88 104.08,2.4 104.49,2.4 106.2,19.88 					"/>
					<polygon class="st244" points="105.37,19.88 103.66,2.4 104.08,2.4 105.78,19.88 					"/>
					<polygon class="st245" points="104.95,19.88 103.25,2.4 103.66,2.4 105.37,19.88 					"/>
					<polygon class="st246" points="104.54,19.88 102.83,2.4 103.25,2.4 104.95,19.88 					"/>
					<polygon class="st247" points="104.12,19.88 102.42,2.4 102.83,2.4 104.54,19.88 					"/>
					<polygon class="st248" points="103.71,19.88 102,2.4 102.42,2.4 104.12,19.88 					"/>
					<polygon class="st249" points="103.29,19.88 101.59,2.4 102,2.4 103.71,19.88 					"/>
					<polygon class="st250" points="102.88,19.88 101.17,2.4 101.59,2.4 103.29,19.88 					"/>
					<polygon class="st251" points="102.46,19.88 100.76,2.4 101.17,2.4 102.88,19.88 					"/>
					<polygon class="st252" points="102.05,19.88 100.34,2.4 100.76,2.4 102.46,19.88 					"/>
					<polygon class="st253" points="101.64,19.88 99.93,2.4 100.34,2.4 102.05,19.88 					"/>
					<polygon class="st254" points="101.22,19.88 99.51,2.4 99.93,2.4 101.64,19.88 					"/>
					<polygon class="st255" points="100.81,19.88 99.1,2.4 99.51,2.4 101.22,19.88 					"/>
					<polygon class="st256" points="100.39,19.88 98.68,2.4 99.1,2.4 100.81,19.88 					"/>
					<polygon class="st257" points="99.98,19.88 98.27,2.4 98.68,2.4 100.39,19.88 					"/>
					<polygon class="st258" points="99.56,19.88 97.85,2.4 98.27,2.4 99.98,19.88 					"/>
					<polygon class="st259" points="99.15,19.88 97.44,2.4 97.85,2.4 99.56,19.88 					"/>
					<polygon class="st260" points="98.73,19.88 97.02,2.4 97.44,2.4 99.15,19.88 					"/>
					<polygon class="st261" points="98.32,19.88 96.61,2.4 97.02,2.4 98.73,19.88 					"/>
					<polygon class="st262" points="97.9,19.88 96.19,2.4 96.61,2.4 98.32,19.88 					"/>
					<polygon class="st263" points="97.49,19.88 95.78,2.4 96.19,2.4 97.9,19.88 					"/>
					<polygon class="st264" points="97.07,19.88 95.36,2.4 95.78,2.4 97.49,19.88 					"/>
					<polygon class="st265" points="96.66,19.88 94.95,2.4 95.36,2.4 97.07,19.88 					"/>
					<polygon class="st266" points="96.24,19.88 94.53,2.4 94.95,2.4 96.66,19.88 					"/>
					<polygon class="st267" points="95.83,19.88 94.12,2.4 94.53,2.4 96.24,19.88 					"/>
					<polygon class="st268" points="95.41,19.88 93.7,2.4 94.12,2.4 95.83,19.88 					"/>
					<polygon class="st269" points="95,19.88 93.29,2.4 93.7,2.4 95.41,19.88 					"/>
					<polygon class="st270" points="94.58,19.88 92.87,2.4 93.29,2.4 95,19.88 					"/>
					<polygon class="st271" points="94.17,19.88 92.46,2.4 92.87,2.4 94.58,19.88 					"/>
					<polygon class="st272" points="93.75,19.88 92.04,2.4 92.46,2.4 94.17,19.88 					"/>
					<polygon class="st273" points="93.34,19.88 91.63,2.4 92.04,2.4 93.75,19.88 					"/>
					<polygon class="st274" points="92.92,19.88 91.21,2.4 91.63,2.4 93.34,19.88 					"/>
					<polygon class="st275" points="92.51,19.88 90.8,2.4 91.21,2.4 92.92,19.88 					"/>
					<polygon class="st276" points="92.09,19.88 90.38,2.4 90.8,2.4 92.51,19.88 					"/>
					<polygon class="st277" points="91.68,19.88 89.97,2.4 90.38,2.4 92.09,19.88 					"/>
					<polygon class="st278" points="91.26,19.88 89.56,2.4 89.97,2.4 91.68,19.88 					"/>
					<polygon class="st279" points="90.85,19.88 89.14,2.4 89.56,2.4 91.26,19.88 					"/>
					<polygon class="st280" points="90.43,19.88 88.73,2.4 89.14,2.4 90.85,19.88 					"/>
					<polygon class="st281" points="90.02,19.88 88.31,2.4 88.73,2.4 90.43,19.88 					"/>
					<polygon class="st282" points="89.6,19.88 87.9,2.4 88.31,2.4 90.02,19.88 					"/>
					<polygon class="st283" points="89.19,19.88 87.48,2.4 87.9,2.4 89.6,19.88 					"/>
					<polygon class="st284" points="88.77,19.88 87.07,2.4 87.48,2.4 89.19,19.88 					"/>
					<polygon class="st285" points="88.36,19.88 86.65,2.4 87.07,2.4 88.77,19.88 					"/>
					<polygon class="st286" points="87.94,19.88 86.24,2.4 86.65,2.4 88.36,19.88 					"/>
					<polygon class="st287" points="87.53,19.88 85.82,2.4 86.24,2.4 87.94,19.88 					"/>
					<polygon class="st288" points="87.12,19.88 85.41,2.4 85.82,2.4 87.53,19.88 					"/>
					<polygon class="st289" points="86.7,19.88 84.99,2.4 85.41,2.4 87.12,19.88 					"/>
					<polygon class="st290" points="86.29,19.88 84.58,2.4 84.99,2.4 86.7,19.88 					"/>
					<polygon class="st291" points="85.87,19.88 84.16,2.4 84.58,2.4 86.29,19.88 					"/>
					<polygon class="st292" points="85.46,19.88 83.75,2.4 84.16,2.4 85.87,19.88 					"/>
					<polygon class="st293" points="85.04,19.88 83.33,2.4 83.75,2.4 85.46,19.88 					"/>
					<polygon class="st294" points="84.63,19.88 82.92,2.4 83.33,2.4 85.04,19.88 					"/>
					<polygon class="st295" points="84.21,19.88 82.5,2.4 82.92,2.4 84.63,19.88 					"/>
					<polygon class="st296" points="83.8,19.88 82.09,2.4 82.5,2.4 84.21,19.88 					"/>
					<polygon class="st297" points="83.38,19.88 81.67,2.4 82.09,2.4 83.8,19.88 					"/>
					<polygon class="st298" points="82.97,19.88 81.26,2.4 81.67,2.4 83.38,19.88 					"/>
					<polygon class="st299" points="82.55,19.88 80.84,2.4 81.26,2.4 82.97,19.88 					"/>
					<polygon class="st300" points="82.14,19.88 80.43,2.4 80.84,2.4 82.55,19.88 					"/>
					<polygon class="st301" points="81.72,19.88 80.01,2.4 80.43,2.4 82.14,19.88 					"/>
					<polygon class="st302" points="81.31,19.88 79.6,2.4 80.01,2.4 81.72,19.88 					"/>
					<polygon class="st303" points="80.89,19.88 79.18,2.4 79.6,2.4 81.31,19.88 					"/>
					<polygon class="st304" points="80.48,19.88 78.77,2.4 79.18,2.4 80.89,19.88 					"/>
					<polygon class="st305" points="80.06,19.88 78.35,2.4 78.77,2.4 80.48,19.88 					"/>
					<polygon class="st306" points="79.65,19.88 77.94,2.4 78.35,2.4 80.06,19.88 					"/>
					<polygon class="st307" points="79.23,19.88 77.52,2.4 77.94,2.4 79.65,19.88 					"/>
					<polygon class="st308" points="78.82,19.88 77.11,2.4 77.52,2.4 79.23,19.88 					"/>
					<polygon class="st309" points="78.4,19.88 76.69,2.4 77.11,2.4 78.82,19.88 					"/>
					<polygon class="st310" points="77.99,19.88 76.28,2.4 76.69,2.4 78.4,19.88 					"/>
					<polygon class="st311" points="77.57,19.88 75.86,2.4 76.28,2.4 77.99,19.88 					"/>
					<polygon class="st312" points="77.16,19.88 75.45,2.4 75.86,2.4 77.57,19.88 					"/>
					<polygon class="st313" points="76.74,19.88 75.04,2.4 75.45,2.4 77.16,19.88 					"/>
					<polygon class="st314" points="76.33,19.88 74.62,2.4 75.04,2.4 76.74,19.88 					"/>
					<polygon class="st315" points="75.91,19.88 74.21,2.4 74.62,2.4 76.33,19.88 					"/>
					<polygon class="st316" points="75.5,19.88 73.79,2.4 74.21,2.4 75.91,19.88 					"/>
					<polygon class="st317" points="75.08,19.88 73.38,2.4 73.79,2.4 75.5,19.88 					"/>
					<polygon class="st317" points="73.38,2.4 75.08,19.88 72.68,19.88 72.68,2.4 					"/>
				</g>
			</g>
		</g>
		<g>
			<g>
				<path class="st241" d="M44.06,8.5c-2.59,0-4.68,2.1-4.68,4.69c0,2.59,2.1,4.69,4.68,4.69c2.59,0,4.68-2.1,4.68-4.69
					C48.74,10.6,46.65,8.5,44.06,8.5z M44.06,15.99c-1.54,0-2.79-1.25-2.79-2.79c0-1.54,1.25-2.79,2.79-2.79
					c1.54,0,2.79,1.25,2.79,2.79C46.85,14.74,45.6,15.99,44.06,15.99z"/>
			</g>
			<g>
				<path class="st241" d="M65.5,13.2c0-2.59-2.13-4.69-4.75-4.69C58.13,8.5,56,10.6,56,13.2c0,2.59,2.13,4.69,4.75,4.69
					c1.01,0,1.95-0.31,2.72-0.85c0.05,0.49,0.45,0.85,0.93,0.85c0.53,0,0.95-0.42,0.95-0.96C65.36,16.93,65.5,13.53,65.5,13.2z
					 M60.75,15.99c-1.56,0-2.83-1.25-2.83-2.79c0-1.54,1.27-2.79,2.83-2.79s2.83,1.25,2.83,2.79
					C63.58,14.74,62.31,15.99,60.75,15.99z"/>
			</g>
			<g>
				<path class="st241" d="M37.71,14.89c-0.23,0-0.49,0.08-0.67,0.27c-0.27,0.27-0.56,0.47-0.89,0.61c-0.34,0.14-0.7,0.2-1.06,0.2
					c-0.56,0-1.11-0.17-1.58-0.5c-0.4-0.28-0.73-0.67-0.93-1.14l0.03-0.02c-0.16-0.34-0.24-0.73-0.24-1.13
					c0-0.39,0.08-0.76,0.23-1.1l-0.01-0.02c0.2-0.47,0.53-0.85,0.93-1.13c0.47-0.33,1.02-0.49,1.58-0.49c0.36,0,0.72,0.06,1.06,0.2
					c0.33,0.13,0.63,0.35,0.89,0.6c0.19,0.19,0.44,0.28,0.67,0.28c0.25,0,0.5-0.09,0.67-0.28c0.19-0.19,0.28-0.44,0.28-0.69
					c0-0.25-0.09-0.49-0.28-0.67c-0.44-0.44-0.95-0.77-1.52-1c-0.56-0.24-1.17-0.35-1.78-0.35c-1,0-2,0.31-2.82,0.94
					c-0.69,0.53-1.22,1.23-1.54,2.06l-0.02,0c-0.19,0.52-0.3,1.07-0.3,1.66c0,0.5,0.08,0.98,0.22,1.44l0.01,0
					c0.3,0.95,0.87,1.74,1.62,2.32c0.81,0.61,1.81,0.94,2.8,0.94c0.63,0,1.25-0.13,1.85-0.38c0.56-0.24,1.1-0.6,1.53-1.05
					c0.16-0.16,0.22-0.38,0.22-0.6c0-0.25-0.11-0.53-0.28-0.71C38.21,14.97,37.96,14.89,37.71,14.89z"/>
			</g>
			<g>
				<path class="st241" d="M54.87,8.52h-0.03c-0.5,0-1,0.08-1.47,0.25c-0.47,0.14-0.89,0.38-1.28,0.66
					c-0.03-0.52-0.44-0.91-0.95-0.91c-0.53,0-0.95,0.42-0.95,0.96v1.92v0.69v2.26v0.81v1.78c0,0.53,0.42,0.96,0.95,0.96
					s0.95-0.42,0.95-0.96v-2.3c0.01-0.6,0.05-1.59,0.18-2.38c0.19-0.54,0.55-1.01,1-1.32c0.45-0.31,1-0.5,1.58-0.5
					c0.53,0,0.97-0.42,0.97-0.96C55.81,8.99,55.39,8.52,54.87,8.52z"/>
			</g>
			<g>
				<path class="st241" d="M71.67,15.97c-0.58,0-1.13-0.19-1.58-0.5c-0.43-0.3-0.78-0.73-0.98-1.24c-0.13-0.4-0.18-0.86-0.21-1.21
					V4.81c0-0.52-0.45-0.93-0.95-0.93c-0.48,0-0.95,0.42-0.95,0.94v8.21c0,0,0,0.01,0.01,0.01c0.01,1.26,0.33,1.88,0.33,1.88l0.01,0
					c0.32,0.81,0.86,1.49,1.52,2.01c0.78,0.6,1.77,0.94,2.82,0.94c0.53,0,0.95-0.44,0.95-0.96C72.62,16.4,72.2,15.97,71.67,15.97z"
					/>
			</g>
		</g>
		<g>
			<defs>
				<path id="SVGID_7_" d="M87.99,11.1c-0.08-0.3-0.97-1.67-2.26-2.22c-0.57-0.25-1.19-0.35-1.78-0.35c-1.02,0-2.02,0.31-2.83,0.94
					c-0.8,0.61-1.39,1.46-1.67,2.48v0.02c0,0,0,0,0,0c-0.11,0.39-0.16,0.8-0.16,1.23c0,0.43,0.06,0.85,0.17,1.24l-0.01,0v0.02
					c0.28,1,0.88,1.87,1.67,2.48c0.83,0.63,1.83,0.94,2.83,0.94c0.61,0,1.24-0.11,1.81-0.36c0.56-0.25,1.1-0.61,1.53-1.07
					c0.16-0.16,0.22-0.36,0.22-0.58c0-0.27-0.11-0.53-0.28-0.72c-0.17-0.19-0.42-0.27-0.67-0.27c-0.23,0-0.48,0.08-0.67,0.27
					c-0.25,0.27-0.56,0.47-0.89,0.61c-0.34,0.14-0.7,0.2-1.05,0.2c-0.56,0-1.11-0.17-1.6-0.5c-0.08-0.06-0.16-0.13-0.24-0.19
					l5.48-3.02C88,12.03,88.15,11.52,87.99,11.1z M81.2,13.59c-0.02-0.13-0.03-0.26-0.03-0.39c0-0.3,0.05-0.58,0.13-0.85l0-0.01
					l0.01-0.01c0.01-0.03,0.02-0.06,0.03-0.08l0-0.01c0.2-0.53,0.56-0.99,1-1.3c0.47-0.33,1.03-0.49,1.58-0.49
					c0.36,0,0.72,0.06,1.06,0.2c0.26,0.11,0.51,0.27,0.73,0.45L81.2,13.59z"/>
			</defs>
			<clipPath id="SVGID_8_">
				<use xlink:href="#SVGID_7_"  style="overflow:visible;"/>
			</clipPath>
			<g class="st318">
				<g>
					<defs>

							<rect id="SVGID_9_" x="80.72" y="-5.64" transform="matrix(-1.836970e-16 1 -1 -1.836970e-16 100.5991 -78.3167)" width="17.48" height="33.56"/>
					</defs>
					<clipPath id="SVGID_10_">
						<use xlink:href="#SVGID_9_"  style="overflow:visible;"/>
					</clipPath>
					<polygon class="st319" points="106.2,19.88 104.49,2.4 106.24,2.4 106.24,19.88 					"/>
					<polygon class="st319" points="105.78,19.88 104.08,2.4 104.49,2.4 106.2,19.88 					"/>
					<polygon class="st320" points="105.37,19.88 103.66,2.4 104.08,2.4 105.78,19.88 					"/>
					<polygon class="st321" points="104.95,19.88 103.25,2.4 103.66,2.4 105.37,19.88 					"/>
					<polygon class="st322" points="104.54,19.88 102.83,2.4 103.25,2.4 104.95,19.88 					"/>
					<polygon class="st323" points="104.12,19.88 102.42,2.4 102.83,2.4 104.54,19.88 					"/>
					<polygon class="st324" points="103.71,19.88 102,2.4 102.42,2.4 104.12,19.88 					"/>
					<polygon class="st325" points="103.29,19.88 101.59,2.4 102,2.4 103.71,19.88 					"/>
					<polygon class="st326" points="102.88,19.88 101.17,2.4 101.59,2.4 103.29,19.88 					"/>
					<polygon class="st327" points="102.46,19.88 100.76,2.4 101.17,2.4 102.88,19.88 					"/>
					<polygon class="st328" points="102.05,19.88 100.34,2.4 100.76,2.4 102.46,19.88 					"/>
					<polygon class="st329" points="101.64,19.88 99.93,2.4 100.34,2.4 102.05,19.88 					"/>
					<polygon class="st330" points="101.22,19.88 99.51,2.4 99.93,2.4 101.64,19.88 					"/>
					<polygon class="st331" points="100.81,19.88 99.1,2.4 99.51,2.4 101.22,19.88 					"/>
					<polygon class="st332" points="100.39,19.88 98.68,2.4 99.1,2.4 100.81,19.88 					"/>
					<polygon class="st333" points="99.98,19.88 98.27,2.4 98.68,2.4 100.39,19.88 					"/>
					<polygon class="st334" points="99.56,19.88 97.85,2.4 98.27,2.4 99.98,19.88 					"/>
					<polygon class="st335" points="99.15,19.88 97.44,2.4 97.85,2.4 99.56,19.88 					"/>
					<polygon class="st336" points="98.73,19.88 97.02,2.4 97.44,2.4 99.15,19.88 					"/>
					<polygon class="st337" points="98.32,19.88 96.61,2.4 97.02,2.4 98.73,19.88 					"/>
					<polygon class="st338" points="97.9,19.88 96.19,2.4 96.61,2.4 98.32,19.88 					"/>
					<polygon class="st339" points="97.49,19.88 95.78,2.4 96.19,2.4 97.9,19.88 					"/>
					<polygon class="st340" points="97.07,19.88 95.36,2.4 95.78,2.4 97.49,19.88 					"/>
					<polygon class="st341" points="96.66,19.88 94.95,2.4 95.36,2.4 97.07,19.88 					"/>
					<polygon class="st342" points="96.24,19.88 94.53,2.4 94.95,2.4 96.66,19.88 					"/>
					<polygon class="st343" points="95.83,19.88 94.12,2.4 94.53,2.4 96.24,19.88 					"/>
					<polygon class="st344" points="95.41,19.88 93.7,2.4 94.12,2.4 95.83,19.88 					"/>
					<polygon class="st345" points="95,19.88 93.29,2.4 93.7,2.4 95.41,19.88 					"/>
					<polygon class="st346" points="94.58,19.88 92.87,2.4 93.29,2.4 95,19.88 					"/>
					<polygon class="st347" points="94.17,19.88 92.46,2.4 92.87,2.4 94.58,19.88 					"/>
					<polygon class="st348" points="93.75,19.88 92.04,2.4 92.46,2.4 94.17,19.88 					"/>
					<polygon class="st349" points="93.34,19.88 91.63,2.4 92.04,2.4 93.75,19.88 					"/>
					<polygon class="st350" points="92.92,19.88 91.21,2.4 91.63,2.4 93.34,19.88 					"/>
					<polygon class="st351" points="92.51,19.88 90.8,2.4 91.21,2.4 92.92,19.88 					"/>
					<polygon class="st352" points="92.09,19.88 90.38,2.4 90.8,2.4 92.51,19.88 					"/>
					<polygon class="st353" points="91.68,19.88 89.97,2.4 90.38,2.4 92.09,19.88 					"/>
					<polygon class="st354" points="91.26,19.88 89.56,2.4 89.97,2.4 91.68,19.88 					"/>
					<polygon class="st355" points="90.85,19.88 89.14,2.4 89.56,2.4 91.26,19.88 					"/>
					<polygon class="st356" points="90.43,19.88 88.73,2.4 89.14,2.4 90.85,19.88 					"/>
					<polygon class="st357" points="90.02,19.88 88.31,2.4 88.73,2.4 90.43,19.88 					"/>
					<polygon class="st358" points="89.6,19.88 87.9,2.4 88.31,2.4 90.02,19.88 					"/>
					<polygon class="st359" points="89.19,19.88 87.48,2.4 87.9,2.4 89.6,19.88 					"/>
					<polygon class="st360" points="88.77,19.88 87.07,2.4 87.48,2.4 89.19,19.88 					"/>
					<polygon class="st361" points="88.36,19.88 86.65,2.4 87.07,2.4 88.77,19.88 					"/>
					<polygon class="st362" points="87.94,19.88 86.24,2.4 86.65,2.4 88.36,19.88 					"/>
					<polygon class="st363" points="87.53,19.88 85.82,2.4 86.24,2.4 87.94,19.88 					"/>
					<polygon class="st364" points="87.12,19.88 85.41,2.4 85.82,2.4 87.53,19.88 					"/>
					<polygon class="st365" points="86.7,19.88 84.99,2.4 85.41,2.4 87.12,19.88 					"/>
					<polygon class="st366" points="86.29,19.88 84.58,2.4 84.99,2.4 86.7,19.88 					"/>
					<polygon class="st367" points="85.87,19.88 84.16,2.4 84.58,2.4 86.29,19.88 					"/>
					<polygon class="st368" points="85.46,19.88 83.75,2.4 84.16,2.4 85.87,19.88 					"/>
					<polygon class="st369" points="85.04,19.88 83.33,2.4 83.75,2.4 85.46,19.88 					"/>
					<polygon class="st370" points="84.63,19.88 82.92,2.4 83.33,2.4 85.04,19.88 					"/>
					<polygon class="st371" points="84.21,19.88 82.5,2.4 82.92,2.4 84.63,19.88 					"/>
					<polygon class="st372" points="83.8,19.88 82.09,2.4 82.5,2.4 84.21,19.88 					"/>
					<polygon class="st373" points="83.38,19.88 81.67,2.4 82.09,2.4 83.8,19.88 					"/>
					<polygon class="st374" points="82.97,19.88 81.26,2.4 81.67,2.4 83.38,19.88 					"/>
					<polygon class="st375" points="82.55,19.88 80.84,2.4 81.26,2.4 82.97,19.88 					"/>
					<polygon class="st376" points="82.14,19.88 80.43,2.4 80.84,2.4 82.55,19.88 					"/>
					<polygon class="st377" points="81.72,19.88 80.01,2.4 80.43,2.4 82.14,19.88 					"/>
					<polygon class="st378" points="81.31,19.88 79.6,2.4 80.01,2.4 81.72,19.88 					"/>
					<polygon class="st379" points="80.89,19.88 79.18,2.4 79.6,2.4 81.31,19.88 					"/>
					<polygon class="st380" points="80.48,19.88 78.77,2.4 79.18,2.4 80.89,19.88 					"/>
					<polygon class="st381" points="80.06,19.88 78.35,2.4 78.77,2.4 80.48,19.88 					"/>
					<polygon class="st382" points="79.65,19.88 77.94,2.4 78.35,2.4 80.06,19.88 					"/>
					<polygon class="st383" points="79.23,19.88 77.52,2.4 77.94,2.4 79.65,19.88 					"/>
					<polygon class="st384" points="78.82,19.88 77.11,2.4 77.52,2.4 79.23,19.88 					"/>
					<polygon class="st385" points="78.4,19.88 76.69,2.4 77.11,2.4 78.82,19.88 					"/>
					<polygon class="st386" points="77.99,19.88 76.28,2.4 76.69,2.4 78.4,19.88 					"/>
					<polygon class="st387" points="77.57,19.88 75.86,2.4 76.28,2.4 77.99,19.88 					"/>
					<polygon class="st388" points="77.16,19.88 75.45,2.4 75.86,2.4 77.57,19.88 					"/>
					<polygon class="st389" points="76.74,19.88 75.04,2.4 75.45,2.4 77.16,19.88 					"/>
					<polygon class="st390" points="76.33,19.88 74.62,2.4 75.04,2.4 76.74,19.88 					"/>
					<polygon class="st391" points="75.91,19.88 74.21,2.4 74.62,2.4 76.33,19.88 					"/>
					<polygon class="st392" points="75.5,19.88 73.79,2.4 74.21,2.4 75.91,19.88 					"/>
					<polygon class="st393" points="75.08,19.88 73.38,2.4 73.79,2.4 75.5,19.88 					"/>
					<polygon class="st393" points="73.38,2.4 75.08,19.88 72.68,19.88 72.68,2.4 					"/>
				</g>
			</g>
		</g>
		<g>
			<defs>
				<path id="SVGID_11_" d="M78.36,8.52h-0.03c-0.5,0-1,0.08-1.47,0.25c-0.47,0.14-0.89,0.38-1.28,0.66
					c-0.03-0.52-0.44-0.91-0.95-0.91c-0.53,0-0.95,0.42-0.95,0.96v1.92v0.69v2.26v0.81v1.78c0,0.53,0.42,0.96,0.95,0.96
					c0.53,0,0.95-0.42,0.95-0.96v-2.3c0.01-0.6,0.05-1.59,0.18-2.38c0.19-0.54,0.55-1.01,1-1.32c0.45-0.31,1-0.5,1.58-0.5
					c0.53,0,0.97-0.42,0.97-0.96C79.3,8.99,78.88,8.52,78.36,8.52z"/>
			</defs>
			<clipPath id="SVGID_12_">
				<use xlink:href="#SVGID_11_"  style="overflow:visible;"/>
			</clipPath>
			<g class="st394">
				<g>
					<defs>

							<rect id="SVGID_13_" x="80.72" y="-5.64" transform="matrix(-1.836970e-16 1 -1 -1.836970e-16 100.5991 -78.3167)" width="17.48" height="33.56"/>
					</defs>
					<clipPath id="SVGID_14_">
						<use xlink:href="#SVGID_13_"  style="overflow:visible;"/>
					</clipPath>
					<polygon class="st395" points="106.2,19.88 104.49,2.4 106.24,2.4 106.24,19.88 					"/>
					<polygon class="st395" points="105.78,19.88 104.08,2.4 104.49,2.4 106.2,19.88 					"/>
					<polygon class="st396" points="105.37,19.88 103.66,2.4 104.08,2.4 105.78,19.88 					"/>
					<polygon class="st397" points="104.95,19.88 103.25,2.4 103.66,2.4 105.37,19.88 					"/>
					<polygon class="st398" points="104.54,19.88 102.83,2.4 103.25,2.4 104.95,19.88 					"/>
					<polygon class="st399" points="104.12,19.88 102.42,2.4 102.83,2.4 104.54,19.88 					"/>
					<polygon class="st400" points="103.71,19.88 102,2.4 102.42,2.4 104.12,19.88 					"/>
					<polygon class="st401" points="103.29,19.88 101.59,2.4 102,2.4 103.71,19.88 					"/>
					<polygon class="st402" points="102.88,19.88 101.17,2.4 101.59,2.4 103.29,19.88 					"/>
					<polygon class="st403" points="102.46,19.88 100.76,2.4 101.17,2.4 102.88,19.88 					"/>
					<polygon class="st404" points="102.05,19.88 100.34,2.4 100.76,2.4 102.46,19.88 					"/>
					<polygon class="st405" points="101.64,19.88 99.93,2.4 100.34,2.4 102.05,19.88 					"/>
					<polygon class="st406" points="101.22,19.88 99.51,2.4 99.93,2.4 101.64,19.88 					"/>
					<polygon class="st407" points="100.81,19.88 99.1,2.4 99.51,2.4 101.22,19.88 					"/>
					<polygon class="st408" points="100.39,19.88 98.68,2.4 99.1,2.4 100.81,19.88 					"/>
					<polygon class="st409" points="99.98,19.88 98.27,2.4 98.68,2.4 100.39,19.88 					"/>
					<polygon class="st410" points="99.56,19.88 97.85,2.4 98.27,2.4 99.98,19.88 					"/>
					<polygon class="st411" points="99.15,19.88 97.44,2.4 97.85,2.4 99.56,19.88 					"/>
					<polygon class="st412" points="98.73,19.88 97.02,2.4 97.44,2.4 99.15,19.88 					"/>
					<polygon class="st413" points="98.32,19.88 96.61,2.4 97.02,2.4 98.73,19.88 					"/>
					<polygon class="st414" points="97.9,19.88 96.19,2.4 96.61,2.4 98.32,19.88 					"/>
					<polygon class="st415" points="97.49,19.88 95.78,2.4 96.19,2.4 97.9,19.88 					"/>
					<polygon class="st416" points="97.07,19.88 95.36,2.4 95.78,2.4 97.49,19.88 					"/>
					<polygon class="st417" points="96.66,19.88 94.95,2.4 95.36,2.4 97.07,19.88 					"/>
					<polygon class="st418" points="96.24,19.88 94.53,2.4 94.95,2.4 96.66,19.88 					"/>
					<polygon class="st419" points="95.83,19.88 94.12,2.4 94.53,2.4 96.24,19.88 					"/>
					<polygon class="st420" points="95.41,19.88 93.7,2.4 94.12,2.4 95.83,19.88 					"/>
					<polygon class="st421" points="95,19.88 93.29,2.4 93.7,2.4 95.41,19.88 					"/>
					<polygon class="st422" points="94.58,19.88 92.87,2.4 93.29,2.4 95,19.88 					"/>
					<polygon class="st423" points="94.17,19.88 92.46,2.4 92.87,2.4 94.58,19.88 					"/>
					<polygon class="st424" points="93.75,19.88 92.04,2.4 92.46,2.4 94.17,19.88 					"/>
					<polygon class="st425" points="93.34,19.88 91.63,2.4 92.04,2.4 93.75,19.88 					"/>
					<polygon class="st426" points="92.92,19.88 91.21,2.4 91.63,2.4 93.34,19.88 					"/>
					<polygon class="st427" points="92.51,19.88 90.8,2.4 91.21,2.4 92.92,19.88 					"/>
					<polygon class="st428" points="92.09,19.88 90.38,2.4 90.8,2.4 92.51,19.88 					"/>
					<polygon class="st429" points="91.68,19.88 89.97,2.4 90.38,2.4 92.09,19.88 					"/>
					<polygon class="st430" points="91.26,19.88 89.56,2.4 89.97,2.4 91.68,19.88 					"/>
					<polygon class="st431" points="90.85,19.88 89.14,2.4 89.56,2.4 91.26,19.88 					"/>
					<polygon class="st432" points="90.43,19.88 88.73,2.4 89.14,2.4 90.85,19.88 					"/>
					<polygon class="st433" points="90.02,19.88 88.31,2.4 88.73,2.4 90.43,19.88 					"/>
					<polygon class="st434" points="89.6,19.88 87.9,2.4 88.31,2.4 90.02,19.88 					"/>
					<polygon class="st435" points="89.19,19.88 87.48,2.4 87.9,2.4 89.6,19.88 					"/>
					<polygon class="st436" points="88.77,19.88 87.07,2.4 87.48,2.4 89.19,19.88 					"/>
					<polygon class="st437" points="88.36,19.88 86.65,2.4 87.07,2.4 88.77,19.88 					"/>
					<polygon class="st438" points="87.94,19.88 86.24,2.4 86.65,2.4 88.36,19.88 					"/>
					<polygon class="st439" points="87.53,19.88 85.82,2.4 86.24,2.4 87.94,19.88 					"/>
					<polygon class="st440" points="87.12,19.88 85.41,2.4 85.82,2.4 87.53,19.88 					"/>
					<polygon class="st441" points="86.7,19.88 84.99,2.4 85.41,2.4 87.12,19.88 					"/>
					<polygon class="st442" points="86.29,19.88 84.58,2.4 84.99,2.4 86.7,19.88 					"/>
					<polygon class="st443" points="85.87,19.88 84.16,2.4 84.58,2.4 86.29,19.88 					"/>
					<polygon class="st444" points="85.46,19.88 83.75,2.4 84.16,2.4 85.87,19.88 					"/>
					<polygon class="st445" points="85.04,19.88 83.33,2.4 83.75,2.4 85.46,19.88 					"/>
					<polygon class="st446" points="84.63,19.88 82.92,2.4 83.33,2.4 85.04,19.88 					"/>
					<polygon class="st447" points="84.21,19.88 82.5,2.4 82.92,2.4 84.63,19.88 					"/>
					<polygon class="st448" points="83.8,19.88 82.09,2.4 82.5,2.4 84.21,19.88 					"/>
					<polygon class="st449" points="83.38,19.88 81.67,2.4 82.09,2.4 83.8,19.88 					"/>
					<polygon class="st450" points="82.97,19.88 81.26,2.4 81.67,2.4 83.38,19.88 					"/>
					<polygon class="st451" points="82.55,19.88 80.84,2.4 81.26,2.4 82.97,19.88 					"/>
					<polygon class="st452" points="82.14,19.88 80.43,2.4 80.84,2.4 82.55,19.88 					"/>
					<polygon class="st453" points="81.72,19.88 80.01,2.4 80.43,2.4 82.14,19.88 					"/>
					<polygon class="st454" points="81.31,19.88 79.6,2.4 80.01,2.4 81.72,19.88 					"/>
					<polygon class="st455" points="80.89,19.88 79.18,2.4 79.6,2.4 81.31,19.88 					"/>
					<polygon class="st456" points="80.48,19.88 78.77,2.4 79.18,2.4 80.89,19.88 					"/>
					<polygon class="st457" points="80.06,19.88 78.35,2.4 78.77,2.4 80.48,19.88 					"/>
					<polygon class="st458" points="79.65,19.88 77.94,2.4 78.35,2.4 80.06,19.88 					"/>
					<polygon class="st459" points="79.23,19.88 77.52,2.4 77.94,2.4 79.65,19.88 					"/>
					<polygon class="st460" points="78.82,19.88 77.11,2.4 77.52,2.4 79.23,19.88 					"/>
					<polygon class="st461" points="78.4,19.88 76.69,2.4 77.11,2.4 78.82,19.88 					"/>
					<polygon class="st462" points="77.99,19.88 76.28,2.4 76.69,2.4 78.4,19.88 					"/>
					<polygon class="st463" points="77.57,19.88 75.86,2.4 76.28,2.4 77.99,19.88 					"/>
					<polygon class="st464" points="77.16,19.88 75.45,2.4 75.86,2.4 77.57,19.88 					"/>
					<polygon class="st465" points="76.74,19.88 75.04,2.4 75.45,2.4 77.16,19.88 					"/>
					<polygon class="st466" points="76.33,19.88 74.62,2.4 75.04,2.4 76.74,19.88 					"/>
					<polygon class="st467" points="75.91,19.88 74.21,2.4 74.62,2.4 76.33,19.88 					"/>
					<polygon class="st468" points="75.5,19.88 73.79,2.4 74.21,2.4 75.91,19.88 					"/>
					<polygon class="st469" points="75.08,19.88 73.38,2.4 73.79,2.4 75.5,19.88 					"/>
					<polygon class="st469" points="73.38,2.4 75.08,19.88 72.68,19.88 72.68,2.4 					"/>
				</g>
			</g>
		</g>
		<g>
			<defs>
				<path id="SVGID_15_" d="M97.96,11.1c-0.08-0.3-0.97-1.67-2.26-2.22c-0.57-0.25-1.19-0.35-1.78-0.35c-1.02,0-2.02,0.31-2.83,0.94
					c-0.8,0.61-1.39,1.46-1.67,2.48v0.02c0,0,0,0,0,0c-0.11,0.39-0.16,0.8-0.16,1.23c0,0.43,0.06,0.85,0.17,1.24l-0.01,0v0.02
					c0.28,1,0.88,1.87,1.67,2.48c0.83,0.63,1.83,0.94,2.83,0.94c0.61,0,1.24-0.11,1.81-0.36c0.56-0.25,1.1-0.61,1.53-1.07
					c0.16-0.16,0.22-0.36,0.22-0.58c0-0.27-0.11-0.53-0.28-0.72c-0.17-0.19-0.42-0.27-0.67-0.27c-0.23,0-0.48,0.08-0.67,0.27
					c-0.25,0.27-0.56,0.47-0.89,0.61c-0.34,0.14-0.7,0.2-1.05,0.2c-0.56,0-1.11-0.17-1.6-0.5c-0.08-0.06-0.16-0.13-0.24-0.19
					l5.48-3.02C97.97,12.03,98.12,11.52,97.96,11.1z M91.17,13.59c-0.02-0.13-0.03-0.26-0.03-0.39c0-0.3,0.05-0.58,0.13-0.85l0-0.01
					l0.01-0.01c0.01-0.03,0.02-0.06,0.03-0.08l0-0.01c0.2-0.53,0.56-0.99,1-1.3c0.47-0.33,1.03-0.49,1.58-0.49
					c0.36,0,0.72,0.06,1.06,0.2c0.26,0.11,0.51,0.27,0.73,0.45L91.17,13.59z"/>
			</defs>
			<clipPath id="SVGID_16_">
				<use xlink:href="#SVGID_15_"  style="overflow:visible;"/>
			</clipPath>
			<g class="st470">
				<g>
					<defs>

							<rect id="SVGID_17_" x="80.72" y="-5.64" transform="matrix(-1.836970e-16 1 -1 -1.836970e-16 100.5991 -78.3167)" width="17.48" height="33.56"/>
					</defs>
					<clipPath id="SVGID_18_">
						<use xlink:href="#SVGID_17_"  style="overflow:visible;"/>
					</clipPath>
					<polygon class="st471" points="106.2,19.88 104.49,2.4 106.24,2.4 106.24,19.88 					"/>
					<polygon class="st471" points="105.78,19.88 104.08,2.4 104.49,2.4 106.2,19.88 					"/>
					<polygon class="st472" points="105.37,19.88 103.66,2.4 104.08,2.4 105.78,19.88 					"/>
					<polygon class="st473" points="104.95,19.88 103.25,2.4 103.66,2.4 105.37,19.88 					"/>
					<polygon class="st474" points="104.54,19.88 102.83,2.4 103.25,2.4 104.95,19.88 					"/>
					<polygon class="st475" points="104.12,19.88 102.42,2.4 102.83,2.4 104.54,19.88 					"/>
					<polygon class="st476" points="103.71,19.88 102,2.4 102.42,2.4 104.12,19.88 					"/>
					<polygon class="st477" points="103.29,19.88 101.59,2.4 102,2.4 103.71,19.88 					"/>
					<polygon class="st478" points="102.88,19.88 101.17,2.4 101.59,2.4 103.29,19.88 					"/>
					<polygon class="st479" points="102.46,19.88 100.76,2.4 101.17,2.4 102.88,19.88 					"/>
					<polygon class="st480" points="102.05,19.88 100.34,2.4 100.76,2.4 102.46,19.88 					"/>
					<polygon class="st481" points="101.64,19.88 99.93,2.4 100.34,2.4 102.05,19.88 					"/>
					<polygon class="st482" points="101.22,19.88 99.51,2.4 99.93,2.4 101.64,19.88 					"/>
					<polygon class="st483" points="100.81,19.88 99.1,2.4 99.51,2.4 101.22,19.88 					"/>
					<polygon class="st484" points="100.39,19.88 98.68,2.4 99.1,2.4 100.81,19.88 					"/>
					<polygon class="st485" points="99.98,19.88 98.27,2.4 98.68,2.4 100.39,19.88 					"/>
					<polygon class="st486" points="99.56,19.88 97.85,2.4 98.27,2.4 99.98,19.88 					"/>
					<polygon class="st487" points="99.15,19.88 97.44,2.4 97.85,2.4 99.56,19.88 					"/>
					<polygon class="st488" points="98.73,19.88 97.02,2.4 97.44,2.4 99.15,19.88 					"/>
					<polygon class="st489" points="98.32,19.88 96.61,2.4 97.02,2.4 98.73,19.88 					"/>
					<polygon class="st490" points="97.9,19.88 96.19,2.4 96.61,2.4 98.32,19.88 					"/>
					<polygon class="st491" points="97.49,19.88 95.78,2.4 96.19,2.4 97.9,19.88 					"/>
					<polygon class="st492" points="97.07,19.88 95.36,2.4 95.78,2.4 97.49,19.88 					"/>
					<polygon class="st493" points="96.66,19.88 94.95,2.4 95.36,2.4 97.07,19.88 					"/>
					<polygon class="st494" points="96.24,19.88 94.53,2.4 94.95,2.4 96.66,19.88 					"/>
					<polygon class="st495" points="95.83,19.88 94.12,2.4 94.53,2.4 96.24,19.88 					"/>
					<polygon class="st496" points="95.41,19.88 93.7,2.4 94.12,2.4 95.83,19.88 					"/>
					<polygon class="st497" points="95,19.88 93.29,2.4 93.7,2.4 95.41,19.88 					"/>
					<polygon class="st498" points="94.58,19.88 92.87,2.4 93.29,2.4 95,19.88 					"/>
					<polygon class="st499" points="94.17,19.88 92.46,2.4 92.87,2.4 94.58,19.88 					"/>
					<polygon class="st500" points="93.75,19.88 92.04,2.4 92.46,2.4 94.17,19.88 					"/>
					<polygon class="st501" points="93.34,19.88 91.63,2.4 92.04,2.4 93.75,19.88 					"/>
					<polygon class="st502" points="92.92,19.88 91.21,2.4 91.63,2.4 93.34,19.88 					"/>
					<polygon class="st503" points="92.51,19.88 90.8,2.4 91.21,2.4 92.92,19.88 					"/>
					<polygon class="st504" points="92.09,19.88 90.38,2.4 90.8,2.4 92.51,19.88 					"/>
					<polygon class="st505" points="91.68,19.88 89.97,2.4 90.38,2.4 92.09,19.88 					"/>
					<polygon class="st506" points="91.26,19.88 89.56,2.4 89.97,2.4 91.68,19.88 					"/>
					<polygon class="st507" points="90.85,19.88 89.14,2.4 89.56,2.4 91.26,19.88 					"/>
					<polygon class="st508" points="90.43,19.88 88.73,2.4 89.14,2.4 90.85,19.88 					"/>
					<polygon class="st509" points="90.02,19.88 88.31,2.4 88.73,2.4 90.43,19.88 					"/>
					<polygon class="st510" points="89.6,19.88 87.9,2.4 88.31,2.4 90.02,19.88 					"/>
					<polygon class="st511" points="89.19,19.88 87.48,2.4 87.9,2.4 89.6,19.88 					"/>
					<polygon class="st512" points="88.77,19.88 87.07,2.4 87.48,2.4 89.19,19.88 					"/>
					<polygon class="st513" points="88.36,19.88 86.65,2.4 87.07,2.4 88.77,19.88 					"/>
					<polygon class="st514" points="87.94,19.88 86.24,2.4 86.65,2.4 88.36,19.88 					"/>
					<polygon class="st515" points="87.53,19.88 85.82,2.4 86.24,2.4 87.94,19.88 					"/>
					<polygon class="st516" points="87.12,19.88 85.41,2.4 85.82,2.4 87.53,19.88 					"/>
					<polygon class="st517" points="86.7,19.88 84.99,2.4 85.41,2.4 87.12,19.88 					"/>
					<polygon class="st518" points="86.29,19.88 84.58,2.4 84.99,2.4 86.7,19.88 					"/>
					<polygon class="st519" points="85.87,19.88 84.16,2.4 84.58,2.4 86.29,19.88 					"/>
					<polygon class="st520" points="85.46,19.88 83.75,2.4 84.16,2.4 85.87,19.88 					"/>
					<polygon class="st521" points="85.04,19.88 83.33,2.4 83.75,2.4 85.46,19.88 					"/>
					<polygon class="st522" points="84.63,19.88 82.92,2.4 83.33,2.4 85.04,19.88 					"/>
					<polygon class="st523" points="84.21,19.88 82.5,2.4 82.92,2.4 84.63,19.88 					"/>
					<polygon class="st524" points="83.8,19.88 82.09,2.4 82.5,2.4 84.21,19.88 					"/>
					<polygon class="st525" points="83.38,19.88 81.67,2.4 82.09,2.4 83.8,19.88 					"/>
					<polygon class="st526" points="82.97,19.88 81.26,2.4 81.67,2.4 83.38,19.88 					"/>
					<polygon class="st527" points="82.55,19.88 80.84,2.4 81.26,2.4 82.97,19.88 					"/>
					<polygon class="st528" points="82.14,19.88 80.43,2.4 80.84,2.4 82.55,19.88 					"/>
					<polygon class="st529" points="81.72,19.88 80.01,2.4 80.43,2.4 82.14,19.88 					"/>
					<polygon class="st530" points="81.31,19.88 79.6,2.4 80.01,2.4 81.72,19.88 					"/>
					<polygon class="st531" points="80.89,19.88 79.18,2.4 79.6,2.4 81.31,19.88 					"/>
					<polygon class="st532" points="80.48,19.88 78.77,2.4 79.18,2.4 80.89,19.88 					"/>
					<polygon class="st533" points="80.06,19.88 78.35,2.4 78.77,2.4 80.48,19.88 					"/>
					<polygon class="st534" points="79.65,19.88 77.94,2.4 78.35,2.4 80.06,19.88 					"/>
					<polygon class="st535" points="79.23,19.88 77.52,2.4 77.94,2.4 79.65,19.88 					"/>
					<polygon class="st536" points="78.82,19.88 77.11,2.4 77.52,2.4 79.23,19.88 					"/>
					<polygon class="st537" points="78.4,19.88 76.69,2.4 77.11,2.4 78.82,19.88 					"/>
					<polygon class="st538" points="77.99,19.88 76.28,2.4 76.69,2.4 78.4,19.88 					"/>
					<polygon class="st539" points="77.57,19.88 75.86,2.4 76.28,2.4 77.99,19.88 					"/>
					<polygon class="st540" points="77.16,19.88 75.45,2.4 75.86,2.4 77.57,19.88 					"/>
					<polygon class="st541" points="76.74,19.88 75.04,2.4 75.45,2.4 77.16,19.88 					"/>
					<polygon class="st542" points="76.33,19.88 74.62,2.4 75.04,2.4 76.74,19.88 					"/>
					<polygon class="st543" points="75.91,19.88 74.21,2.4 74.62,2.4 76.33,19.88 					"/>
					<polygon class="st544" points="75.5,19.88 73.79,2.4 74.21,2.4 75.91,19.88 					"/>
					<polygon class="st545" points="75.08,19.88 73.38,2.4 73.79,2.4 75.5,19.88 					"/>
					<polygon class="st545" points="73.38,2.4 75.08,19.88 72.68,19.88 72.68,2.4 					"/>
				</g>
			</g>
		</g>
	</g>
</g>
</svg>
