<svg width="10" height="17" viewBox="0 0 10 17" fill="none" xmlns="http://www.w3.org/2000/svg">
<path d="M1.94643 15.8882L10 8.10484L1.94643 0.321527C1.72692 0.110084 1.43241 -0.00550079 1.12768 0.000200978C0.822954 0.00590274 0.532971 0.132424 0.321528 0.351931C0.110085 0.571438 -0.00549988 0.865951 0.000201174 1.17068C0.00590318 1.47541 0.132424 1.76539 0.351931 1.97683L6.69614 8.10484L0.351931 14.2396C0.132424 14.4511 0.0059026 14.741 0.000200568 15.0458C-0.00550051 15.3505 0.110084 15.645 0.321528 15.8645C0.532971 16.084 0.822953 16.2105 1.12768 16.2162C1.43241 16.2219 1.72692 16.1064 1.94643 15.8949L1.94643 15.8882Z" fill="#23ACDB"/>
</svg>
