<?xml version="1.0" encoding="utf-8"?>
<!-- Generator: Adobe Illustrator 24.3.0, SVG Export Plug-In . SVG Version: 6.00 Build 0)  -->
<svg version="1.1" id="Layer_1" xmlns="http://www.w3.org/2000/svg" xmlns:xlink="http://www.w3.org/1999/xlink" x="0px" y="0px"
	 width="580px" height="200px" viewBox="0 0 580 200" style="enable-background:new 0 0 580 200;" xml:space="preserve">
<style type="text/css">
	.st0{fill:#9A2688;}
	.st1{fill-rule:evenodd;clip-rule:evenodd;fill:#9A2688;}
	.st2{fill:#161C5C;}
	.st3{fill:#FFFFFF;}
	.st4{fill:#23ACDB;}
	.st5{fill:#E5226F;}
	.st6{fill:#0C1B32;}
	.st7{fill:#435EA6;}
	.st8{fill:#FBFBFB;}
</style>
<g>
	<g>
		<path class="st0" d="M220.67,122.94c0,0.96-0.38,1.87-1.05,2.55c-0.68,0.68-1.59,1.06-2.54,1.06s-1.87-0.38-2.54-1.06
			c-0.67-0.68-1.05-1.6-1.05-2.55s0.38-1.87,1.05-2.55c0.68-0.68,1.59-1.06,2.54-1.06s1.87,0.38,2.54,1.06
			C220.29,121.07,220.67,121.99,220.67,122.94L220.67,122.94z"/>
	</g>
	<g>
		<path class="st0" d="M226.54,110.37h-19.19c-1.27,0-2.49,0.51-3.39,1.41c-0.9,0.9-1.4,2.13-1.4,3.4v28.87c0,1.28,0.51,2.5,1.4,3.4
			c0.9,0.9,2.12,1.41,3.39,1.41h19.19c1.27,0,2.49-0.51,3.39-1.41c0.9-0.9,1.4-2.13,1.4-3.4v-28.87c0-1.28-0.51-2.5-1.4-3.4
			C229.04,110.88,227.82,110.37,226.54,110.37L226.54,110.37z M204.95,115.19c0-0.64,0.25-1.25,0.7-1.7c0.45-0.45,1.06-0.7,1.7-0.7
			h19.19c0.64,0,1.25,0.25,1.7,0.7c0.45,0.45,0.7,1.06,0.7,1.7v19.24l-5-5.01c-0.12-0.12-0.27-0.22-0.44-0.28
			c-0.16-0.06-0.34-0.08-0.51-0.07c-0.17,0.01-0.34,0.07-0.49,0.15c-0.15,0.09-0.28,0.2-0.38,0.35l-5.17,7.26l-5.19-3.13
			c-0.23-0.14-0.5-0.19-0.76-0.16c-0.27,0.03-0.51,0.15-0.7,0.34l-5.34,5.35V115.19z"/>
	</g>
	<g>
		<path class="st0" d="M38.38,122.72C17.22,122.72,0,105.46,0,84.24s17.22-38.48,38.38-38.48s38.38,17.26,38.38,38.48
			S59.54,122.72,38.38,122.72z M38.38,49.73c-18.98,0-34.41,15.48-34.41,34.51c0,19.03,15.44,34.51,34.41,34.51
			s34.41-15.48,34.41-34.51C72.79,65.21,57.36,49.73,38.38,49.73z"/>
	</g>
	<g>
		<path class="st1" d="M532.98,142.03c0-0.39,0.15-0.76,0.43-1.04c0.27-0.27,0.65-0.43,1.03-0.43h26.32c0.39,0,0.76,0.15,1.03,0.43
			c0.27,0.28,0.43,0.65,0.43,1.04c0,0.39-0.15,0.76-0.43,1.04c-0.27,0.27-0.65,0.43-1.03,0.43h-26.32c-0.39,0-0.76-0.15-1.03-0.43
			S532.98,142.42,532.98,142.03z M532.98,130.31c0-0.39,0.15-0.76,0.43-1.04c0.27-0.27,0.65-0.43,1.03-0.43h26.32
			c0.39,0,0.76,0.15,1.03,0.43c0.27,0.28,0.43,0.65,0.43,1.04c0,0.39-0.15,0.76-0.43,1.04c-0.27,0.27-0.65,0.43-1.03,0.43h-26.32
			c-0.39,0-0.76-0.15-1.03-0.43S532.98,130.7,532.98,130.31z M532.98,118.58c0-0.39,0.15-0.76,0.43-1.04
			c0.27-0.28,0.65-0.43,1.03-0.43h26.32c0.39,0,0.76,0.15,1.03,0.43c0.27,0.27,0.43,0.65,0.43,1.04c0,0.39-0.15,0.76-0.43,1.04
			c-0.27,0.27-0.65,0.43-1.03,0.43h-26.32c-0.39,0-0.76-0.15-1.03-0.43S532.98,118.97,532.98,118.58z M529.63,114.61
			c0.14,0.14,0.24,0.3,0.32,0.48c0.07,0.18,0.11,0.37,0.11,0.56s-0.04,0.38-0.11,0.56c-0.07,0.18-0.18,0.34-0.32,0.48l-4.39,4.4
			c-0.14,0.14-0.3,0.24-0.47,0.32c-0.18,0.07-0.37,0.11-0.56,0.11c-0.19,0-0.38-0.04-0.56-0.11c-0.18-0.07-0.34-0.18-0.47-0.32
			l-1.46-1.47c-0.14-0.14-0.24-0.3-0.32-0.48c-0.07-0.18-0.11-0.37-0.11-0.56c0-0.19,0.04-0.38,0.11-0.56
			c0.07-0.18,0.18-0.34,0.32-0.48c0.14-0.14,0.3-0.24,0.47-0.32c0.18-0.07,0.37-0.11,0.56-0.11c0.19,0,0.38,0.04,0.56,0.11
			c0.18,0.07,0.34,0.18,0.48,0.32l0.43,0.43l3.35-3.36c0.14-0.14,0.3-0.24,0.47-0.32c0.18-0.07,0.37-0.11,0.56-0.11
			c0.19,0,0.38,0.04,0.56,0.11C529.33,114.37,529.49,114.47,529.63,114.61L529.63,114.61z M529.63,126.34
			c0.14,0.14,0.24,0.3,0.32,0.48c0.07,0.18,0.11,0.37,0.11,0.56s-0.04,0.38-0.11,0.56c-0.07,0.18-0.18,0.34-0.32,0.48l-4.39,4.4
			c-0.14,0.14-0.3,0.24-0.47,0.32c-0.18,0.07-0.37,0.11-0.56,0.11c-0.19,0-0.38-0.04-0.56-0.11c-0.18-0.07-0.34-0.18-0.47-0.32
			l-1.46-1.47c-0.28-0.27-0.43-0.65-0.43-1.04s0.15-0.76,0.43-1.04c0.27-0.27,0.65-0.43,1.03-0.43s0.76,0.16,1.04,0.43l0.43,0.43
			l3.35-3.36c0.14-0.14,0.3-0.24,0.47-0.32c0.18-0.07,0.37-0.11,0.56-0.11c0.19,0,0.38,0.04,0.56,0.11
			C529.33,126.09,529.49,126.2,529.63,126.34L529.63,126.34z M529.63,138.06c0.14,0.14,0.24,0.3,0.32,0.48
			c0.07,0.18,0.11,0.37,0.11,0.56c0,0.19-0.04,0.38-0.11,0.56c-0.07,0.18-0.18,0.34-0.32,0.48l-4.39,4.4
			c-0.14,0.14-0.3,0.24-0.47,0.32c-0.18,0.07-0.37,0.11-0.56,0.11c-0.19,0-0.38-0.04-0.56-0.11c-0.18-0.07-0.34-0.18-0.47-0.32
			l-1.46-1.47c-0.28-0.28-0.43-0.65-0.43-1.04c0-0.39,0.15-0.76,0.43-1.04c0.27-0.27,0.65-0.43,1.03-0.43s0.76,0.16,1.04,0.43
			l0.43,0.43l3.35-3.36c0.14-0.14,0.3-0.24,0.47-0.32c0.18-0.07,0.37-0.11,0.56-0.11c0.19,0,0.38,0.04,0.56,0.11
			C529.33,137.82,529.49,137.93,529.63,138.06L529.63,138.06z"/>
	</g>
	<g>
		<path class="st2" d="M217.5,168.05c-21.16,0-38.38-17.26-38.38-38.48s17.22-38.48,38.38-38.48s38.38,17.26,38.38,38.48
			S238.66,168.05,217.5,168.05z M217.5,95.06c-18.98,0-34.41,15.48-34.41,34.51s15.44,34.51,34.41,34.51s34.41-15.48,34.41-34.51
			S236.48,95.06,217.5,95.06z"/>
	</g>
	<g>
		<ellipse class="st0" cx="24.73" cy="50.89" rx="10.24" ry="10.26"/>
	</g>
	<g>
		<ellipse class="st2" cx="238.61" cy="97.74" rx="10.24" ry="10.26"/>
	</g>
	<g>
		<path class="st3" d="M21.96,55.61c-0.7,0-1.06-0.35-1.06-1.05c0-0.69,0.35-1.03,1.06-1.03h1.25v-4.98l-0.85,0.52
			c-0.24,0.15-0.47,0.21-0.68,0.18c-0.21-0.04-0.39-0.13-0.54-0.28c-0.15-0.15-0.25-0.33-0.29-0.54c-0.05-0.21-0.03-0.43,0.06-0.64
			c0.08-0.21,0.25-0.39,0.5-0.54l1.92-1.2c0.42-0.26,0.86-0.39,1.32-0.39c0.35,0,0.63,0.09,0.82,0.28c0.19,0.18,0.29,0.44,0.29,0.78
			v6.82h1.11c0.7,0,1.06,0.34,1.06,1.03c0,0.7-0.35,1.05-1.06,1.05H21.96z"/>
	</g>
	<g>
		<path class="st3" d="M236.52,101.79c-0.41,0-0.7-0.09-0.89-0.28c-0.18-0.2-0.26-0.48-0.26-0.85c0-0.26,0.06-0.49,0.17-0.7
			c0.11-0.2,0.26-0.4,0.46-0.6l2.43-2.55c0.36-0.38,0.62-0.71,0.76-0.99c0.16-0.29,0.24-0.57,0.24-0.85c0-0.71-0.45-1.06-1.35-1.06
			c-0.22,0-0.46,0.03-0.72,0.1c-0.25,0.06-0.51,0.16-0.79,0.31c-0.25,0.12-0.48,0.16-0.68,0.11c-0.2-0.06-0.37-0.16-0.5-0.32
			c-0.13-0.16-0.21-0.34-0.25-0.54c-0.03-0.2,0-0.4,0.1-0.6c0.09-0.2,0.26-0.37,0.5-0.5c0.43-0.22,0.87-0.39,1.32-0.49
			c0.46-0.11,0.93-0.17,1.39-0.17c1.13,0,1.99,0.25,2.59,0.74c0.6,0.49,0.9,1.2,0.9,2.13c0,0.59-0.13,1.16-0.4,1.7
			c-0.27,0.54-0.72,1.12-1.35,1.74l-1.58,1.59h2.77c0.7,0,1.06,0.34,1.06,1.03c0,0.7-0.35,1.05-1.06,1.05H236.52z"/>
	</g>
	<g>
		<path class="st0" d="M199.6,185.21c-0.71,0-1.4-0.08-2.08-0.24c-0.67-0.16-1.25-0.4-1.75-0.72c-0.24-0.16-0.39-0.36-0.44-0.59
			c-0.05-0.23-0.04-0.45,0.05-0.65c0.1-0.21,0.24-0.36,0.43-0.43c0.2-0.08,0.43-0.05,0.68,0.11c0.47,0.28,0.96,0.48,1.48,0.61
			c0.52,0.13,1.06,0.19,1.64,0.19c0.84,0,1.45-0.14,1.83-0.41c0.38-0.29,0.57-0.65,0.57-1.1c0-0.37-0.14-0.66-0.41-0.88
			c-0.26-0.21-0.72-0.39-1.38-0.53l-1.75-0.37c-1.99-0.43-2.99-1.45-2.99-3.07c0-0.7,0.19-1.31,0.56-1.83
			c0.37-0.52,0.88-0.92,1.54-1.21c0.66-0.29,1.41-0.43,2.27-0.43c0.64,0,1.24,0.08,1.81,0.24c0.57,0.16,1.09,0.39,1.54,0.7
			c0.21,0.15,0.34,0.33,0.38,0.56c0.04,0.21,0.02,0.41-0.08,0.61c-0.1,0.18-0.25,0.31-0.46,0.38c-0.2,0.06-0.44,0.02-0.71-0.14
			c-0.39-0.22-0.79-0.38-1.19-0.48c-0.4-0.1-0.84-0.14-1.3-0.14c-0.73,0-1.3,0.15-1.72,0.46c-0.41,0.31-0.62,0.71-0.62,1.21
			c0,0.38,0.13,0.69,0.38,0.92c0.25,0.22,0.69,0.4,1.3,0.53l1.73,0.37c1.05,0.22,1.83,0.57,2.34,1.05c0.52,0.48,0.78,1.12,0.78,1.91
			c0,0.67-0.18,1.26-0.54,1.77c-0.36,0.51-0.87,0.91-1.54,1.19C201.28,185.07,200.5,185.21,199.6,185.21z M209.4,185.21
			c-0.88,0-1.64-0.16-2.27-0.49c-0.64-0.33-1.13-0.8-1.48-1.4c-0.34-0.61-0.51-1.32-0.51-2.15c0-0.81,0.16-1.51,0.49-2.12
			c0.34-0.61,0.8-1.08,1.38-1.42c0.59-0.35,1.27-0.53,2.02-0.53c1.1,0,1.97,0.35,2.61,1.05c0.65,0.7,0.97,1.66,0.97,2.87
			c0,0.39-0.25,0.59-0.76,0.59h-4.8c0.15,1.39,0.94,2.09,2.38,2.09c0.28,0,0.58-0.03,0.92-0.1c0.35-0.07,0.68-0.2,0.98-0.37
			c0.28-0.16,0.51-0.21,0.7-0.14c0.19,0.05,0.32,0.16,0.4,0.33c0.08,0.17,0.1,0.36,0.03,0.57c-0.05,0.2-0.2,0.38-0.44,0.53
			c-0.37,0.23-0.8,0.41-1.29,0.53C210.26,185.15,209.81,185.21,209.4,185.21z M209.12,178.45c-0.58,0-1.05,0.18-1.41,0.54
			c-0.36,0.36-0.58,0.85-0.65,1.47h3.91c-0.04-0.65-0.22-1.14-0.54-1.48C210.11,178.63,209.68,178.45,209.12,178.45z M216.84,185.21
			c-1.77,0-2.65-0.99-2.65-2.98v-7.53c0-0.67,0.33-1,0.98-1c0.67,0,1,0.33,1,1v7.44c0,0.96,0.4,1.43,1.19,1.43c0.08,0,0.16,0,0.24,0
			c0.07-0.01,0.15-0.02,0.22-0.03c0.15-0.02,0.25,0.02,0.3,0.13c0.05,0.1,0.08,0.3,0.08,0.61c0,0.27-0.05,0.47-0.16,0.62
			s-0.28,0.24-0.52,0.27C217.3,185.19,217.07,185.21,216.84,185.21z M223.01,185.21c-0.88,0-1.64-0.16-2.27-0.49s-1.13-0.8-1.48-1.4
			c-0.34-0.61-0.51-1.32-0.51-2.15c0-0.81,0.16-1.51,0.49-2.12c0.34-0.61,0.8-1.08,1.38-1.42c0.59-0.35,1.27-0.53,2.02-0.53
			c1.1,0,1.97,0.35,2.61,1.05c0.65,0.7,0.97,1.66,0.97,2.87c0,0.39-0.25,0.59-0.76,0.59h-4.8c0.15,1.39,0.94,2.09,2.38,2.09
			c0.28,0,0.58-0.03,0.92-0.1c0.35-0.07,0.68-0.2,0.98-0.37c0.28-0.16,0.51-0.21,0.7-0.14c0.19,0.05,0.32,0.16,0.4,0.33
			c0.08,0.17,0.1,0.36,0.03,0.57c-0.05,0.2-0.2,0.38-0.44,0.53c-0.37,0.23-0.8,0.41-1.29,0.53
			C223.87,185.15,223.42,185.21,223.01,185.21z M222.72,178.45c-0.58,0-1.05,0.18-1.41,0.54c-0.36,0.36-0.58,0.85-0.65,1.47h3.91
			c-0.04-0.65-0.22-1.14-0.54-1.48C223.72,178.63,223.28,178.45,222.72,178.45z M231.38,185.21c-0.82,0-1.53-0.16-2.13-0.49
			c-0.6-0.34-1.07-0.82-1.4-1.43c-0.33-0.62-0.49-1.34-0.49-2.17s0.16-1.54,0.49-2.13c0.33-0.61,0.79-1.07,1.4-1.39
			c0.6-0.33,1.31-0.49,2.13-0.49c0.35,0,0.73,0.05,1.13,0.14c0.41,0.1,0.8,0.25,1.16,0.48c0.21,0.13,0.33,0.29,0.37,0.49
			c0.04,0.2,0.02,0.39-0.08,0.56c-0.08,0.17-0.22,0.29-0.4,0.37c-0.17,0.07-0.37,0.05-0.59-0.08c-0.49-0.28-0.96-0.41-1.41-0.41
			c-0.69,0-1.22,0.22-1.6,0.65c-0.37,0.43-0.56,1.04-0.56,1.83c0,0.79,0.19,1.41,0.56,1.86c0.38,0.45,0.92,0.67,1.6,0.67
			c0.46,0,0.93-0.13,1.41-0.4c0.22-0.13,0.42-0.15,0.59-0.08c0.17,0.07,0.29,0.2,0.37,0.38c0.07,0.17,0.09,0.36,0.05,0.56
			c-0.04,0.19-0.16,0.35-0.37,0.48c-0.35,0.21-0.72,0.37-1.11,0.46C232.1,185.16,231.73,185.21,231.38,185.21z M238.87,185.21
			c-2.05,0-3.08-1.02-3.08-3.06v-3.39h-0.83c-0.53,0-0.79-0.25-0.79-0.75s0.27-0.75,0.79-0.75h0.83v-1.45c0-0.67,0.33-1,1-1
			c0.66,0,0.98,0.33,0.98,1v1.45h1.68c0.53,0,0.79,0.25,0.79,0.75s-0.27,0.75-0.79,0.75h-1.68v3.28c0,0.51,0.11,0.89,0.33,1.15
			c0.22,0.25,0.58,0.38,1.08,0.38c0.18,0,0.34-0.02,0.48-0.05s0.26-0.05,0.37-0.06c0.13-0.01,0.23,0.03,0.32,0.13
			c0.08,0.08,0.13,0.27,0.13,0.54c0,0.21-0.04,0.4-0.11,0.57c-0.06,0.16-0.19,0.27-0.37,0.33c-0.14,0.04-0.32,0.08-0.54,0.11
			C239.24,185.19,239.04,185.21,238.87,185.21z M168.43,199.15c-0.56,0-1.06-0.11-1.51-0.32c-0.43-0.22-0.78-0.52-1.03-0.89
			c-0.24-0.37-0.37-0.79-0.37-1.26c0-0.57,0.15-1.02,0.44-1.35c0.3-0.34,0.78-0.58,1.45-0.73c0.67-0.15,1.56-0.22,2.68-0.22h0.56
			v-0.33c0-0.53-0.12-0.91-0.35-1.15c-0.23-0.23-0.63-0.35-1.18-0.35c-0.31,0-0.64,0.04-1,0.11c-0.35,0.07-0.72,0.2-1.11,0.38
			c-0.25,0.12-0.47,0.13-0.64,0.05c-0.17-0.1-0.29-0.24-0.35-0.43c-0.05-0.2-0.04-0.4,0.03-0.61c0.08-0.2,0.25-0.35,0.49-0.45
			c0.49-0.2,0.95-0.35,1.4-0.43c0.45-0.08,0.87-0.13,1.24-0.13c1.13,0,1.97,0.27,2.53,0.8c0.55,0.52,0.83,1.33,0.83,2.44v3.82
			c0,0.68-0.31,1.02-0.92,1.02c-0.63,0-0.94-0.34-0.94-1.02v-0.35c-0.18,0.44-0.47,0.78-0.86,1.04
			C169.44,199.02,168.97,199.15,168.43,199.15z M168.84,197.78c0.52,0,0.95-0.18,1.29-0.54c0.35-0.36,0.52-0.82,0.52-1.37v-0.35
			h-0.54c-1,0-1.69,0.08-2.08,0.24c-0.38,0.15-0.57,0.43-0.57,0.83c0,0.35,0.12,0.64,0.37,0.86
			C168.07,197.66,168.41,197.78,168.84,197.78z M175.54,199.11c-0.66,0-0.98-0.34-0.98-1.02v-6.02c0-0.67,0.32-1,0.97-1
			c0.65,0,0.97,0.33,0.97,1v0.33c0.26-0.45,0.62-0.79,1.06-1.02c0.45-0.23,0.96-0.35,1.53-0.35c1.83,0,2.75,1.07,2.75,3.2v3.86
			c0,0.68-0.33,1.02-0.99,1.02c-0.67,0-1-0.34-1-1.02v-3.76c0-0.61-0.12-1.05-0.35-1.32c-0.22-0.28-0.57-0.41-1.05-0.41
			c-0.58,0-1.05,0.19-1.4,0.56c-0.34,0.36-0.51,0.84-0.51,1.45v3.49C176.55,198.77,176.21,199.11,175.54,199.11z M189.15,189.6
			c-0.37,0-0.66-0.09-0.87-0.27c-0.2-0.19-0.3-0.45-0.3-0.78c0-0.34,0.1-0.6,0.3-0.78c0.21-0.18,0.5-0.27,0.87-0.27
			c0.78,0,1.18,0.35,1.18,1.05S189.93,189.6,189.15,189.6z M189.15,199.1c-0.32,0-0.56-0.1-0.73-0.29c-0.17-0.19-0.25-0.46-0.25-0.8
			v-5.85c0-0.72,0.33-1.08,0.98-1.08c0.67,0,1,0.36,1,1.08v5.85c0,0.34-0.09,0.61-0.25,0.8C189.73,199,189.48,199.1,189.15,199.1z
			 M195.77,199.15c-2.05,0-3.08-1.02-3.08-3.06v-3.39h-0.83c-0.53,0-0.79-0.25-0.79-0.75c0-0.5,0.27-0.75,0.79-0.75h0.83v-1.45
			c0-0.67,0.33-1,1-1c0.66,0,0.98,0.33,0.98,1v1.45h1.68c0.53,0,0.79,0.25,0.79,0.75c0,0.5-0.27,0.75-0.79,0.75h-1.68v3.28
			c0,0.51,0.11,0.89,0.33,1.15c0.22,0.25,0.58,0.38,1.08,0.38c0.18,0,0.34-0.02,0.48-0.05c0.14-0.03,0.26-0.05,0.37-0.06
			c0.13-0.01,0.23,0.03,0.32,0.13c0.08,0.08,0.13,0.27,0.13,0.54c0,0.21-0.04,0.4-0.11,0.57c-0.06,0.16-0.19,0.27-0.37,0.33
			c-0.14,0.04-0.32,0.08-0.54,0.11C196.14,199.12,195.94,199.15,195.77,199.15z M202.06,199.15c-0.88,0-1.64-0.16-2.27-0.49
			s-1.13-0.8-1.48-1.4c-0.34-0.61-0.51-1.32-0.51-2.15c0-0.81,0.16-1.51,0.49-2.12c0.34-0.61,0.8-1.08,1.38-1.42
			c0.59-0.35,1.27-0.53,2.02-0.53c1.1,0,1.97,0.35,2.61,1.05c0.65,0.7,0.97,1.66,0.97,2.87c0,0.39-0.25,0.59-0.76,0.59h-4.8
			c0.15,1.39,0.94,2.09,2.38,2.09c0.28,0,0.58-0.03,0.92-0.1c0.35-0.07,0.68-0.2,0.98-0.37c0.28-0.16,0.51-0.21,0.7-0.14
			c0.19,0.05,0.32,0.16,0.4,0.33c0.09,0.17,0.1,0.36,0.03,0.57c-0.05,0.2-0.2,0.38-0.44,0.53c-0.37,0.23-0.8,0.41-1.29,0.53
			C202.92,199.09,202.48,199.15,202.06,199.15z M201.78,192.39c-0.58,0-1.05,0.18-1.41,0.54c-0.36,0.36-0.58,0.85-0.65,1.47h3.91
			c-0.04-0.65-0.22-1.14-0.54-1.48C202.77,192.57,202.34,192.39,201.78,192.39z M207.86,199.11c-0.66,0-0.99-0.34-0.99-1.02v-6.02
			c0-0.67,0.32-1,0.97-1c0.65,0,0.97,0.33,0.97,1v0.32c0.23-0.43,0.56-0.75,0.97-0.99c0.41-0.24,0.89-0.37,1.43-0.37
			c1.17,0,1.93,0.51,2.29,1.53c0.24-0.48,0.59-0.85,1.05-1.12c0.46-0.28,0.98-0.41,1.56-0.41c1.75,0,2.62,1.07,2.62,3.2v3.86
			c0,0.68-0.33,1.02-1,1.02c-0.66,0-0.98-0.34-0.98-1.02v-3.78c0-0.59-0.1-1.03-0.3-1.31c-0.19-0.28-0.52-0.41-0.98-0.41
			c-0.52,0-0.93,0.19-1.22,0.56c-0.3,0.36-0.44,0.87-0.44,1.51v3.42c0,0.68-0.33,1.02-0.98,1.02c-0.67,0-1-0.34-1-1.02v-3.78
			c0-0.59-0.1-1.03-0.3-1.31c-0.19-0.28-0.51-0.41-0.97-0.41c-0.52,0-0.93,0.19-1.22,0.56c-0.3,0.36-0.44,0.87-0.44,1.51v3.42
			C208.86,198.77,208.53,199.11,207.86,199.11z M228.65,199.15c-2.05,0-3.08-1.02-3.08-3.06v-3.39h-0.83
			c-0.53,0-0.79-0.25-0.79-0.75c0-0.5,0.27-0.75,0.79-0.75h0.83v-1.45c0-0.67,0.33-1,1-1c0.66,0,0.98,0.33,0.98,1v1.45h1.68
			c0.53,0,0.79,0.25,0.79,0.75c0,0.5-0.26,0.75-0.79,0.75h-1.68v3.28c0,0.51,0.11,0.89,0.33,1.15c0.22,0.25,0.58,0.38,1.08,0.38
			c0.18,0,0.34-0.02,0.48-0.05c0.14-0.03,0.26-0.05,0.37-0.06c0.13-0.01,0.23,0.03,0.32,0.13c0.09,0.08,0.13,0.27,0.13,0.54
			c0,0.21-0.04,0.4-0.11,0.57c-0.06,0.16-0.18,0.27-0.37,0.33c-0.14,0.04-0.32,0.08-0.54,0.11
			C229.01,199.12,228.82,199.15,228.65,199.15z M234.65,199.15c-0.81,0-1.5-0.16-2.1-0.49c-0.59-0.33-1.05-0.8-1.38-1.4
			c-0.33-0.62-0.49-1.34-0.49-2.17s0.16-1.55,0.49-2.15c0.33-0.61,0.79-1.07,1.38-1.4c0.59-0.33,1.29-0.49,2.1-0.49
			c0.8,0,1.5,0.16,2.1,0.49c0.59,0.33,1.05,0.8,1.38,1.4c0.33,0.61,0.49,1.32,0.49,2.15s-0.16,1.55-0.49,2.17
			c-0.33,0.61-0.79,1.07-1.38,1.4C236.16,198.98,235.46,199.15,234.65,199.15z M234.65,197.63c0.59,0,1.07-0.21,1.43-0.64
			c0.36-0.44,0.54-1.07,0.54-1.91c0-0.85-0.18-1.48-0.54-1.9c-0.36-0.43-0.84-0.64-1.43-0.64c-0.59,0-1.07,0.21-1.43,0.64
			c-0.36,0.41-0.54,1.05-0.54,1.9c0,0.84,0.18,1.48,0.54,1.91C233.58,197.42,234.06,197.63,234.65,197.63z M247.42,199.15
			c-0.45,0-0.94-0.05-1.45-0.14c-0.51-0.1-0.96-0.26-1.37-0.49c-0.22-0.13-0.36-0.28-0.41-0.46c-0.05-0.19-0.05-0.37,0.02-0.53
			c0.07-0.17,0.19-0.29,0.35-0.37c0.17-0.07,0.37-0.06,0.59,0.05c0.42,0.2,0.82,0.35,1.19,0.43c0.37,0.07,0.74,0.11,1.1,0.11
			c0.51,0,0.88-0.08,1.13-0.25c0.25-0.18,0.38-0.41,0.38-0.7c0-0.45-0.33-0.73-0.98-0.86l-1.59-0.3c-1.34-0.25-2.02-0.96-2.02-2.1
			c0-0.51,0.14-0.95,0.41-1.32c0.29-0.37,0.68-0.66,1.18-0.86c0.5-0.2,1.07-0.3,1.72-0.3c0.93,0,1.76,0.21,2.49,0.62
			c0.2,0.11,0.32,0.25,0.35,0.45c0.04,0.18,0.02,0.36-0.06,0.53c-0.07,0.16-0.2,0.28-0.37,0.35c-0.17,0.06-0.37,0.04-0.59-0.06
			c-0.33-0.17-0.65-0.29-0.95-0.37c-0.3-0.07-0.58-0.11-0.86-0.11c-0.52,0-0.91,0.09-1.16,0.27c-0.24,0.18-0.37,0.42-0.37,0.72
			c0,0.47,0.3,0.75,0.91,0.86l1.59,0.3c0.69,0.13,1.21,0.36,1.56,0.7c0.36,0.34,0.54,0.8,0.54,1.37c0,0.78-0.3,1.39-0.91,1.83
			C249.23,198.93,248.43,199.15,247.42,199.15z M256.16,199.15c-0.88,0-1.64-0.16-2.27-0.49c-0.64-0.33-1.13-0.8-1.48-1.4
			c-0.34-0.61-0.51-1.32-0.51-2.15c0-0.81,0.16-1.51,0.49-2.12c0.34-0.61,0.8-1.08,1.38-1.42c0.59-0.35,1.26-0.53,2.02-0.53
			c1.1,0,1.97,0.35,2.61,1.05c0.65,0.7,0.97,1.66,0.97,2.87c0,0.39-0.25,0.59-0.76,0.59h-4.8c0.15,1.39,0.94,2.09,2.38,2.09
			c0.28,0,0.58-0.03,0.92-0.1c0.35-0.07,0.68-0.2,0.98-0.37c0.28-0.16,0.51-0.21,0.7-0.14c0.19,0.05,0.32,0.16,0.4,0.33
			c0.08,0.17,0.1,0.36,0.03,0.57c-0.05,0.2-0.2,0.38-0.44,0.53c-0.37,0.23-0.8,0.41-1.29,0.53
			C257.02,199.09,256.58,199.15,256.16,199.15z M255.88,192.39c-0.58,0-1.05,0.18-1.41,0.54c-0.36,0.36-0.58,0.85-0.65,1.47h3.91
			c-0.04-0.65-0.22-1.14-0.54-1.48C256.87,192.57,256.44,192.39,255.88,192.39z M263.6,199.15c-1.77,0-2.65-0.99-2.65-2.98v-7.53
			c0-0.67,0.33-1,0.98-1c0.67,0,1,0.33,1,1v7.44c0,0.96,0.4,1.43,1.19,1.43c0.08,0,0.16,0,0.24,0c0.07-0.01,0.15-0.02,0.22-0.03
			c0.15-0.02,0.25,0.02,0.3,0.13c0.05,0.1,0.08,0.3,0.08,0.61c0,0.27-0.05,0.47-0.16,0.62c-0.11,0.15-0.28,0.24-0.52,0.27
			C264.06,199.13,263.83,199.15,263.6,199.15z M268.67,199.15c-1.77,0-2.65-0.99-2.65-2.98v-7.53c0-0.67,0.33-1,0.98-1
			c0.67,0,1,0.33,1,1v7.44c0,0.96,0.4,1.43,1.19,1.43c0.08,0,0.16,0,0.24,0c0.07-0.01,0.15-0.02,0.22-0.03
			c0.15-0.02,0.25,0.02,0.3,0.13c0.05,0.1,0.08,0.3,0.08,0.61c0,0.27-0.05,0.47-0.16,0.62c-0.11,0.15-0.28,0.24-0.52,0.27
			C269.13,199.13,268.9,199.15,268.67,199.15z"/>
	</g>
	<g>
		<path class="st2" d="M358.05,140.37c-0.7,0-1.05-0.36-1.05-1.08v-9.19c0-0.72,0.36-1.08,1.08-1.08h5.54c0.55,0,0.83,0.27,0.83,0.8
			c0,0.55-0.28,0.83-0.83,0.83h-4.59v3.17h4.26c0.55,0,0.83,0.27,0.83,0.8c0,0.55-0.28,0.83-0.83,0.83h-4.26v3.86
			C359.03,140.01,358.7,140.37,358.05,140.37z M366.59,140.37c-0.68,0-1.02-0.34-1.02-1.02v-6.02c0-0.67,0.32-1,0.97-1
			c0.65,0,0.97,0.33,0.97,1v0.49c0.38-0.91,1.2-1.42,2.45-1.53c0.45-0.05,0.71,0.21,0.76,0.78c0.05,0.56-0.22,0.88-0.83,0.94
			l-0.35,0.03c-1.3,0.13-1.95,0.8-1.95,2.01v3.3C367.59,140.03,367.26,140.37,366.59,140.37z M374.28,140.4
			c-0.56,0-1.06-0.11-1.51-0.32c-0.43-0.22-0.78-0.52-1.03-0.89c-0.24-0.37-0.37-0.79-0.37-1.26c0-0.57,0.15-1.02,0.44-1.35
			c0.3-0.34,0.78-0.58,1.45-0.73c0.67-0.15,1.56-0.22,2.68-0.22h0.56v-0.33c0-0.53-0.12-0.91-0.35-1.15
			c-0.23-0.23-0.62-0.35-1.18-0.35c-0.31,0-0.64,0.04-1,0.11c-0.35,0.07-0.72,0.2-1.11,0.38c-0.25,0.12-0.47,0.13-0.64,0.05
			c-0.17-0.1-0.29-0.24-0.35-0.43c-0.05-0.2-0.04-0.4,0.03-0.61c0.08-0.2,0.25-0.35,0.49-0.45c0.49-0.2,0.95-0.35,1.4-0.43
			c0.46-0.08,0.87-0.13,1.24-0.13c1.13,0,1.97,0.27,2.53,0.8c0.55,0.52,0.83,1.33,0.83,2.44v3.82c0,0.68-0.31,1.02-0.92,1.02
			c-0.62,0-0.94-0.34-0.94-1.02V139c-0.18,0.44-0.47,0.78-0.86,1.04C375.28,140.28,374.82,140.4,374.28,140.4z M374.69,139.03
			c0.52,0,0.95-0.18,1.29-0.54c0.35-0.36,0.52-0.82,0.52-1.37v-0.35h-0.54c-1,0-1.69,0.08-2.08,0.24c-0.38,0.15-0.57,0.43-0.57,0.83
			c0,0.35,0.12,0.64,0.37,0.86S374.25,139.03,374.69,139.03z M384,140.4c-0.82,0-1.53-0.16-2.13-0.49c-0.6-0.34-1.07-0.82-1.4-1.43
			c-0.33-0.62-0.49-1.34-0.49-2.17s0.16-1.54,0.49-2.13c0.33-0.61,0.79-1.07,1.4-1.39c0.6-0.33,1.31-0.49,2.13-0.49
			c0.35,0,0.73,0.05,1.13,0.14c0.41,0.1,0.8,0.25,1.16,0.48c0.21,0.13,0.33,0.29,0.37,0.49c0.04,0.2,0.02,0.39-0.08,0.56
			c-0.08,0.17-0.22,0.29-0.4,0.37c-0.17,0.07-0.37,0.05-0.59-0.08c-0.49-0.28-0.96-0.41-1.41-0.41c-0.69,0-1.22,0.22-1.6,0.65
			c-0.37,0.43-0.56,1.04-0.56,1.83c0,0.79,0.19,1.41,0.56,1.86c0.38,0.45,0.92,0.67,1.6,0.67c0.46,0,0.93-0.13,1.41-0.4
			c0.22-0.13,0.42-0.15,0.59-0.08c0.17,0.07,0.29,0.2,0.37,0.38c0.07,0.17,0.09,0.36,0.05,0.56c-0.04,0.19-0.16,0.35-0.37,0.48
			c-0.35,0.21-0.72,0.37-1.11,0.46C384.72,140.36,384.35,140.4,384,140.4z M391.49,140.4c-2.05,0-3.08-1.02-3.08-3.06v-3.39h-0.83
			c-0.53,0-0.79-0.25-0.79-0.75s0.27-0.75,0.79-0.75h0.83V131c0-0.67,0.33-1,1-1c0.66,0,0.98,0.33,0.98,1v1.45h1.68
			c0.53,0,0.79,0.25,0.79,0.75s-0.26,0.75-0.79,0.75h-1.68v3.28c0,0.51,0.11,0.89,0.33,1.15c0.22,0.25,0.58,0.38,1.08,0.38
			c0.18,0,0.34-0.02,0.48-0.05c0.14-0.03,0.26-0.05,0.37-0.06c0.13-0.01,0.23,0.03,0.32,0.13c0.09,0.08,0.13,0.27,0.13,0.54
			c0,0.21-0.04,0.4-0.11,0.57c-0.06,0.16-0.18,0.27-0.37,0.33c-0.14,0.04-0.32,0.08-0.54,0.11
			C391.85,140.38,391.66,140.4,391.49,140.4z M395.21,130.86c-0.37,0-0.66-0.09-0.87-0.27c-0.2-0.19-0.3-0.45-0.3-0.78
			c0-0.34,0.1-0.6,0.3-0.78c0.21-0.18,0.5-0.27,0.87-0.27c0.78,0,1.18,0.35,1.18,1.05C396.39,130.51,396,130.86,395.21,130.86z
			 M395.21,140.36c-0.32,0-0.56-0.1-0.73-0.29c-0.17-0.19-0.25-0.46-0.25-0.8v-5.85c0-0.72,0.33-1.08,0.98-1.08
			c0.67,0,1,0.36,1,1.08v5.85c0,0.34-0.08,0.61-0.25,0.8C395.79,140.26,395.54,140.36,395.21,140.36z M401.82,140.4
			c-0.81,0-1.5-0.16-2.1-0.49s-1.05-0.8-1.38-1.4c-0.33-0.62-0.49-1.34-0.49-2.17s0.16-1.55,0.49-2.15s0.79-1.07,1.38-1.4
			s1.29-0.49,2.1-0.49s1.5,0.16,2.1,0.49s1.05,0.8,1.38,1.4c0.33,0.61,0.49,1.32,0.49,2.15s-0.16,1.55-0.49,2.17
			c-0.33,0.61-0.79,1.07-1.38,1.4S402.63,140.4,401.82,140.4z M401.82,138.89c0.59,0,1.07-0.21,1.43-0.64
			c0.36-0.44,0.54-1.07,0.54-1.91c0-0.85-0.18-1.48-0.54-1.9c-0.36-0.43-0.84-0.64-1.43-0.64c-0.59,0-1.07,0.21-1.43,0.64
			c-0.36,0.41-0.54,1.05-0.54,1.9c0,0.84,0.18,1.48,0.54,1.91C400.75,138.68,401.23,138.89,401.82,138.89z M408.42,140.37
			c-0.66,0-0.98-0.34-0.98-1.02v-6.02c0-0.67,0.32-1,0.97-1s0.97,0.33,0.97,1v0.33c0.27-0.45,0.62-0.79,1.06-1.02
			c0.46-0.23,0.96-0.35,1.53-0.35c1.83,0,2.75,1.07,2.75,3.2v3.86c0,0.68-0.33,1.02-0.98,1.02c-0.67,0-1-0.34-1-1.02v-3.76
			c0-0.61-0.12-1.05-0.35-1.32c-0.22-0.28-0.57-0.41-1.05-0.41c-0.58,0-1.05,0.19-1.4,0.56c-0.34,0.36-0.51,0.84-0.51,1.45v3.49
			C409.42,140.03,409.08,140.37,408.42,140.37z M419.28,140.4c-0.56,0-1.06-0.11-1.51-0.32c-0.43-0.22-0.78-0.52-1.03-0.89
			c-0.24-0.37-0.37-0.79-0.37-1.26c0-0.57,0.15-1.02,0.44-1.35c0.3-0.34,0.78-0.58,1.45-0.73c0.67-0.15,1.56-0.22,2.68-0.22h0.56
			v-0.33c0-0.53-0.12-0.91-0.35-1.15c-0.23-0.23-0.62-0.35-1.18-0.35c-0.31,0-0.64,0.04-1,0.11c-0.35,0.07-0.72,0.2-1.11,0.38
			c-0.25,0.12-0.47,0.13-0.64,0.05c-0.17-0.1-0.29-0.24-0.35-0.43c-0.05-0.2-0.04-0.4,0.03-0.61c0.09-0.2,0.25-0.35,0.49-0.45
			c0.49-0.2,0.95-0.35,1.4-0.43c0.46-0.08,0.87-0.13,1.24-0.13c1.13,0,1.98,0.27,2.53,0.8c0.55,0.52,0.83,1.33,0.83,2.44v3.82
			c0,0.68-0.31,1.02-0.92,1.02c-0.62,0-0.94-0.34-0.94-1.02V139c-0.18,0.44-0.47,0.78-0.86,1.04
			C420.29,140.28,419.82,140.4,419.28,140.4z M419.7,139.03c0.52,0,0.95-0.18,1.29-0.54c0.35-0.36,0.52-0.82,0.52-1.37v-0.35h-0.54
			c-0.99,0-1.69,0.08-2.08,0.24c-0.38,0.15-0.57,0.43-0.57,0.83c0,0.35,0.12,0.64,0.37,0.86
			C418.92,138.92,419.26,139.03,419.7,139.03z M428.07,140.4c-1.77,0-2.65-0.99-2.65-2.98v-7.53c0-0.67,0.33-1,0.98-1
			c0.67,0,1,0.33,1,1v7.44c0,0.96,0.4,1.43,1.19,1.43c0.09,0,0.16,0,0.24,0c0.07-0.01,0.15-0.02,0.22-0.03
			c0.15-0.02,0.25,0.02,0.3,0.13c0.05,0.1,0.08,0.3,0.08,0.61c0,0.27-0.05,0.47-0.16,0.62c-0.11,0.15-0.28,0.24-0.52,0.27
			C428.53,140.39,428.3,140.4,428.07,140.4z M431.47,130.86c-0.37,0-0.66-0.09-0.87-0.27c-0.2-0.19-0.3-0.45-0.3-0.78
			c0-0.34,0.1-0.6,0.3-0.78c0.21-0.18,0.5-0.27,0.87-0.27c0.78,0,1.18,0.35,1.18,1.05C432.65,130.51,432.26,130.86,431.47,130.86z
			 M431.47,140.36c-0.32,0-0.56-0.1-0.73-0.29c-0.17-0.19-0.25-0.46-0.25-0.8v-5.85c0-0.72,0.33-1.08,0.98-1.08
			c0.67,0,1,0.36,1,1.08v5.85c0,0.34-0.09,0.61-0.25,0.8C432.05,140.26,431.8,140.36,431.47,140.36z M435.01,140.24
			c-0.28,0-0.48-0.08-0.62-0.25c-0.14-0.18-0.2-0.39-0.17-0.64c0.02-0.24,0.13-0.48,0.33-0.7l3.73-4.7h-3.37
			c-0.51,0-0.76-0.25-0.76-0.75s0.25-0.75,0.76-0.75h4.7c0.32,0,0.55,0.08,0.7,0.25c0.16,0.17,0.23,0.38,0.21,0.62
			c-0.01,0.23-0.12,0.46-0.32,0.68l-3.78,4.73h3.56c0.51,0,0.76,0.25,0.76,0.75s-0.25,0.75-0.76,0.75H435.01z M445.73,140.4
			c-0.88,0-1.64-0.16-2.27-0.49s-1.13-0.8-1.48-1.4c-0.34-0.61-0.51-1.32-0.51-2.15c0-0.81,0.16-1.51,0.49-2.12
			c0.34-0.61,0.8-1.08,1.38-1.42c0.59-0.35,1.27-0.53,2.02-0.53c1.1,0,1.97,0.35,2.61,1.05c0.65,0.7,0.97,1.66,0.97,2.87
			c0,0.39-0.25,0.59-0.76,0.59h-4.8c0.15,1.39,0.94,2.09,2.38,2.09c0.28,0,0.58-0.03,0.92-0.1c0.35-0.07,0.68-0.2,0.98-0.37
			c0.28-0.16,0.51-0.21,0.7-0.14c0.19,0.05,0.32,0.16,0.4,0.33c0.08,0.17,0.1,0.36,0.03,0.57c-0.05,0.2-0.2,0.38-0.44,0.53
			c-0.37,0.23-0.8,0.41-1.29,0.53C446.59,140.35,446.15,140.4,445.73,140.4z M445.45,133.65c-0.58,0-1.05,0.18-1.41,0.54
			c-0.36,0.36-0.58,0.85-0.65,1.47h3.91c-0.04-0.65-0.22-1.14-0.54-1.48C446.44,133.82,446.01,133.65,445.45,133.65z M377.56,154.34
			c-2.06,0-3.08-1.02-3.08-3.06v-3.39h-0.83c-0.53,0-0.79-0.25-0.79-0.75c0-0.5,0.26-0.75,0.79-0.75h0.83v-1.45c0-0.67,0.33-1,1-1
			c0.66,0,0.98,0.33,0.98,1v1.45h1.68c0.53,0,0.79,0.25,0.79,0.75c0,0.5-0.27,0.75-0.79,0.75h-1.68v3.28c0,0.51,0.11,0.89,0.33,1.15
			c0.22,0.25,0.58,0.38,1.08,0.38c0.18,0,0.34-0.02,0.48-0.05c0.14-0.03,0.26-0.05,0.37-0.06c0.13-0.01,0.23,0.03,0.32,0.13
			c0.08,0.08,0.13,0.27,0.13,0.54c0,0.21-0.04,0.4-0.11,0.57c-0.06,0.16-0.19,0.27-0.37,0.33c-0.14,0.04-0.32,0.08-0.54,0.11
			C377.93,154.32,377.73,154.34,377.56,154.34z M381.29,154.31c-0.66,0-0.98-0.34-0.98-1.02v-9.46c0-0.67,0.33-1,0.98-1
			c0.67,0,1,0.33,1,1v3.7c0.26-0.43,0.62-0.74,1.06-0.96c0.44-0.22,0.94-0.33,1.48-0.33c1.83,0,2.75,1.07,2.75,3.2v3.86
			c0,0.68-0.33,1.02-0.98,1.02c-0.67,0-1-0.34-1-1.02v-3.76c0-0.61-0.12-1.05-0.35-1.32c-0.22-0.28-0.57-0.41-1.05-0.41
			c-0.58,0-1.05,0.19-1.4,0.56c-0.34,0.36-0.51,0.84-0.51,1.45v3.49C382.29,153.97,381.96,154.31,381.29,154.31z M393.43,154.34
			c-0.88,0-1.64-0.16-2.27-0.49c-0.64-0.33-1.13-0.8-1.48-1.4c-0.34-0.61-0.51-1.32-0.51-2.15c0-0.81,0.16-1.51,0.49-2.12
			c0.34-0.61,0.8-1.08,1.38-1.42c0.59-0.35,1.27-0.53,2.02-0.53c1.1,0,1.97,0.35,2.61,1.05c0.65,0.7,0.97,1.66,0.97,2.87
			c0,0.39-0.25,0.59-0.76,0.59h-4.8c0.15,1.39,0.94,2.09,2.38,2.09c0.27,0,0.58-0.03,0.92-0.1c0.35-0.07,0.68-0.2,0.99-0.37
			c0.28-0.16,0.51-0.21,0.7-0.14c0.19,0.05,0.32,0.16,0.4,0.33c0.08,0.17,0.1,0.36,0.03,0.57c-0.05,0.2-0.2,0.38-0.44,0.53
			c-0.37,0.23-0.8,0.41-1.29,0.53C394.28,154.29,393.84,154.34,393.43,154.34z M393.14,147.59c-0.58,0-1.05,0.18-1.41,0.54
			c-0.36,0.36-0.58,0.85-0.65,1.47h3.91c-0.04-0.65-0.22-1.14-0.54-1.48C394.14,147.76,393.7,147.59,393.14,147.59z M403.67,154.31
			c-0.64,0-0.95-0.33-0.95-0.99v-9.48c0-0.33,0.08-0.58,0.24-0.75c0.17-0.18,0.39-0.27,0.65-0.27c0.24,0,0.42,0.05,0.54,0.14
			c0.13,0.08,0.28,0.23,0.44,0.45l5.67,7.38v-6.99c0-0.65,0.32-0.97,0.95-0.97c0.62,0,0.94,0.32,0.94,0.97v9.56
			c0,0.3-0.07,0.53-0.22,0.7c-0.15,0.17-0.35,0.25-0.6,0.25c-0.24,0-0.44-0.05-0.59-0.14c-0.14-0.1-0.29-0.25-0.46-0.46l-5.67-7.39
			v7.01C404.6,153.98,404.29,154.31,403.67,154.31z M415.64,154.31c-0.7,0-1.05-0.36-1.05-1.08v-9.19c0-0.72,0.36-1.08,1.08-1.08
			h5.54c0.55,0,0.83,0.27,0.83,0.8c0,0.55-0.28,0.83-0.83,0.83h-4.59v3.17h4.26c0.55,0,0.83,0.27,0.83,0.8
			c0,0.55-0.28,0.83-0.83,0.83h-4.26v3.86C416.63,153.95,416.3,154.31,415.64,154.31z M427.36,154.31c-0.68,0-1.02-0.35-1.02-1.05
			v-8.6h-3.1c-0.58,0-0.87-0.29-0.87-0.86c0-0.56,0.29-0.84,0.87-0.84h8.23c0.58,0,0.87,0.28,0.87,0.84c0,0.57-0.29,0.86-0.87,0.86
			h-3.1v8.6C428.38,153.96,428.04,154.31,427.36,154.31z"/>
	</g>
	<g>
		<path class="st2" d="M26.76,139.38c-0.61,0-0.92-0.32-0.92-0.96v-9.57c0-0.64,0.32-0.96,0.95-0.96c0.26,0,0.47,0.05,0.62,0.16
			c0.16,0.1,0.3,0.27,0.43,0.51l3.67,6.8l3.67-6.8c0.13-0.24,0.26-0.41,0.41-0.51c0.15-0.11,0.35-0.16,0.62-0.16
			c0.61,0,0.92,0.32,0.92,0.96v9.57c0,0.64-0.31,0.96-0.92,0.96c-0.61,0-0.92-0.32-0.92-0.96v-6.74l-2.99,5.46
			c-0.11,0.18-0.22,0.31-0.33,0.4c-0.12,0.08-0.28,0.13-0.48,0.13c-0.2,0-0.37-0.04-0.49-0.13c-0.13-0.1-0.24-0.23-0.33-0.4
			l-2.99-5.43v6.71C27.69,139.06,27.38,139.38,26.76,139.38z M40.4,129.87c-0.37,0-0.66-0.09-0.87-0.27c-0.2-0.19-0.3-0.45-0.3-0.78
			c0-0.34,0.1-0.6,0.3-0.78c0.21-0.18,0.5-0.27,0.87-0.27c0.78,0,1.18,0.35,1.18,1.05C41.57,129.51,41.18,129.87,40.4,129.87z
			 M40.4,139.36c-0.32,0-0.56-0.1-0.73-0.29c-0.17-0.19-0.25-0.46-0.25-0.8v-5.85c0-0.72,0.33-1.08,0.98-1.08c0.67,0,1,0.36,1,1.08
			v5.85c0,0.34-0.08,0.61-0.25,0.8C40.97,139.26,40.73,139.36,40.4,139.36z M44.45,139.38c-0.66,0-0.98-0.34-0.98-1.02v-6.02
			c0-0.67,0.32-1,0.97-1c0.65,0,0.97,0.33,0.97,1v0.33c0.26-0.45,0.62-0.79,1.06-1.02c0.46-0.23,0.96-0.35,1.53-0.35
			c1.83,0,2.75,1.07,2.75,3.2v3.86c0,0.68-0.33,1.02-0.98,1.02c-0.67,0-1-0.34-1-1.02v-3.76c0-0.61-0.12-1.05-0.35-1.32
			c-0.22-0.28-0.57-0.41-1.05-0.41c-0.58,0-1.05,0.19-1.4,0.56c-0.34,0.36-0.51,0.84-0.51,1.45v3.49
			C45.45,139.04,45.11,139.38,44.45,139.38z M56.31,139.41c-2.05,0-3.08-1.02-3.08-3.06v-3.39h-0.83c-0.53,0-0.79-0.25-0.79-0.75
			s0.26-0.75,0.79-0.75h0.83v-1.45c0-0.67,0.33-1,1-1c0.66,0,0.98,0.33,0.98,1v1.45h1.68c0.53,0,0.79,0.25,0.79,0.75
			s-0.26,0.75-0.79,0.75h-1.68v3.28c0,0.51,0.11,0.89,0.33,1.15c0.22,0.25,0.58,0.38,1.08,0.38c0.18,0,0.34-0.02,0.48-0.05
			c0.14-0.03,0.26-0.05,0.37-0.06c0.13-0.01,0.23,0.03,0.32,0.13c0.08,0.08,0.13,0.27,0.13,0.54c0,0.21-0.04,0.4-0.11,0.57
			c-0.06,0.16-0.19,0.27-0.37,0.33c-0.14,0.04-0.32,0.08-0.54,0.11C56.68,139.39,56.48,139.41,56.31,139.41z M10.26,156.18
			c-0.36,0-0.61-0.13-0.75-0.4c-0.14-0.27-0.13-0.57,0.02-0.91l0.91-2.01l-2.72-6.28c-0.15-0.35-0.15-0.66,0-0.92
			c0.15-0.27,0.44-0.4,0.87-0.4c0.24,0,0.44,0.06,0.59,0.18c0.15,0.11,0.28,0.31,0.4,0.62l1.91,4.78l1.95-4.79
			c0.12-0.3,0.25-0.5,0.41-0.61c0.16-0.12,0.37-0.18,0.64-0.18c0.34,0,0.58,0.13,0.71,0.4c0.14,0.27,0.13,0.57-0.02,0.91l-3.86,8.84
			c-0.14,0.3-0.29,0.5-0.44,0.61C10.72,156.13,10.51,156.18,10.26,156.18z M20.04,153.35c-0.8,0-1.5-0.16-2.1-0.49
			c-0.59-0.33-1.05-0.8-1.38-1.4c-0.33-0.62-0.49-1.34-0.49-2.17s0.16-1.55,0.49-2.15c0.33-0.61,0.79-1.07,1.38-1.4
			c0.59-0.33,1.29-0.49,2.1-0.49c0.8,0,1.5,0.16,2.1,0.49c0.59,0.33,1.05,0.8,1.38,1.4c0.33,0.61,0.49,1.32,0.49,2.15
			s-0.16,1.55-0.49,2.17c-0.33,0.61-0.79,1.07-1.38,1.4C21.54,153.18,20.85,153.35,20.04,153.35z M20.04,151.83
			c0.59,0,1.07-0.21,1.43-0.64c0.36-0.44,0.54-1.07,0.54-1.91c0-0.85-0.18-1.48-0.54-1.9c-0.36-0.43-0.84-0.64-1.43-0.64
			c-0.59,0-1.07,0.21-1.43,0.64c-0.36,0.41-0.54,1.05-0.54,1.9c0,0.84,0.18,1.48,0.54,1.91C18.97,151.62,19.45,151.83,20.04,151.83z
			 M28.46,153.35c-1.91,0-2.86-1.07-2.86-3.22v-3.86c0-0.67,0.33-1,0.98-1c0.67,0,1,0.33,1,1v3.89c0,0.55,0.11,0.96,0.33,1.23
			c0.22,0.27,0.58,0.4,1.06,0.4c0.53,0,0.96-0.18,1.3-0.54c0.34-0.37,0.51-0.86,0.51-1.47v-3.5c0-0.67,0.33-1,0.98-1
			c0.67,0,1,0.33,1,1v6.02c0,0.68-0.32,1.02-0.97,1.02c-0.65,0-0.97-0.34-0.97-1.02v-0.27C30.33,152.91,29.53,153.35,28.46,153.35z
			 M35.87,153.31c-0.68,0-1.02-0.34-1.02-1.02v-6.02c0-0.67,0.32-1,0.97-1s0.97,0.33,0.97,1v0.49c0.38-0.91,1.2-1.42,2.45-1.53
			c0.46-0.05,0.71,0.21,0.76,0.78c0.05,0.56-0.22,0.88-0.83,0.94l-0.35,0.03c-1.3,0.13-1.95,0.8-1.95,2.01v3.3
			C36.87,152.97,36.54,153.31,35.87,153.31z M46.53,153.31c-0.64,0-0.95-0.33-0.95-0.99v-9.48c0-0.33,0.08-0.58,0.24-0.75
			c0.17-0.18,0.39-0.27,0.65-0.27c0.24,0,0.42,0.05,0.54,0.14c0.13,0.08,0.28,0.23,0.44,0.45l5.67,7.38v-6.99
			c0-0.65,0.32-0.97,0.95-0.97c0.62,0,0.94,0.32,0.94,0.97v9.56c0,0.3-0.07,0.53-0.22,0.7c-0.15,0.17-0.35,0.25-0.6,0.25
			c-0.24,0-0.44-0.05-0.59-0.14c-0.14-0.1-0.29-0.25-0.46-0.46l-5.67-7.39v7.01C47.47,152.98,47.15,153.31,46.53,153.31z
			 M58.51,153.31c-0.7,0-1.05-0.36-1.05-1.08v-9.19c0-0.72,0.36-1.08,1.08-1.08h5.54c0.55,0,0.83,0.27,0.83,0.8
			c0,0.55-0.28,0.83-0.83,0.83h-4.59v3.17h4.26c0.55,0,0.83,0.27,0.83,0.8c0,0.55-0.28,0.83-0.83,0.83h-4.26v3.86
			C59.49,152.95,59.17,153.31,58.51,153.31z M70.22,153.31c-0.68,0-1.02-0.35-1.02-1.05v-8.6h-3.1c-0.58,0-0.87-0.29-0.87-0.86
			c0-0.56,0.29-0.84,0.87-0.84h8.23c0.58,0,0.87,0.28,0.87,0.84c0,0.57-0.29,0.86-0.87,0.86h-3.1v8.6
			C71.24,152.96,70.9,153.31,70.22,153.31z"/>
	</g>
	<g>
		<path class="st2" d="M517.04,184.41c-0.68,0-1.02-0.35-1.02-1.05v-9.27c0-0.69,0.34-1.04,1.03-1.04h3.83
			c1.23,0,2.18,0.3,2.84,0.89c0.67,0.58,1,1.41,1,2.47c0,0.84-0.22,1.53-0.65,2.09c-0.43,0.54-1.06,0.91-1.87,1.1
			c0.54,0.17,0.98,0.58,1.33,1.23l1.19,2.21c0.18,0.34,0.21,0.65,0.1,0.94c-0.11,0.29-0.38,0.43-0.81,0.43
			c-0.29,0-0.52-0.06-0.7-0.18c-0.18-0.13-0.34-0.32-0.48-0.57l-1.6-2.96c-0.19-0.36-0.42-0.6-0.68-0.72
			c-0.25-0.13-0.58-0.19-0.98-0.19h-1.51v3.57C518.06,184.06,517.72,184.41,517.04,184.41z M518.06,178.28h2.48
			c1.48,0,2.22-0.61,2.22-1.82c0-1.2-0.74-1.8-2.22-1.8h-2.48V178.28z M530.35,184.44c-0.88,0-1.64-0.17-2.27-0.49
			c-0.64-0.33-1.13-0.8-1.48-1.4c-0.34-0.61-0.51-1.32-0.51-2.15c0-0.81,0.16-1.51,0.49-2.12c0.34-0.61,0.8-1.08,1.38-1.42
			c0.59-0.35,1.27-0.53,2.02-0.53c1.1,0,1.97,0.35,2.61,1.05c0.65,0.7,0.97,1.66,0.97,2.87c0,0.39-0.25,0.59-0.76,0.59H528
			c0.15,1.39,0.94,2.09,2.38,2.09c0.28,0,0.58-0.03,0.92-0.1c0.35-0.07,0.68-0.2,0.98-0.37c0.28-0.16,0.51-0.21,0.7-0.14
			c0.19,0.05,0.32,0.16,0.4,0.33c0.09,0.17,0.1,0.36,0.03,0.57c-0.05,0.2-0.2,0.38-0.44,0.53c-0.37,0.23-0.8,0.41-1.29,0.53
			C531.21,184.39,530.77,184.44,530.35,184.44z M530.07,177.69c-0.58,0-1.05,0.18-1.41,0.54c-0.36,0.36-0.58,0.85-0.65,1.47h3.91
			c-0.04-0.65-0.22-1.14-0.54-1.48C531.06,177.87,530.63,177.69,530.07,177.69z M538.16,184.41c-0.53,0-0.92-0.28-1.18-0.84
			l-2.53-5.88c-0.15-0.35-0.15-0.66-0.02-0.92c0.15-0.27,0.44-0.4,0.87-0.4c0.24,0,0.44,0.06,0.59,0.18
			c0.15,0.11,0.28,0.31,0.4,0.62l1.91,4.78l1.97-4.79c0.12-0.3,0.25-0.5,0.4-0.61c0.16-0.12,0.37-0.18,0.64-0.18
			c0.34,0,0.58,0.13,0.71,0.4c0.14,0.26,0.13,0.57-0.02,0.91l-2.57,5.89C539.1,184.13,538.71,184.41,538.16,184.41z M544.38,174.9
			c-0.37,0-0.66-0.09-0.87-0.27c-0.2-0.19-0.3-0.45-0.3-0.78c0-0.34,0.1-0.6,0.3-0.78c0.21-0.18,0.5-0.27,0.87-0.27
			c0.78,0,1.18,0.35,1.18,1.05S545.16,174.9,544.38,174.9z M544.38,184.4c-0.32,0-0.56-0.1-0.73-0.29c-0.17-0.19-0.25-0.46-0.25-0.8
			v-5.85c0-0.72,0.33-1.08,0.98-1.08c0.67,0,1,0.36,1,1.08v5.85c0,0.34-0.09,0.61-0.25,0.8C544.95,184.3,544.7,184.4,544.38,184.4z
			 M551.27,184.44c-0.88,0-1.64-0.17-2.27-0.49c-0.64-0.33-1.13-0.8-1.48-1.4c-0.34-0.61-0.51-1.32-0.51-2.15
			c0-0.81,0.16-1.51,0.49-2.12c0.34-0.61,0.8-1.08,1.38-1.42c0.59-0.35,1.27-0.53,2.02-0.53c1.1,0,1.97,0.35,2.61,1.05
			c0.65,0.7,0.97,1.66,0.97,2.87c0,0.39-0.25,0.59-0.76,0.59h-4.8c0.15,1.39,0.94,2.09,2.38,2.09c0.28,0,0.58-0.03,0.92-0.1
			c0.35-0.07,0.68-0.2,0.98-0.37c0.28-0.16,0.51-0.21,0.7-0.14c0.19,0.05,0.32,0.16,0.4,0.33c0.08,0.17,0.1,0.36,0.03,0.57
			c-0.05,0.2-0.2,0.38-0.44,0.53c-0.37,0.23-0.8,0.41-1.29,0.53C552.13,184.39,551.68,184.44,551.27,184.44z M550.98,177.69
			c-0.58,0-1.05,0.18-1.41,0.54c-0.36,0.36-0.58,0.85-0.65,1.47h3.91c-0.04-0.65-0.22-1.14-0.54-1.48
			C551.98,177.87,551.54,177.69,550.98,177.69z M558.93,184.41c-0.55,0-0.93-0.28-1.14-0.83l-2.3-5.89
			c-0.14-0.37-0.13-0.68,0.02-0.94c0.16-0.25,0.43-0.38,0.83-0.38c0.23,0,0.42,0.06,0.57,0.18c0.15,0.11,0.28,0.31,0.38,0.62
			l1.75,4.79l1.8-4.92c0.17-0.45,0.47-0.67,0.91-0.67c0.44,0,0.75,0.22,0.91,0.67l1.8,4.97l1.76-4.89c0.11-0.29,0.24-0.48,0.4-0.59
			c0.17-0.11,0.35-0.16,0.56-0.16c0.38,0,0.63,0.14,0.75,0.41c0.12,0.26,0.11,0.57-0.03,0.91l-2.29,5.89
			c-0.22,0.55-0.6,0.83-1.14,0.83c-0.56,0-0.94-0.28-1.14-0.83l-1.62-4.32l-1.59,4.3C559.87,184.13,559.49,184.41,558.93,184.41z
			 M515.93,198.38c-0.56,0-1.06-0.11-1.51-0.32c-0.43-0.22-0.78-0.52-1.03-0.89c-0.24-0.37-0.37-0.79-0.37-1.26
			c0-0.57,0.15-1.03,0.44-1.35c0.3-0.34,0.78-0.58,1.45-0.73c0.67-0.15,1.56-0.22,2.68-0.22h0.56v-0.33c0-0.53-0.12-0.91-0.35-1.15
			c-0.23-0.23-0.62-0.35-1.18-0.35c-0.31,0-0.64,0.04-1,0.11c-0.35,0.07-0.72,0.2-1.11,0.38c-0.25,0.12-0.47,0.13-0.64,0.05
			c-0.17-0.1-0.29-0.24-0.35-0.43c-0.05-0.2-0.04-0.4,0.03-0.61c0.09-0.2,0.25-0.35,0.49-0.45c0.49-0.2,0.95-0.35,1.4-0.43
			c0.46-0.09,0.87-0.13,1.24-0.13c1.13,0,1.98,0.26,2.53,0.8c0.55,0.52,0.83,1.33,0.83,2.44v3.82c0,0.68-0.31,1.02-0.92,1.02
			c-0.62,0-0.94-0.34-0.94-1.02v-0.35c-0.18,0.44-0.47,0.78-0.86,1.04C516.93,198.26,516.47,198.38,515.93,198.38z M516.34,197.01
			c0.52,0,0.95-0.18,1.29-0.54c0.35-0.36,0.52-0.82,0.52-1.37v-0.35h-0.54c-0.99,0-1.69,0.08-2.08,0.24
			c-0.38,0.15-0.57,0.42-0.57,0.83c0,0.35,0.12,0.64,0.37,0.86C515.57,196.9,515.91,197.01,516.34,197.01z M523.04,198.35
			c-0.66,0-0.98-0.34-0.98-1.02v-6.02c0-0.67,0.32-1,0.97-1c0.65,0,0.97,0.33,0.97,1v0.33c0.27-0.45,0.62-0.79,1.06-1.02
			c0.46-0.23,0.96-0.35,1.53-0.35c1.83,0,2.75,1.07,2.75,3.2v3.86c0,0.68-0.33,1.02-0.98,1.02c-0.67,0-1-0.34-1-1.02v-3.76
			c0-0.61-0.12-1.05-0.35-1.32c-0.22-0.28-0.57-0.41-1.05-0.41c-0.58,0-1.05,0.19-1.4,0.56c-0.34,0.36-0.51,0.84-0.51,1.45v3.49
			C524.04,198.01,523.71,198.35,523.04,198.35z M534.34,198.38c-0.68,0-1.28-0.17-1.8-0.49c-0.51-0.33-0.91-0.8-1.19-1.4
			c-0.29-0.62-0.43-1.34-0.43-2.17c0-0.84,0.14-1.56,0.43-2.15c0.29-0.61,0.68-1.07,1.19-1.4c0.52-0.33,1.12-0.49,1.8-0.49
			c0.55,0,1.05,0.12,1.49,0.37c0.44,0.24,0.78,0.57,1,0.97v-3.74c0-0.67,0.33-1,0.98-1c0.67,0,1,0.33,1,1v9.46
			c0,0.68-0.33,1.02-0.98,1.02c-0.66,0-0.98-0.34-0.98-1.02V197c-0.22,0.42-0.56,0.76-1,1.02
			C535.4,198.26,534.9,198.38,534.34,198.38z M534.89,196.87c0.59,0,1.07-0.21,1.43-0.64c0.36-0.44,0.54-1.07,0.54-1.91
			c0-0.85-0.18-1.48-0.54-1.9c-0.36-0.43-0.84-0.64-1.43-0.64c-0.59,0-1.07,0.21-1.43,0.64c-0.36,0.41-0.54,1.05-0.54,1.9
			c0,0.84,0.18,1.48,0.54,1.91C533.82,196.66,534.3,196.87,534.89,196.87z M546.41,198.22c-0.69,0-1.03-0.35-1.03-1.05v-9.19
			c0-0.69,0.34-1.04,1.02-1.04s1.02,0.34,1.02,1.04v8.51h4.61c0.59,0,0.89,0.29,0.89,0.86c0,0.58-0.3,0.88-0.89,0.88H546.41z
			 M555.1,188.84c-0.37,0-0.66-0.09-0.87-0.27c-0.2-0.19-0.3-0.45-0.3-0.78c0-0.34,0.1-0.6,0.3-0.78c0.21-0.18,0.5-0.27,0.87-0.27
			c0.78,0,1.18,0.35,1.18,1.05S555.88,188.84,555.1,188.84z M555.1,198.34c-0.32,0-0.56-0.1-0.73-0.29
			c-0.17-0.19-0.25-0.46-0.25-0.8v-5.85c0-0.72,0.33-1.08,0.98-1.08c0.67,0,1,0.36,1,1.08v5.85c0,0.34-0.08,0.61-0.25,0.8
			C555.67,198.24,555.42,198.34,555.1,198.34z M561,198.38c-0.46,0-0.94-0.05-1.45-0.14c-0.51-0.1-0.96-0.26-1.37-0.49
			c-0.22-0.13-0.36-0.28-0.41-0.46c-0.05-0.19-0.05-0.37,0.02-0.53c0.07-0.17,0.19-0.29,0.35-0.37c0.17-0.07,0.37-0.06,0.59,0.05
			c0.42,0.2,0.82,0.34,1.19,0.43c0.37,0.07,0.74,0.11,1.1,0.11c0.51,0,0.88-0.09,1.13-0.25c0.25-0.18,0.38-0.41,0.38-0.7
			c0-0.45-0.33-0.73-0.99-0.86l-1.59-0.3c-1.35-0.25-2.02-0.96-2.02-2.1c0-0.51,0.14-0.95,0.41-1.32c0.29-0.37,0.68-0.66,1.18-0.86
			c0.5-0.2,1.07-0.3,1.72-0.3c0.93,0,1.76,0.21,2.49,0.62c0.2,0.11,0.32,0.25,0.35,0.45c0.04,0.18,0.02,0.36-0.06,0.53
			c-0.07,0.16-0.2,0.28-0.37,0.35c-0.17,0.06-0.37,0.04-0.59-0.06c-0.33-0.17-0.65-0.29-0.95-0.37c-0.3-0.07-0.58-0.11-0.86-0.11
			c-0.52,0-0.91,0.09-1.16,0.27c-0.24,0.18-0.37,0.42-0.37,0.72c0,0.47,0.3,0.75,0.91,0.86l1.59,0.3c0.69,0.13,1.21,0.36,1.56,0.7
			c0.36,0.34,0.54,0.8,0.54,1.37c0,0.77-0.3,1.39-0.91,1.83C562.82,198.17,562.01,198.38,561,198.38z M569.4,198.38
			c-2.05,0-3.08-1.02-3.08-3.06v-3.39h-0.83c-0.53,0-0.79-0.25-0.79-0.75c0-0.5,0.27-0.75,0.79-0.75h0.83v-1.45c0-0.67,0.33-1,1-1
			c0.66,0,0.98,0.33,0.98,1v1.45h1.68c0.53,0,0.79,0.25,0.79,0.75c0,0.5-0.27,0.75-0.79,0.75h-1.68v3.28c0,0.51,0.11,0.89,0.33,1.15
			c0.22,0.25,0.58,0.38,1.08,0.38c0.18,0,0.34-0.02,0.48-0.05c0.14-0.03,0.26-0.05,0.37-0.06c0.13-0.01,0.23,0.03,0.32,0.13
			c0.08,0.08,0.13,0.26,0.13,0.54c0,0.21-0.04,0.4-0.11,0.57c-0.06,0.16-0.19,0.27-0.37,0.33c-0.14,0.04-0.32,0.08-0.54,0.11
			C569.76,198.36,569.57,198.38,569.4,198.38z"/>
	</g>
	<g>
		<path class="st0" d="M389.8,120.16c-21.16,0-38.38-17.26-38.38-38.48S368.63,43.2,389.8,43.2c21.16,0,38.38,17.26,38.38,38.48
			S410.96,120.16,389.8,120.16z M389.8,47.16c-18.98,0-34.41,15.48-34.41,34.51s15.44,34.51,34.41,34.51
			c18.98,0,34.41-15.48,34.41-34.51S408.77,47.16,389.8,47.16z"/>
	</g>
	<g>
		<path class="st2" d="M400.88,77c-0.96,0-1.9,0.3-2.69,0.86c-0.79,0.56-1.38,1.35-1.7,2.26H376c-0.41,0-0.81,0.16-1.1,0.46
			c-0.29,0.29-0.46,0.69-0.46,1.1c0,0.41,0.16,0.81,0.46,1.1c0.29,0.29,0.69,0.46,1.1,0.46h20.49c0.28,0.81,0.79,1.52,1.45,2.07
			s1.46,0.89,2.31,1.01c0.85,0.12,1.71,0,2.5-0.34c0.78-0.34,1.46-0.89,1.95-1.59c0.49-0.7,0.78-1.53,0.84-2.38
			c0.06-0.86-0.12-1.71-0.52-2.47c-0.4-0.76-0.99-1.4-1.72-1.84C402.57,77.23,401.73,77,400.88,77z M400.88,83.24
			c-0.31,0-0.61-0.09-0.86-0.26c-0.26-0.17-0.46-0.41-0.57-0.7c-0.12-0.28-0.15-0.6-0.09-0.9c0.06-0.3,0.21-0.58,0.42-0.8
			c0.22-0.22,0.49-0.37,0.8-0.43c0.3-0.06,0.61-0.03,0.9,0.09c0.28,0.12,0.53,0.32,0.7,0.57c0.17,0.26,0.26,0.56,0.26,0.87
			c0,0.41-0.16,0.81-0.46,1.1C401.68,83.07,401.29,83.24,400.88,83.24z M376,73.88h1.83c0.33,0.9,0.92,1.68,1.71,2.23
			c0.78,0.55,1.72,0.85,2.68,0.85c0.96,0,1.89-0.3,2.68-0.85c0.79-0.55,1.38-1.33,1.71-2.23h17.38c0.41,0,0.81-0.16,1.1-0.46
			c0.29-0.29,0.45-0.69,0.45-1.1s-0.16-0.81-0.45-1.1c-0.29-0.29-0.69-0.46-1.1-0.46H386.6c-0.33-0.9-0.92-1.68-1.71-2.23
			c-0.78-0.55-1.72-0.85-2.68-0.85c-0.96,0-1.89,0.3-2.68,0.85c-0.78,0.55-1.38,1.33-1.71,2.23H376c-0.41,0-0.81,0.16-1.1,0.46
			c-0.29,0.29-0.46,0.69-0.46,1.1s0.16,0.81,0.46,1.1C375.19,73.72,375.58,73.88,376,73.88z M382.22,70.76
			c0.31,0,0.61,0.09,0.86,0.26c0.26,0.17,0.45,0.41,0.57,0.7c0.12,0.28,0.15,0.6,0.09,0.9c-0.06,0.3-0.21,0.58-0.43,0.8
			c-0.22,0.22-0.49,0.37-0.8,0.43c-0.3,0.06-0.61,0.03-0.9-0.09c-0.28-0.12-0.53-0.32-0.7-0.57c-0.17-0.26-0.26-0.56-0.26-0.87
			c0-0.41,0.16-0.81,0.46-1.1C381.41,70.93,381.8,70.76,382.22,70.76z M403.99,89.47h-11.16c-0.33-0.9-0.92-1.68-1.71-2.23
			c-0.78-0.55-1.72-0.85-2.68-0.85c-0.96,0-1.89,0.3-2.68,0.85c-0.78,0.55-1.38,1.33-1.71,2.23H376c-0.41,0-0.81,0.16-1.1,0.46
			c-0.29,0.29-0.46,0.69-0.46,1.1c0,0.41,0.16,0.81,0.46,1.1c0.29,0.29,0.69,0.46,1.1,0.46h8.05c0.33,0.9,0.92,1.68,1.71,2.23
			c0.78,0.55,1.72,0.85,2.68,0.85c0.96,0,1.89-0.3,2.68-0.85c0.78-0.55,1.38-1.33,1.71-2.23h11.16c0.41,0,0.81-0.16,1.1-0.46
			c0.29-0.29,0.45-0.69,0.45-1.1c0-0.41-0.16-0.81-0.45-1.1C404.79,89.64,404.4,89.47,403.99,89.47z M388.44,92.59
			c-0.31,0-0.61-0.09-0.86-0.26c-0.26-0.17-0.45-0.41-0.57-0.7c-0.12-0.28-0.15-0.6-0.09-0.9c0.06-0.3,0.21-0.58,0.43-0.8
			c0.22-0.22,0.49-0.37,0.8-0.43c0.3-0.06,0.61-0.03,0.9,0.09c0.28,0.12,0.53,0.32,0.7,0.57s0.26,0.56,0.26,0.87
			c0,0.41-0.16,0.81-0.46,1.1C389.24,92.43,388.85,92.59,388.44,92.59z"/>
	</g>
	<g>
		<ellipse class="st0" cx="369.32" cy="50.89" rx="10.24" ry="10.26"/>
	</g>
	<g>
		<path class="st3" d="M368.25,55.77c-0.48,0-0.96-0.05-1.43-0.14c-0.46-0.09-0.87-0.22-1.21-0.39c-0.29-0.14-0.49-0.31-0.61-0.52
			c-0.12-0.2-0.17-0.41-0.15-0.63c0.02-0.21,0.09-0.4,0.22-0.57c0.14-0.17,0.31-0.28,0.53-0.33c0.22-0.07,0.47-0.04,0.75,0.08
			c0.34,0.15,0.66,0.25,0.95,0.31c0.29,0.06,0.57,0.08,0.86,0.08c1,0,1.5-0.34,1.5-1.03c0-0.63-0.44-0.95-1.33-0.95h-0.75
			c-0.35,0-0.62-0.09-0.81-0.26c-0.19-0.18-0.28-0.43-0.28-0.75c0-0.33,0.09-0.58,0.28-0.75c0.18-0.18,0.45-0.26,0.81-0.26h0.5
			c0.4,0,0.71-0.08,0.93-0.25c0.23-0.17,0.35-0.41,0.35-0.72c0-0.62-0.43-0.93-1.29-0.93c-0.26,0-0.52,0.03-0.79,0.08
			c-0.27,0.06-0.56,0.15-0.86,0.29c-0.24,0.1-0.46,0.13-0.67,0.07c-0.19-0.06-0.36-0.16-0.49-0.32c-0.13-0.16-0.21-0.34-0.24-0.54
			c-0.03-0.21,0.01-0.41,0.11-0.6c0.1-0.2,0.28-0.36,0.53-0.49c0.8-0.4,1.68-0.6,2.66-0.6c1.09,0,1.95,0.24,2.56,0.72
			c0.61,0.47,0.92,1.13,0.92,1.98c0,0.5-0.13,0.94-0.38,1.32c-0.25,0.38-0.6,0.66-1.04,0.84c0.55,0.16,0.97,0.45,1.26,0.86
			c0.31,0.42,0.46,0.92,0.46,1.52c0,0.89-0.34,1.6-1.03,2.12C370.38,55.51,369.44,55.77,368.25,55.77z"/>
	</g>
	<g>
		<path class="st4" d="M292.71,140c-0.5,0-0.99,0-1.48-0.01c-0.55-0.01-0.98-0.46-0.98-1.01c0.01-0.55,0.47-1,1.01-0.98
			c0.48,0.01,0.97,0.01,1.45,0.01l0.51,0c0,0,0,0,0.01,0c0.55,0,0.99,0.44,0.99,0.99c0,0.55-0.44,0.99-0.99,1L292.71,140z
			 M298.17,139.84c-0.52,0-0.96-0.41-0.99-0.93c-0.03-0.55,0.38-1.02,0.93-1.05c0.65-0.04,1.3-0.09,1.95-0.14
			c0.54-0.03,1.02,0.36,1.07,0.91c0.04,0.55-0.36,1.02-0.91,1.07c-0.67,0.05-1.33,0.1-1.99,0.14
			C298.22,139.84,298.19,139.84,298.17,139.84z M286.3,139.78c-0.02,0-0.05,0-0.07,0c-0.67-0.05-1.33-0.1-2-0.16
			c-0.55-0.05-0.95-0.53-0.9-1.08c0.05-0.55,0.53-0.95,1.08-0.9c0.65,0.06,1.3,0.11,1.95,0.16c0.55,0.04,0.96,0.51,0.92,1.06
			C287.25,139.38,286.81,139.78,286.3,139.78z M305.08,139.17c-0.49,0-0.91-0.36-0.98-0.86c-0.07-0.54,0.31-1.04,0.85-1.12
			c0.65-0.09,1.29-0.18,1.94-0.28c0.55-0.08,1.05,0.29,1.13,0.83c0.08,0.54-0.29,1.05-0.83,1.13c-0.66,0.1-1.32,0.2-1.98,0.29
			C305.16,139.16,305.12,139.17,305.08,139.17z M279.4,139.02c-0.05,0-0.1,0-0.15-0.01c-0.66-0.1-1.32-0.2-1.98-0.31
			c-0.54-0.09-0.9-0.6-0.81-1.14c0.09-0.54,0.61-0.89,1.14-0.81c0.64,0.11,1.29,0.21,1.94,0.31c0.54,0.08,0.92,0.59,0.83,1.13
			C280.3,138.67,279.88,139.02,279.4,139.02z M311.91,137.98c-0.46,0-0.87-0.32-0.97-0.79c-0.11-0.54,0.23-1.06,0.76-1.18
			c0.64-0.13,1.28-0.28,1.92-0.43c0.53-0.12,1.07,0.21,1.19,0.74c0.12,0.53-0.21,1.07-0.74,1.19c-0.65,0.15-1.3,0.3-1.95,0.43
			C312.05,137.98,311.98,137.98,311.91,137.98z M272.58,137.75c-0.07,0-0.15-0.01-0.22-0.02c-0.65-0.15-1.3-0.3-1.95-0.46
			c-0.53-0.13-0.85-0.67-0.72-1.2c0.13-0.53,0.67-0.85,1.2-0.72c0.63,0.16,1.27,0.31,1.91,0.45c0.53,0.12,0.87,0.65,0.75,1.19
			C273.44,137.44,273.03,137.75,272.58,137.75z M318.65,136.31c-0.43,0-0.83-0.28-0.95-0.72c-0.15-0.53,0.15-1.08,0.68-1.23
			c0.63-0.18,1.25-0.37,1.88-0.56c0.53-0.16,1.08,0.13,1.24,0.66c0.16,0.52-0.13,1.08-0.66,1.24c-0.64,0.2-1.28,0.39-1.92,0.57
			C318.83,136.29,318.74,136.31,318.65,136.31z M265.87,135.96c-0.1,0-0.2-0.01-0.29-0.04c-0.64-0.2-1.28-0.4-1.91-0.61
			c-0.52-0.17-0.8-0.73-0.63-1.25c0.17-0.52,0.73-0.81,1.25-0.63c0.62,0.21,1.24,0.4,1.87,0.6c0.52,0.16,0.82,0.72,0.66,1.24
			C266.69,135.69,266.3,135.96,265.87,135.96z M325.24,134.16c-0.41,0-0.79-0.25-0.93-0.65c-0.19-0.51,0.08-1.08,0.59-1.27
			c0.61-0.22,1.22-0.45,1.84-0.69c0.51-0.2,1.08,0.06,1.28,0.57c0.2,0.51-0.06,1.08-0.57,1.28c-0.62,0.24-1.25,0.48-1.88,0.7
			C325.47,134.14,325.36,134.16,325.24,134.16z M331.68,131.58c-0.38,0-0.74-0.22-0.91-0.59c-0.22-0.5,0.01-1.09,0.51-1.31
			c0.6-0.26,1.19-0.53,1.79-0.81c0.5-0.23,1.09-0.01,1.31,0.49c0.23,0.5,0.01,1.09-0.49,1.31c-0.61,0.28-1.22,0.55-1.82,0.82
			C331.95,131.55,331.82,131.58,331.68,131.58z M337.94,128.58c-0.36,0-0.7-0.19-0.88-0.53c-0.25-0.49-0.06-1.08,0.42-1.34
			c0.58-0.3,1.16-0.61,1.74-0.92c0.48-0.26,1.08-0.08,1.34,0.4c0.26,0.48,0.08,1.08-0.4,1.34c-0.59,0.32-1.18,0.63-1.77,0.94
			C338.25,128.54,338.1,128.58,337.94,128.58z M344,125.2c-0.34,0-0.67-0.17-0.85-0.48c-0.28-0.47-0.13-1.08,0.34-1.36
			c0.56-0.33,1.12-0.68,1.68-1.02c0.47-0.29,1.08-0.14,1.37,0.32c0.29,0.47,0.14,1.08-0.32,1.37c-0.57,0.35-1.14,0.7-1.71,1.04
			C344.35,125.15,344.17,125.2,344,125.2z M349.85,121.47c-0.32,0-0.63-0.15-0.82-0.44c-0.31-0.45-0.19-1.07,0.27-1.38
			c0.54-0.37,1.08-0.74,1.62-1.12c0.45-0.31,1.07-0.21,1.38,0.24c0.31,0.45,0.2,1.07-0.24,1.38c-0.55,0.38-1.1,0.76-1.65,1.13
			C350.24,121.41,350.04,121.47,349.85,121.47z M203.85,84.38c-0.31,0-0.62-0.15-0.82-0.43c-0.3-0.43-0.6-0.86-0.9-1.28
			c-0.32-0.45-0.21-1.07,0.23-1.38c0.45-0.32,1.07-0.21,1.38,0.23c0.31,0.43,0.61,0.86,0.91,1.3c0.31,0.45,0.2,1.07-0.25,1.38
			C204.24,84.32,204.05,84.38,203.85,84.38z M539.48,80.53c-0.38,0-0.75-0.23-0.91-0.6c-0.24-0.56-0.49-1.12-0.74-1.68
			c-0.23-0.5,0-1.09,0.49-1.31c0.5-0.23,1.09-0.01,1.31,0.49c0.26,0.57,0.51,1.14,0.76,1.71c0.22,0.5-0.02,1.09-0.52,1.3
			C539.74,80.51,539.61,80.53,539.48,80.53z M199.98,79.12c-0.29,0-0.59-0.13-0.78-0.38c-0.41-0.52-0.81-1.03-1.22-1.54
			c-0.34-0.43-0.28-1.05,0.15-1.39c0.43-0.34,1.05-0.28,1.39,0.15c0.42,0.52,0.83,1.04,1.24,1.57c0.34,0.43,0.26,1.05-0.17,1.39
			C200.41,79.05,200.2,79.12,199.98,79.12z M536.57,74.38c-0.36,0-0.71-0.2-0.88-0.54c-0.3-0.58-0.61-1.16-0.92-1.73
			c-0.26-0.48-0.08-1.08,0.4-1.34c0.48-0.26,1.08-0.08,1.34,0.4c0.32,0.59,0.63,1.18,0.94,1.77c0.25,0.49,0.06,1.08-0.43,1.34
			C536.88,74.34,536.73,74.38,536.57,74.38z M195.55,73.78c-0.27,0-0.55-0.11-0.74-0.33c-0.44-0.49-0.88-0.98-1.32-1.46
			c-0.37-0.4-0.34-1.03,0.06-1.4c0.4-0.37,1.03-0.34,1.4,0.06c0.45,0.49,0.89,0.98,1.34,1.49c0.36,0.41,0.33,1.04-0.08,1.4
			C196.02,73.7,195.79,73.78,195.55,73.78z M190.79,68.74c-0.25,0-0.5-0.09-0.7-0.29c-0.47-0.46-0.94-0.92-1.41-1.37
			c-0.4-0.38-0.41-1.01-0.04-1.4c0.38-0.4,1-0.41,1.4-0.04c0.48,0.46,0.96,0.92,1.44,1.39c0.39,0.38,0.39,1.01,0.01,1.4
			C191.3,68.64,191.04,68.74,190.79,68.74z M533.17,68.33c-0.33,0-0.66-0.17-0.85-0.47c-0.34-0.56-0.69-1.11-1.04-1.66
			c-0.3-0.46-0.16-1.07,0.3-1.37c0.46-0.3,1.07-0.16,1.37,0.3c0.36,0.56,0.71,1.13,1.06,1.7c0.29,0.47,0.14,1.08-0.33,1.36
			C533.53,68.28,533.35,68.33,533.17,68.33z M185.69,64.04c-0.23,0-0.46-0.08-0.64-0.24c-0.5-0.43-1-0.85-1.5-1.26
			c-0.42-0.35-0.48-0.97-0.14-1.4c0.35-0.42,0.97-0.48,1.4-0.14c0.51,0.42,1.02,0.85,1.53,1.29c0.42,0.36,0.46,0.98,0.11,1.4
			C186.24,63.92,185.97,64.04,185.69,64.04z M529.34,62.55c-0.31,0-0.61-0.14-0.81-0.41c-0.38-0.53-0.77-1.06-1.16-1.58
			c-0.33-0.44-0.24-1.06,0.2-1.39c0.44-0.33,1.06-0.24,1.39,0.2c0.4,0.53,0.8,1.07,1.19,1.61c0.32,0.44,0.22,1.06-0.23,1.38
			C529.74,62.49,529.54,62.55,529.34,62.55z M81.88,60c-0.26,0-0.52-0.1-0.72-0.31c-0.38-0.4-0.36-1.02,0.03-1.4
			c0.48-0.46,0.98-0.92,1.5-1.37c0.41-0.36,1.04-0.32,1.4,0.09c0.36,0.41,0.32,1.04-0.09,1.4c-0.49,0.43-0.97,0.87-1.43,1.31
			C82.37,59.91,82.13,60,81.88,60z M180.25,59.72c-0.2,0-0.41-0.06-0.59-0.19c-0.53-0.39-1.06-0.77-1.59-1.15
			c-0.45-0.31-0.56-0.93-0.24-1.38c0.31-0.45,0.93-0.56,1.38-0.24c0.54,0.38,1.09,0.77,1.63,1.17c0.44,0.32,0.54,0.95,0.21,1.39
			C180.86,59.58,180.56,59.72,180.25,59.72z M525.07,57.08c-0.28,0-0.56-0.12-0.76-0.35c-0.42-0.5-0.85-1-1.28-1.48
			c-0.36-0.41-0.32-1.04,0.09-1.4c0.41-0.36,1.04-0.32,1.4,0.09c0.44,0.5,0.88,1.01,1.31,1.52c0.35,0.42,0.3,1.04-0.12,1.4
			C525.52,57,525.3,57.08,525.07,57.08z M174.51,55.83c-0.18,0-0.36-0.05-0.52-0.15c-0.56-0.35-1.12-0.69-1.68-1.02
			c-0.47-0.28-0.63-0.89-0.35-1.36c0.28-0.47,0.89-0.63,1.36-0.35c0.57,0.34,1.14,0.69,1.71,1.04c0.46,0.29,0.61,0.9,0.32,1.37
			C175.17,55.66,174.85,55.83,174.51,55.83z M87.24,55.6c-0.31,0-0.62-0.15-0.81-0.42c-0.32-0.45-0.21-1.07,0.23-1.38
			c0.54-0.39,1.1-0.77,1.67-1.14c0.46-0.3,1.07-0.17,1.37,0.28c0.3,0.46,0.17,1.07-0.28,1.37c-0.55,0.36-1.08,0.73-1.61,1.1
			C87.64,55.55,87.44,55.6,87.24,55.6z M168.49,52.4c-0.15,0-0.31-0.04-0.45-0.11c-0.58-0.3-1.17-0.59-1.75-0.88
			c-0.49-0.24-0.7-0.83-0.46-1.33c0.24-0.49,0.84-0.7,1.33-0.46c0.6,0.29,1.2,0.59,1.79,0.9c0.49,0.25,0.68,0.85,0.43,1.34
			C169.19,52.2,168.84,52.4,168.49,52.4z M520.39,51.95c-0.25,0-0.51-0.1-0.7-0.29c-0.46-0.46-0.92-0.92-1.39-1.37
			c-0.4-0.38-0.41-1.01-0.03-1.4c0.38-0.39,1.01-0.41,1.4-0.03c0.48,0.46,0.95,0.93,1.42,1.4c0.39,0.39,0.38,1.02-0.01,1.4
			C520.89,51.86,520.64,51.95,520.39,51.95z M93.13,51.94c-0.35,0-0.69-0.19-0.87-0.52c-0.26-0.48-0.08-1.08,0.4-1.34
			c0.58-0.32,1.18-0.63,1.78-0.94c0.49-0.25,1.09-0.05,1.33,0.44c0.25,0.49,0.05,1.08-0.44,1.33c-0.59,0.3-1.16,0.6-1.73,0.91
			C93.45,51.9,93.29,51.94,93.13,51.94z M162.2,49.46c-0.13,0-0.26-0.03-0.38-0.08c-0.6-0.25-1.21-0.5-1.82-0.73
			c-0.51-0.2-0.76-0.77-0.56-1.28c0.2-0.51,0.77-0.76,1.28-0.56c0.62,0.24,1.24,0.49,1.86,0.75c0.51,0.21,0.74,0.79,0.53,1.3
			C162.96,49.23,162.59,49.46,162.2,49.46z M99.39,48.95c-0.39,0-0.76-0.23-0.92-0.61c-0.21-0.51,0.03-1.09,0.53-1.3
			c0.61-0.26,1.24-0.51,1.87-0.75c0.51-0.2,1.08,0.06,1.28,0.57c0.2,0.51-0.06,1.08-0.57,1.28c-0.61,0.24-1.22,0.48-1.82,0.73
			C99.64,48.92,99.52,48.95,99.39,48.95z M515.31,47.24c-0.23,0-0.46-0.08-0.64-0.24c-0.5-0.42-1-0.84-1.5-1.25
			c-0.43-0.34-0.49-0.97-0.15-1.39c0.34-0.42,0.97-0.49,1.39-0.15c0.52,0.42,1.03,0.85,1.54,1.28c0.42,0.35,0.47,0.98,0.11,1.4
			C515.87,47.12,515.59,47.24,515.31,47.24z M155.69,47.06c-0.1,0-0.2-0.02-0.3-0.05c-0.62-0.2-1.25-0.4-1.87-0.58
			c-0.52-0.16-0.82-0.71-0.67-1.23c0.16-0.53,0.71-0.82,1.23-0.67c0.64,0.19,1.28,0.39,1.92,0.59c0.52,0.17,0.81,0.73,0.64,1.25
			C156.5,46.79,156.11,47.06,155.69,47.06z M105.91,46.59c-0.42,0-0.81-0.27-0.95-0.7c-0.16-0.52,0.13-1.08,0.65-1.24
			c0.64-0.2,1.28-0.39,1.93-0.57c0.53-0.15,1.07,0.16,1.22,0.69c0.15,0.53-0.16,1.07-0.69,1.22c-0.63,0.18-1.26,0.36-1.88,0.56
			C106.11,46.57,106.01,46.59,105.91,46.59z M423.91,45.5c-0.31,0-0.62-0.15-0.81-0.42c-0.32-0.45-0.21-1.07,0.23-1.38
			c0.55-0.39,1.1-0.77,1.64-1.14c0.45-0.31,1.07-0.19,1.38,0.26c0.31,0.45,0.19,1.07-0.26,1.38c-0.54,0.37-1.07,0.74-1.61,1.12
			C424.31,45.44,424.11,45.5,423.91,45.5z M149.01,45.2c-0.08,0-0.15-0.01-0.23-0.03c-0.64-0.15-1.28-0.29-1.91-0.42
			c-0.54-0.11-0.88-0.64-0.77-1.17c0.11-0.54,0.64-0.88,1.17-0.77c0.65,0.14,1.31,0.28,1.96,0.43c0.53,0.12,0.86,0.66,0.74,1.19
			C149.87,44.89,149.46,45.2,149.01,45.2z M112.62,44.83c-0.46,0-0.87-0.32-0.97-0.78c-0.12-0.54,0.23-1.06,0.76-1.18
			c0.65-0.14,1.31-0.27,1.97-0.4c0.54-0.11,1.06,0.25,1.16,0.79c0.1,0.54-0.25,1.06-0.79,1.16c-0.64,0.12-1.28,0.25-1.92,0.39
			C112.76,44.82,112.69,44.83,112.62,44.83z M142.2,43.9c-0.05,0-0.1,0-0.15-0.01c-0.65-0.1-1.3-0.18-1.94-0.26
			c-0.54-0.07-0.93-0.56-0.86-1.11c0.07-0.54,0.57-0.93,1.11-0.86c0.66,0.08,1.32,0.17,1.99,0.27c0.54,0.08,0.92,0.58,0.84,1.13
			C143.1,43.54,142.68,43.9,142.2,43.9z M119.46,43.66c-0.49,0-0.92-0.37-0.98-0.87c-0.07-0.54,0.32-1.04,0.86-1.11
			c0.66-0.08,1.33-0.16,1.99-0.23c0.54-0.05,1.03,0.34,1.09,0.88c0.06,0.54-0.34,1.03-0.88,1.09c-0.65,0.07-1.3,0.14-1.95,0.22
			C119.55,43.66,119.5,43.66,119.46,43.66z M135.3,43.17c-0.02,0-0.04,0-0.06,0c-0.65-0.04-1.31-0.08-1.96-0.1
			c-0.55-0.02-0.97-0.48-0.95-1.03c0.02-0.55,0.45-0.98,1.03-0.95c0.67,0.03,1.33,0.06,2,0.1c0.55,0.03,0.96,0.51,0.93,1.05
			C136.25,42.77,135.82,43.17,135.3,43.17z M126.38,43.08c-0.53,0-0.97-0.42-0.99-0.95c-0.02-0.55,0.4-1.01,0.95-1.03
			c0.67-0.03,1.33-0.05,2.01-0.06c0.53,0.01,1,0.42,1.01,0.97c0.01,0.55-0.42,1-0.97,1.01c-0.66,0.01-1.31,0.03-1.96,0.06
			C126.4,43.07,126.39,43.08,126.38,43.08z M509.85,42.98c-0.2,0-0.4-0.06-0.57-0.18c-0.53-0.38-1.07-0.75-1.6-1.11
			c-0.45-0.31-0.57-0.92-0.27-1.38c0.31-0.45,0.92-0.57,1.38-0.27c0.55,0.37,1.1,0.75,1.65,1.14c0.45,0.32,0.55,0.94,0.23,1.38
			C510.46,42.83,510.16,42.98,509.85,42.98z M429.7,41.67c-0.33,0-0.66-0.17-0.85-0.47c-0.29-0.47-0.14-1.08,0.33-1.36
			c0.57-0.35,1.15-0.69,1.72-1.03c0.47-0.27,1.08-0.12,1.36,0.36c0.28,0.47,0.12,1.08-0.36,1.36c-0.56,0.33-1.12,0.66-1.68,1.01
			C430.06,41.62,429.88,41.67,429.7,41.67z M504.03,39.22c-0.17,0-0.34-0.04-0.5-0.14c-0.56-0.33-1.13-0.65-1.7-0.96
			c-0.48-0.26-0.66-0.87-0.39-1.35c0.26-0.48,0.87-0.66,1.35-0.39c0.59,0.32,1.17,0.65,1.75,0.99c0.47,0.28,0.63,0.88,0.36,1.36
			C504.7,39.04,504.37,39.22,504.03,39.22z M435.75,38.27c-0.36,0-0.71-0.2-0.88-0.54c-0.25-0.49-0.06-1.08,0.43-1.33
			c0.6-0.31,1.2-0.6,1.8-0.89c0.5-0.24,1.09-0.03,1.32,0.46c0.24,0.49,0.03,1.09-0.46,1.32c-0.58,0.28-1.17,0.57-1.75,0.87
			C436.06,38.24,435.9,38.27,435.75,38.27z M497.88,36.02c-0.14,0-0.28-0.03-0.42-0.09c-0.59-0.27-1.19-0.54-1.78-0.79
			c-0.5-0.21-0.74-0.8-0.52-1.3c0.22-0.5,0.8-0.74,1.3-0.52c0.62,0.26,1.23,0.54,1.84,0.82c0.5,0.23,0.71,0.82,0.48,1.32
			C498.61,35.8,498.25,36.02,497.88,36.02z M442.05,35.36c-0.39,0-0.76-0.23-0.92-0.61c-0.21-0.51,0.03-1.09,0.54-1.29
			c0.62-0.26,1.24-0.5,1.87-0.74c0.51-0.2,1.09,0.06,1.28,0.57c0.2,0.51-0.06,1.08-0.57,1.28c-0.61,0.23-1.21,0.47-1.82,0.72
			C442.3,35.34,442.17,35.36,442.05,35.36z M491.45,33.42c-0.11,0-0.22-0.02-0.32-0.05c-0.61-0.21-1.23-0.42-1.86-0.61
			c-0.52-0.16-0.81-0.72-0.65-1.24c0.16-0.52,0.72-0.82,1.24-0.65c0.64,0.2,1.28,0.41,1.91,0.63c0.52,0.18,0.79,0.74,0.61,1.26
			C492.24,33.17,491.86,33.42,491.45,33.42z M448.57,33c-0.42,0-0.81-0.27-0.95-0.7c-0.16-0.52,0.13-1.08,0.65-1.24
			c0.64-0.2,1.28-0.39,1.92-0.57c0.53-0.15,1.08,0.16,1.22,0.68c0.15,0.53-0.16,1.08-0.68,1.22c-0.62,0.18-1.25,0.36-1.87,0.56
			C448.77,32.98,448.67,33,448.57,33z M484.79,31.49c-0.08,0-0.15-0.01-0.23-0.03c-0.63-0.15-1.27-0.29-1.91-0.42
			c-0.54-0.11-0.88-0.63-0.77-1.17c0.11-0.54,0.64-0.89,1.17-0.77c0.66,0.13,1.31,0.28,1.97,0.43c0.53,0.13,0.86,0.66,0.74,1.19
			C485.64,31.19,485.24,31.49,484.79,31.49z M455.28,31.24c-0.46,0-0.87-0.32-0.97-0.79c-0.11-0.54,0.23-1.06,0.76-1.18
			c0.66-0.14,1.32-0.27,1.97-0.39c0.54-0.09,1.06,0.26,1.15,0.8c0.1,0.54-0.26,1.05-0.8,1.15c-0.64,0.12-1.28,0.24-1.92,0.38
			C455.42,31.23,455.35,31.24,455.28,31.24z M477.96,30.26c-0.04,0-0.08,0-0.13-0.01c-0.65-0.08-1.29-0.16-1.95-0.22
			c-0.55-0.05-0.94-0.54-0.89-1.08c0.05-0.55,0.53-0.95,1.08-0.89c0.67,0.07,1.34,0.14,2.01,0.23c0.54,0.07,0.93,0.57,0.86,1.11
			C478.88,29.89,478.45,30.26,477.96,30.26z M462.13,30.13c-0.5,0-0.93-0.38-0.98-0.88c-0.06-0.54,0.33-1.03,0.88-1.09
			c0.67-0.07,1.34-0.14,2-0.19c0.55-0.05,1.02,0.36,1.07,0.91c0.04,0.55-0.36,1.02-0.91,1.07c-0.65,0.05-1.3,0.11-1.95,0.19
			C462.2,30.13,462.16,30.13,462.13,30.13z M471.04,29.74c-0.01,0-0.01,0-0.02,0c-0.49-0.01-0.98-0.02-1.47-0.02l-0.49,0
			c-0.52,0.01-0.99-0.43-1-0.98c0-0.55,0.43-1,0.98-1l0.5,0c0.5,0,1.01,0.01,1.51,0.02c0.55,0.01,0.98,0.47,0.97,1.01
			C472.01,29.31,471.57,29.74,471.04,29.74z"/>
	</g>
	<g>
		<path class="st4" d="M295.28,118.42c0.55,0,1.02,0.02,1.5-0.01c0.53-0.03,1.04-0.18,1.51-0.44c1.43-0.8,1.45-1.56,0.1-2.44
			c-0.95-0.62-1.93-1.16-3.02-1.48c-0.89-0.26-1.78-0.34-2.76-0.09c0.31-1.49,0.83-2.81,1.87-3.86c1.22-1.24,2.95-1.32,4.94-0.37
			c0.96,0.46,1.8,1.1,2.71,1.64c2.44,1.46,5.67,1.18,7.75-0.74c0.39-0.36,0.68-0.43,1.17-0.24c2.81,1.05,6.2-0.41,7.42-3.17
			c0.2-0.45,0.13-0.83-0.28-1.06c-0.41-0.23-0.76-0.07-1.05,0.32c-1.24,1.68-1.74,2.1-3.03,2.58c0.38-0.65,0.82-1.18,0.99-1.84
			c0.07-0.28,0.16-0.55,0.2-0.84c0.06-0.43-0.09-0.77-0.55-0.87c-0.47-0.1-0.8,0.08-0.92,0.56c-0.12,0.49-0.26,0.97-0.54,1.4
			c-0.74,1.15-2.06,1.41-3.16,0.6c-3.07-2.24-6.16-4.44-9.19-6.72c-3.8-2.87-9.09-1.91-11.85,2.47c-2.34,3.71-1.66,8.02,1.54,10.98
			c0.17,0.15,0.43,0.23,0.3,0.63c-0.78,2.26,0.1,4.08,1.6,5.7c0.28,0.3,0.59,0.57,0.91,0.81c0.55,0.41,0.95,0.32,1.33-0.24
			C295.45,120.7,295.52,119.6,295.28,118.42z"/>
	</g>
	<g>
		<path class="st5" d="M302.54,109.82c1.86,1.3,4.37,1.22,6.1-0.14c0.42-0.33,0.36-0.5-0.02-0.78c-2.41-1.74-4.81-3.49-7.2-5.26
			c-0.42-0.31-0.53-0.17-0.69,0.22C299.91,105.91,300.7,108.53,302.54,109.82z"/>
	</g>
	<g>
		<path class="st5" d="M299.29,107.98c-0.59-1.84-0.55-3.55,0.27-5.2c0.17-0.34,0.04-0.47-0.21-0.62c-0.88-0.53-1.83-0.8-2.85-0.87
			c-0.28-0.02-0.44,0.11-0.6,0.31c-1.37,1.69-1.07,4.41,0.63,5.77c0.12,0.09,0.22,0.18,0.38,0.18
			C297.7,107.54,298.45,107.76,299.29,107.98z"/>
	</g>
	<g>
		<path class="st5" d="M294.04,101.62c-1.41,0.76-2.83,1.28-3.23,2.94c-0.43,1.78,0.63,3.6,2.37,4.13c0.21,0.06,1.61-0.56,1.66-0.75
			c0.02-0.06-0.05-0.16-0.1-0.23C293.36,105.87,293.15,103.88,294.04,101.62z"/>
	</g>
	<g>
		<path class="st5" d="M291.19,113.14c0.29-0.96,0.6-1.84,1.09-2.65c0.18-0.29,0.15-0.44-0.18-0.59c-1.24-0.55-2.06-1.52-2.58-2.76
			C288.8,108.66,289.62,111.64,291.19,113.14z"/>
	</g>
	<g>
		<path class="st5" d="M293.79,120.19c0.19-0.89,0.01-1.58-0.31-2.23c-0.19-0.4-0.43-0.79-0.1-1.2c0.36-0.45,0.82-0.25,1.26-0.13
			c0.85,0.24,1.71,0.38,2.72,0.08c-1.13-0.76-2.21-1.32-3.48-1.37c-1.23-0.05-1.76,0.51-1.68,1.75
			C292.27,118.31,292.85,119.27,293.79,120.19z"/>
	</g>
	<g>
		<path class="st6" d="M303.2,107.13c-0.33,0.46-0.2,1.14,0.28,1.46c0.46,0.3,1.08,0.19,1.4-0.26c0.34-0.48,0.21-1.12-0.28-1.44
			C304.14,106.58,303.51,106.69,303.2,107.13z"/>
	</g>
	<g>
		<path class="st7" d="M118.29,88.59c0.59-0.14,1.19-0.26,1.78-0.41c0.22-0.06,0.52-0.02,0.58-0.34c0.05-0.29-0.18-0.42-0.38-0.56
			c-1.99-1.49-3.16-3.48-3.65-5.91c-0.43-2.13-0.16-4.15,0.74-6.11c0.13-0.28,0.46-0.55,0.19-0.88c-0.27-0.32-0.6-0.03-0.9,0.01
			c-5.99,0.83-9.83,4.6-12.88,9.46c-0.41,0.65-0.26,1.11,0.37,1.53c3.62,2.37,7.55,3.73,11.9,3.69c0.75-0.01,1.5-0.32,2.25-0.49
			C118.29,88.57,118.29,88.58,118.29,88.59z"/>
	</g>
	<g>
		<path class="st5" d="M120.1,74.97c0.26-0.37,0.47-0.49,0.98-0.38c2.9,0.64,5.62,1.69,8.11,3.33c0.76,0.5,0.79,0.96,0.35,1.7
			c-1.5,2.53-3.49,4.62-5.77,6.46c-0.4,0.32-0.68,0.38-1.15,0.11c-1.99-1.14-3.3-2.78-3.89-5.35
			C118.31,78.9,118.77,76.85,120.1,74.97z M122.32,79.91c0.1,0.81,0.58,0.85,1.24,0.7c0.68-0.16,0.81-0.52,0.67-1.16
			c-0.15-0.72-0.49-0.92-1.21-0.76C122.28,78.86,122.08,79.24,122.32,79.91z"/>
	</g>
	<g>
		<path class="st5" d="M97.26,83.52c0.1,0.23,0.17,0.47,0.3,0.66c0.77,1.06,1.01,2.23,0.83,3.52c-0.08,0.59-0.11,1.22,0.58,1.57
			c0.64,0.33,0.9-0.31,1.34-0.49c0.28-0.12,0.51-0.37,0.75-0.57c0.74-0.62,1.61-1.14,0.6-2.3c-0.35-0.4-0.52-1.23-0.37-1.74
			c0.37-1.19-0.33-1.34-1.14-1.49c-0.62-0.11-1.22-0.28-1.86-0.37C97.23,82.18,97.17,82.73,97.26,83.52z"/>
	</g>
	<g>
		<path class="st5" d="M116.87,72.08c-2.3-1.65-4.62-1.77-7.04-1.22c-0.64,0.15-0.93,0.6-0.6,1.18c0.38,0.65,1.11,1.04,1.42,1.77
			c0.09,0.22,0.23,0.02,0.36-0.04C112.79,72.85,114.75,72.59,116.87,72.08z"/>
	</g>
	<g>
		<path class="st7" d="M460.74,67.15c-0.22,3.31,1.27,6.32,3.74,8.83c1.92,1.96,4.68,1.69,6.36-0.49c2.12-2.75,4.79-4.93,7.22-7.36
			c1.65-1.65,3.35-3.25,5-4.9c1.83-1.83,1.23-4.69-1.22-6.52c-4.33-3.24-9.04-4.17-14.03-1.67
			C463.02,57.45,460.6,61.37,460.74,67.15z"/>
	</g>
	<g>
		<path class="st7" d="M475.57,72.88c0.53,1.21,0.47,2.95,2.45,3.27c1.25,0.2,2.05,0.81,2.14,2.33c0.09,1.4,0.94,2.48,2.49,2.76
			c1.2,0.22,2.04,0.86,2.02,2.19c-0.03,2.52,2.05,3.17,3.66,4.24c0.46,0.3,0.73,0.16,1.03-0.24c0.37-0.5-0.02-0.87-0.32-0.97
			c-2.3-0.73-2.36-3.19-3.58-4.52c-1.9-2.1-3.7-4.24-5.55-6.38c-0.93-1.08-2.99-1.21-3.08-3.3c-0.01-0.2-0.46-0.46-0.85-0.28
			C475.66,72.14,475.47,72.37,475.57,72.88z"/>
	</g>
	<g>
		<path class="st7" d="M478.42,69.51c2.34,0.55,3.26,2.28,4.1,4.15c0.26,0.57,0.84,0.96,1.65,0.97c1.51,0.02,2.49,0.69,2.68,2.39
			c0.08,0.71,0.61,1.59,1.35,1.73c2.32,0.45,4.16,1.42,5.12,3.72c0.12,0.29,0.59,0.46,0.84,0.15c0.18-0.22,0.29-0.74,0.16-0.93
			c-1-1.46-1.5-3.51-3.83-3.52c-0.24,0-0.63-0.02-0.71-0.16c-1.63-2.78-4.83-3.96-6.65-6.46C481.74,69.65,481.07,68.95,478.42,69.51
			z"/>
	</g>
	<g>
		<path class="st7" d="M471.59,76.29c0.31,1.58,1.02,2.97,2.64,3.3c1.35,0.28,1.81,0.85,1.83,2.19c0.02,1.46,2.94,4.76,4.31,5.02
			c0.25,0.05,0.61-0.18,0.85-0.36c0.57-0.42,0.04-0.75-0.21-0.95c-0.63-0.54-1.27-1.16-2.02-1.46c-1.13-0.44-1.55-1.11-1.44-2.29
			c0.13-1.33-0.61-2.32-1.66-2.93c-1.34-0.79-3.07-1.09-3.06-3.18c0-0.18-0.34-0.63-0.76-0.32
			C471.74,75.55,471.41,75.82,471.59,76.29z"/>
	</g>
	<g>
		<path class="st7" d="M493.06,74.8c0.09-2.49-2.12-5.24-4.23-5.27c-1.53-0.02-2.34-0.61-2.61-2.09c-0.17-0.96-0.64-1.72-1.65-2.03
			c-0.83-0.26-1.93-1.19-2.4-0.06c-0.44,1.07,0.83,0.96,1.57,1.13c0.36,0.08,0.83,0.45,0.91,0.78c0.55,2.2,1.57,3.34,4.12,3.49
			C490.79,70.86,491.14,73.79,493.06,74.8z"/>
	</g>
	<g>
		<path class="st4" d="M473.45,55.21c-4.82-0.51-9.27,3.35-10.92,7.59c-1.86,4.78,0.32,9.71,2.86,12.11
			c2.02,1.91,4.42,1.26,4.97-1.49c0.21-1.02,0.43-1.33,1.43-1.49c2.19-0.35,2.12-2.65,3.19-3.83c1.02-1.13,3.63-0.79,3.59-3.32
			c-0.02-1.34,1.01-1.11,1.73-1.32c2.55-0.75,3.18-2.95,1.35-4.91C479.42,56.18,476.7,54.96,473.45,55.21z"/>
	</g>
	<g>
		<path class="st7" d="M462.8,67.5c0,1.87,1.6,3.97,3.07,4.03c1.48,0.06,1.55-0.94,1.52-2.04c-0.05-2-1.63-4.71-2.81-4.56
			C463.19,65.13,462.69,66.16,462.8,67.5z"/>
	</g>
	<g>
		<path class="st8" d="M464.48,66.42c-0.39,1.73-0.12,2.93,1.64,3.68C465.88,68.67,465.73,67.44,464.48,66.42z"/>
	</g>
	<g>
		<path class="st2" d="M541.62,168.05c-21.16,0-38.38-17.26-38.38-38.48s17.22-38.48,38.38-38.48S580,108.36,580,129.57
			S562.78,168.05,541.62,168.05z M541.62,95.06c-18.98,0-34.41,15.48-34.41,34.51s15.44,34.51,34.41,34.51s34.41-15.48,34.41-34.51
			S560.6,95.06,541.62,95.06z"/>
	</g>
	<g>
		<ellipse class="st2" cx="553.36" cy="94.75" rx="10.24" ry="10.26"/>
	</g>
	<g>
		<path class="st3" d="M554.63,99.92c-0.39,0-0.7-0.11-0.92-0.32c-0.21-0.21-0.32-0.53-0.32-0.95v-0.5h-2.79
			c-0.41,0-0.73-0.09-0.96-0.28c-0.22-0.19-0.33-0.46-0.33-0.84c0-0.22,0.04-0.44,0.13-0.66c0.08-0.21,0.23-0.47,0.44-0.77
			l3.39-4.96c0.19-0.28,0.4-0.48,0.63-0.61s0.5-0.2,0.82-0.2c0.35,0,0.63,0.11,0.83,0.32c0.2,0.21,0.31,0.53,0.31,0.95v5.1h0.33
			c0.71,0,1.07,0.32,1.07,0.96c0,0.65-0.36,0.98-1.07,0.98h-0.33v0.5c0,0.41-0.11,0.72-0.32,0.95
			C555.32,99.81,555.02,99.92,554.63,99.92z M553.39,96.21v-2.72l-1.82,2.72H553.39z"/>
	</g>
	<g>
		<path class="st0" d="M56.15,35.16c-0.92,0.39-1.57,0.1-1.98-0.83l-5.34-12.66c-0.39-0.95-0.15-1.62,0.77-2
			c0.92-0.39,1.57-0.1,1.96,0.83l2.14,5.08l7.78-3.3l-2.14-5.08c-0.39-0.95-0.15-1.62,0.77-2c0.92-0.38,1.57-0.12,1.96,0.83
			l5.34,12.66c0.39,0.95,0.15,1.62-0.77,2c-0.92,0.39-1.57,0.1-1.96-0.83l-2.21-5.3l-7.78,3.3l2.23,5.28
			C57.33,34.11,57.07,34.77,56.15,35.16z"/>
	</g>
	<g>
		<path class="st0" d="M75.79,27.52c-1.12,0.38-2.17,0.48-3.14,0.29c-0.97-0.18-1.83-0.61-2.58-1.31c-0.74-0.7-1.31-1.62-1.69-2.77
			c-0.38-1.15-0.49-2.22-0.32-3.22c0.17-1.01,0.6-1.85,1.27-2.6c0.67-0.73,1.57-1.28,2.68-1.66c1.12-0.38,2.17-0.48,3.14-0.29
			c0.97,0.18,1.83,0.61,2.58,1.3c0.74,0.69,1.3,1.6,1.69,2.76c0.39,1.15,0.49,2.23,0.32,3.22c-0.17,1.01-0.6,1.87-1.27,2.61
			C77.8,26.58,76.91,27.14,75.79,27.52z M75.09,25.42c0.83-0.28,1.38-0.8,1.69-1.56c0.31-0.76,0.25-1.74-0.13-2.9
			c-0.39-1.18-0.95-1.98-1.63-2.39c-0.7-0.41-1.46-0.48-2.28-0.2c-0.83,0.28-1.38,0.79-1.69,1.55c-0.31,0.76-0.26,1.72,0.13,2.9
			c0.39,1.17,0.93,1.97,1.63,2.39C73.51,25.62,74.27,25.69,75.09,25.42z"/>
	</g>
	<g>
		<path class="st0" d="M87.29,23.94c-0.79,0.19-1.43-0.06-1.92-0.77l-5.34-7.57c-0.32-0.48-0.42-0.93-0.29-1.34
			c0.13-0.41,0.48-0.7,1.03-0.83c0.33-0.09,0.63-0.07,0.87,0.04c0.25,0.1,0.51,0.36,0.76,0.76l4.16,6.22l0.84-7.63
			c0.09-0.7,0.44-1.12,1.06-1.27c0.63-0.16,1.14,0.06,1.53,0.63l4.29,6.45l0.8-7.57c0.06-0.44,0.17-0.77,0.36-0.98
			c0.2-0.2,0.44-0.35,0.73-0.42c0.54-0.13,0.95-0.03,1.21,0.32c0.26,0.35,0.35,0.79,0.28,1.31l-1.19,9.19
			c-0.12,0.86-0.57,1.39-1.34,1.58c-0.8,0.19-1.44-0.06-1.92-0.77L89.4,15.7l-0.76,6.68C88.53,23.21,88.09,23.75,87.29,23.94z"/>
	</g>
	<g>
		<path class="st0" d="M113.34,18.95c-2.98,0.39-4.67-0.88-5.06-3.84l-0.65-4.93l-1.21,0.15c-0.77,0.1-1.21-0.2-1.29-0.93
			c-0.1-0.73,0.25-1.14,1-1.24L107.33,8l-0.28-2.1c-0.13-0.98,0.29-1.52,1.27-1.65c0.96-0.13,1.5,0.29,1.63,1.27l0.28,2.1l2.44-0.32
			c0.77-0.1,1.21,0.2,1.29,0.93c0.09,0.73-0.25,1.14-1,1.24l-2.46,0.32l0.64,4.77c0.1,0.74,0.33,1.27,0.71,1.6
			c0.38,0.34,0.92,0.44,1.64,0.35c0.26-0.03,0.49-0.09,0.68-0.16c0.19-0.07,0.36-0.13,0.52-0.16c0.17-0.04,0.35,0,0.48,0.12
			c0.15,0.12,0.23,0.38,0.29,0.77c0.04,0.31,0.03,0.58-0.04,0.85c-0.07,0.25-0.23,0.44-0.48,0.57c-0.19,0.09-0.45,0.18-0.76,0.28
			C113.86,18.85,113.58,18.91,113.34,18.95z"/>
	</g>
	<g>
		<path class="st0" d="M121.82,18.14c-1.18,0.09-2.21-0.07-3.11-0.5c-0.9-0.42-1.63-1.05-2.17-1.91c-0.54-0.86-0.86-1.9-0.95-3.11
			c-0.09-1.21,0.07-2.28,0.48-3.2s1.03-1.65,1.86-2.2c0.83-0.54,1.83-0.86,3.01-0.95c1.18-0.09,2.21,0.07,3.11,0.5
			c0.9,0.42,1.63,1.05,2.17,1.9c0.55,0.85,0.86,1.88,0.95,3.09c0.09,1.21-0.07,2.28-0.48,3.21c-0.42,0.93-1.03,1.66-1.86,2.22
			C124,17.73,123,18.05,121.82,18.14z M121.66,15.92c0.87-0.06,1.54-0.42,2.02-1.09c0.48-0.67,0.67-1.62,0.58-2.85
			c-0.09-1.24-0.42-2.14-0.99-2.73c-0.57-0.57-1.29-0.83-2.15-0.76c-0.87,0.06-1.54,0.42-2.02,1.08c-0.48,0.66-0.67,1.61-0.58,2.85
			c0.09,1.23,0.42,2.13,0.99,2.73C120.06,15.71,120.79,15.98,121.66,15.92z"/>
	</g>
	<g>
		<path class="st0" d="M141.8,17.76c-1.03-0.04-2.05-0.19-3.03-0.45c-0.98-0.26-1.82-0.64-2.53-1.14c-0.35-0.25-0.55-0.54-0.63-0.89
			c-0.07-0.35-0.03-0.67,0.12-0.96c0.15-0.29,0.36-0.5,0.66-0.61c0.29-0.1,0.61-0.03,0.98,0.2c0.67,0.42,1.38,0.74,2.12,0.96
			c0.74,0.22,1.54,0.34,2.39,0.36c1.22,0.04,2.12-0.13,2.69-0.53c0.57-0.39,0.87-0.92,0.9-1.56c0.01-0.54-0.16-0.98-0.55-1.3
			c-0.38-0.32-1.05-0.61-2.01-0.85l-2.55-0.63c-2.9-0.73-4.29-2.28-4.22-4.65c0.04-1.02,0.33-1.91,0.92-2.66
			c0.57-0.74,1.34-1.31,2.31-1.69c0.98-0.38,2.1-0.55,3.35-0.51c0.93,0.03,1.8,0.18,2.63,0.45c0.83,0.26,1.57,0.63,2.23,1.11
			c0.31,0.23,0.48,0.51,0.52,0.83c0.04,0.32,0,0.61-0.15,0.88c-0.14,0.26-0.38,0.45-0.68,0.54c-0.31,0.09-0.66,0.01-1.05-0.23
			c-0.57-0.35-1.14-0.6-1.72-0.76c-0.58-0.16-1.22-0.25-1.91-0.28c-1.08-0.04-1.92,0.16-2.53,0.58c-0.61,0.42-0.95,1.01-0.98,1.74
			c-0.01,0.55,0.14,1.01,0.51,1.36c0.36,0.35,0.99,0.63,1.88,0.85l2.52,0.63c1.53,0.38,2.65,0.93,3.38,1.66
			c0.73,0.73,1.08,1.68,1.03,2.85c-0.03,0.98-0.33,1.84-0.89,2.57c-0.55,0.73-1.32,1.28-2.31,1.66
			C144.27,17.64,143.12,17.8,141.8,17.76z"/>
	</g>
	<g>
		<path class="st0" d="M155.84,18.81c-1.28-0.15-2.36-0.5-3.23-1.08c-0.87-0.58-1.51-1.34-1.92-2.28c-0.41-0.93-0.54-2.01-0.41-3.21
			c0.13-1.18,0.48-2.17,1.06-3.01c0.58-0.83,1.32-1.44,2.24-1.85c0.92-0.41,1.92-0.55,3.01-0.44c1.6,0.18,2.82,0.83,3.64,1.96
			c0.82,1.12,1.13,2.57,0.95,4.33c-0.06,0.57-0.47,0.82-1.21,0.74l-6.99-0.77c0,2.06,1.05,3.2,3.14,3.41c0.41,0.04,0.86,0.04,1.37,0
			c0.51-0.04,1-0.16,1.48-0.36c0.42-0.19,0.77-0.22,1.05-0.1c0.28,0.12,0.45,0.31,0.54,0.57c0.09,0.26,0.07,0.54-0.04,0.83
			c-0.12,0.29-0.36,0.53-0.74,0.7c-0.58,0.28-1.22,0.47-1.95,0.55C157.09,18.87,156.44,18.88,155.84,18.81z M156.49,8.93
			c-0.84-0.09-1.57,0.1-2.14,0.57c-0.58,0.47-0.98,1.15-1.18,2.03l5.69,0.63c0.04-0.95-0.15-1.71-0.54-2.26
			C157.92,9.34,157.31,9.02,156.49,8.93z"/>
	</g>
	<g>
		<path class="st0" d="M166.36,20.31c-2.56-0.42-3.61-2.06-3.14-4.93l1.78-10.9c0.16-0.96,0.71-1.37,1.66-1.23
			c0.96,0.16,1.37,0.71,1.21,1.69l-1.75,10.75c-0.22,1.39,0.23,2.17,1.38,2.35c0.12,0.01,0.23,0.03,0.35,0.04
			c0.12,0.01,0.22,0.01,0.33,0.01c0.22,0,0.35,0.09,0.41,0.25c0.06,0.16,0.04,0.47-0.03,0.9c-0.06,0.38-0.19,0.67-0.38,0.86
			c-0.19,0.19-0.47,0.28-0.83,0.26C167.03,20.4,166.69,20.37,166.36,20.31z"/>
	</g>
	<g>
		<path class="st0" d="M173.5,21.7c-2.55-0.51-3.52-2.2-2.94-5.05l2.18-10.83c0.19-0.96,0.76-1.34,1.7-1.15
			c0.96,0.19,1.34,0.77,1.15,1.74l-2.15,10.68c-0.28,1.37,0.16,2.17,1.29,2.41c0.12,0.03,0.23,0.04,0.35,0.06
			c0.12,0.01,0.22,0.03,0.32,0.03c0.22,0.01,0.35,0.1,0.39,0.26s0.03,0.47-0.06,0.9c-0.07,0.38-0.22,0.67-0.41,0.85
			c-0.19,0.18-0.47,0.26-0.83,0.23C174.17,21.8,173.84,21.76,173.5,21.7z"/>
	</g>
	<g>
		<path class="st2" d="M51.5,85.54c-0.25-0.29-0.4-0.66-0.4-1.05c0-0.39,0.14-0.76,0.4-1.05l2.03-2.29c0.22-0.25,0.36-0.57,0.4-0.9
			s-0.04-0.67-0.21-0.96l-3.18-5.51c-0.17-0.29-0.42-0.52-0.73-0.66c-0.31-0.14-0.65-0.17-0.97-0.11l-2.99,0.61
			c-0.38,0.08-0.78,0.02-1.11-0.18c-0.34-0.19-0.59-0.5-0.71-0.87l-0.97-2.91c-0.11-0.32-0.31-0.59-0.58-0.79
			c-0.27-0.19-0.6-0.3-0.93-0.3H35.2c-0.35-0.02-0.69,0.08-0.98,0.27c-0.29,0.2-0.5,0.48-0.61,0.81l-0.89,2.91
			c-0.12,0.37-0.38,0.68-0.71,0.87c-0.34,0.19-0.73,0.26-1.11,0.18L27.83,73c-0.31-0.04-0.63,0.01-0.91,0.14
			c-0.28,0.14-0.52,0.35-0.68,0.62l-3.18,5.51c-0.17,0.29-0.25,0.62-0.22,0.96c0.03,0.33,0.16,0.65,0.38,0.91l2.02,2.29
			c0.25,0.29,0.4,0.66,0.4,1.05c0,0.39-0.14,0.76-0.4,1.05l-2.02,2.29c-0.22,0.25-0.35,0.57-0.38,0.91
			c-0.03,0.33,0.05,0.67,0.22,0.96l3.18,5.51c0.17,0.29,0.42,0.52,0.73,0.66c0.31,0.14,0.65,0.17,0.97,0.11l2.99-0.61
			c0.38-0.08,0.78-0.02,1.11,0.18c0.34,0.19,0.59,0.5,0.71,0.87l0.97,2.91c0.11,0.33,0.33,0.61,0.61,0.81
			c0.29,0.2,0.63,0.29,0.98,0.27h6.35c0.33,0,0.66-0.1,0.93-0.3s0.47-0.47,0.58-0.79l0.97-2.91c0.12-0.37,0.38-0.68,0.71-0.87
			c0.34-0.19,0.73-0.26,1.11-0.18l2.99,0.61c0.33,0.07,0.67,0.03,0.97-0.11c0.31-0.14,0.56-0.37,0.73-0.66l3.18-5.51
			c0.17-0.29,0.24-0.63,0.21-0.96c-0.03-0.33-0.17-0.65-0.4-0.9L51.5,85.54z M49.13,87.67l1.27,1.43l-2.03,3.54l-1.87-0.38
			c-1.14-0.23-2.33-0.04-3.34,0.55c-1.01,0.59-1.77,1.53-2.14,2.64l-0.6,1.78h-4.07l-0.57-1.82c-0.37-1.11-1.13-2.05-2.14-2.64
			c-1.01-0.59-2.2-0.78-3.34-0.55l-1.87,0.38l-2.07-3.52l1.27-1.43c0.78-0.88,1.21-2.01,1.21-3.19c0-1.18-0.43-2.31-1.21-3.19
			l-1.27-1.43l2.03-3.5l1.87,0.38c1.14,0.23,2.33,0.04,3.34-0.55c1.01-0.59,1.77-1.53,2.14-2.64l0.6-1.8h4.07l0.6,1.82
			c0.37,1.11,1.13,2.05,2.14,2.64c1.01,0.59,2.2,0.78,3.34,0.55l1.87-0.38l2.03,3.54l-1.27,1.43c-0.77,0.87-1.2,2-1.2,3.17
			C47.93,85.67,48.36,86.8,49.13,87.67z M38.38,78.12c-1.26,0-2.49,0.37-3.53,1.07c-1.04,0.7-1.86,1.7-2.34,2.86
			c-0.48,1.16-0.61,2.45-0.36,3.68c0.25,1.24,0.85,2.37,1.74,3.26c0.89,0.89,2.02,1.5,3.25,1.74c1.23,0.25,2.51,0.12,3.67-0.36
			c1.16-0.48,2.15-1.3,2.85-2.35c0.7-1.05,1.07-2.28,1.07-3.54c0-1.69-0.67-3.31-1.86-4.51C41.68,78.79,40.06,78.12,38.38,78.12z
			 M38.38,87.67c-0.63,0-1.24-0.19-1.77-0.54c-0.52-0.35-0.93-0.85-1.17-1.43c-0.24-0.58-0.3-1.22-0.18-1.84
			c0.12-0.62,0.43-1.19,0.87-1.63c0.44-0.45,1.01-0.75,1.63-0.87c0.62-0.12,1.26-0.06,1.84,0.18c0.58,0.24,1.08,0.65,1.43,1.17
			c0.35,0.52,0.54,1.14,0.54,1.77c0,0.84-0.33,1.66-0.93,2.25C40.03,87.34,39.22,87.67,38.38,87.67z"/>
	</g>
</g>
</svg>
