<svg width="98" height="100" viewBox="0 0 98 100" fill="none" xmlns="http://www.w3.org/2000/svg">
<path d="M54.5626 16.6869C45.3878 15.1449 37.1495 17.6548 30.0101 23.3076C24.1522 27.9456 20.3949 34.096 19.1755 41.6295C18.3982 46.448 18.812 51.2282 20.8368 55.5806C25.4773 65.5557 32.5667 73.4676 42.2532 78.8184C50.8231 83.5485 60.0483 85.9002 69.8826 85.777C71.2902 85.7605 72.1125 85.2147 72.8068 84.0366C74.6334 80.9535 76.255 77.7613 77.3869 74.3779C82.407 59.3655 81.6976 44.7891 73.3087 29.8405C69.6794 22.9879 63.3287 18.1614 54.5626 16.6869ZM74.3253 52.9034C74.9483 62.0272 72.9365 70.6344 68.7349 78.757C68.3477 79.5066 68.1146 79.6364 67.2769 79.5892C53.4775 78.8453 41.8502 73.6055 32.7272 63.0904C32.0655 62.3302 31.417 61.5435 30.8715 60.6972C30.062 59.4347 29.3551 58.1035 28.5013 56.6248C25.5398 52.3819 24.4777 47.5542 25.3168 42.2024C26.0936 37.2515 28.3963 33.031 31.9692 29.8449C37.5284 24.8864 44.016 21.7001 51.8316 22.4722C58.6555 23.1439 63.8187 26.3242 67.4718 32.2247C71.4188 38.6095 73.8197 45.4605 74.3253 52.9034Z" fill="#23ACDB"/>
<path d="M26.0817 6.32405C19.5461 10.0263 18.0111 19.7468 22.4317 25.5976C28.3433 18.9427 35.6822 14.7436 44.373 12.9108C41.603 6.15923 32.3523 2.7701 26.0817 6.32405ZM26.448 17.236C25.4501 17.7979 24.8515 17.5985 24.2857 16.6266C23.689 15.6014 23.6709 14.8393 24.8376 14.3647C25.8992 13.5765 26.5574 13.9121 27.1658 14.9495C27.8214 16.0687 27.4651 16.6582 26.448 17.236ZM34.9576 12.323C33.9476 12.8967 33.3676 12.6391 32.8013 11.6911C32.1817 10.6507 32.2512 9.90916 33.4163 9.40709C34.4535 8.64239 35.0977 9.01931 35.6999 10.046C36.3653 11.1738 35.9606 11.7534 34.9576 12.323Z" fill="#9A2688"/>
<path d="M57.3337 13.2861C63.8084 7.77066 70.2336 9.91897 76.3756 14.302C80.3909 17.1686 83.4983 21.024 85.9034 25.4033C86.6241 26.7171 86.7082 27.7823 85.3023 28.4091C83.4127 29.2489 81.7279 30.468 79.7374 31.1576C78.4727 31.5939 78.1247 31.1882 77.6313 30.2597C75.6563 26.5516 73.5153 22.9582 70.2924 20.1506C66.5712 16.9151 62.2911 14.7226 57.3337 13.2861Z" fill="#9A2688"/>
<path d="M16.242 36.9913C15.08 42.2026 14.7905 47.275 15.9686 52.4433C16.8664 56.3705 18.8519 59.7029 20.8489 63.0714C21.3972 63.9966 21.5751 64.51 20.5362 65.3373C18.7444 66.7652 16.7601 67.835 14.8179 68.9942C14.0066 69.4768 13.4097 69.2148 12.9502 68.4516C8.81751 61.6384 6.45781 54.4319 7.98069 46.3487C8.86198 41.6692 11.6123 38.6263 16.242 36.9913Z" fill="#9A2688"/>
<path d="M37.1407 80.1016C35.8804 85.8814 37.2436 90.976 40.0029 95.7717C40.9043 97.3413 42.1573 97.2293 43.2159 96.4854C46.7853 93.9744 50.1074 91.1748 52.0606 86.8907C46.6927 85.5395 41.8996 82.9181 37.1407 80.1016Z" fill="#9A2688"/>
<path d="M84.1902 52.8904C84.4561 58.5143 84.0409 63.9437 82.7072 69.2351C87.2395 69.6563 91.3495 68.2787 95.3049 66.379C96.4845 65.8117 97.3332 64.9093 96.4056 63.3027C93.6146 58.4685 89.9187 54.7349 84.1902 52.8904Z" fill="#9A2688"/>
<path d="M76.2687 85.6729C76.996 88.3527 77.2473 90.6104 77.2299 92.8623C77.2208 94.0287 76.194 94.5978 75.1842 93.9817C73.4705 92.9426 71.8766 91.6923 70.2944 90.454C69.8698 90.1209 69.5686 89.4844 70.6315 89.4537C73.0713 89.3863 74.7393 88.0394 76.2687 85.6729Z" fill="#9A2688"/>
<path d="M58.6743 59.181C57.614 60.0206 56.3799 60.6905 55.1324 61.2306C53.4084 61.9795 52.5238 63.1727 52.2286 65.0256C51.8973 67.1032 51.351 69.1533 50.8673 71.205C50.7369 71.759 50.5892 72.086 51.3658 72.3722C55.8502 74.0155 60.4127 75.2771 65.1807 75.7945C66.1857 75.9015 66.2477 75.4344 66.5458 74.7931C68.636 70.3114 69.7221 65.5515 70.5176 60.6988C68.308 59.9745 66.2103 59.3704 64.1796 58.5949C62.2055 57.8436 60.4423 57.7858 58.6743 59.181Z" fill="#435EA6"/>
<path d="M50.9998 26.1189C46.0857 25.956 41.7235 27.266 37.6401 30.0358C34.6627 32.0534 32.4997 34.6198 30.6866 37.6524C29.8311 39.0848 30.2578 39.4545 31.6353 39.7635C33.3634 40.1544 35.1594 40.4824 36.7379 41.2299C39.927 42.7394 42.8222 42.8452 44.8725 40.6993C47.6211 38.975 50.3081 38.2768 50.461 35.0036C50.5801 32.4845 51.4787 30.0842 52.1292 27.6564C52.4302 26.5442 52.3817 26.1647 50.9998 26.1189Z" fill="#435EA6"/>
<path d="M47.0562 43.0363C44.2549 44.7105 43.1896 46.354 43.11 49.746C43.0199 53.637 44.026 55.7244 47.5732 57.5011C50.5479 58.9923 52.8706 59.9452 55.2957 57.1516C58.9246 56.3693 59.279 53.9703 59.4472 50.7073C59.6538 46.7964 58.5091 44.7891 55.0231 42.9296C51.9852 41.3043 49.962 41.297 47.0562 43.0363Z" fill="#435EA6"/>
<path d="M30.6356 43.2786C28.925 42.6881 28.722 43.4119 28.7117 44.8634C28.6813 48.8004 29.7865 52.3236 32.0242 55.5673C33.9375 58.3394 33.8563 58.3958 37.0057 56.5775C39.3029 56.0333 39.7579 54.1781 39.5069 51.7732C39.3474 50.2492 39.5496 48.6868 39.5764 47.1406C39.5901 46.4502 39.5144 45.9251 38.6173 45.6848C35.9337 44.9687 33.2626 44.1838 30.6356 43.2786Z" fill="#435EA6"/>
<path d="M55.6482 28.7103C55.134 31.448 54.4828 34.17 53.7316 36.8502C53.458 37.8376 53.8756 38.2078 54.5365 38.5893C56.2224 39.5638 57.9351 40.4945 59.6079 41.4956C60.8688 42.2511 61.9229 42.3202 63.2982 41.4598C67.0378 39.1206 67.0948 39.211 64.8967 35.0344C63.5453 32.0042 60.8937 29.6772 57.7602 27.837C56.7521 27.2483 55.95 27.0905 55.6482 28.7103Z" fill="#435EA6"/>
<path d="M43.938 59.58C42.1702 58.2831 40.3873 57.592 38.8477 59.3008C38.0231 59.7769 37.5136 60.1422 36.9541 60.3799C35.9856 60.7874 36.1885 61.3195 36.7165 61.9057C39.5009 65.0044 42.7055 67.5998 46.2681 69.7563C46.9894 70.1929 47.4461 70.0809 47.6194 69.1088C48.0134 66.9097 49.1414 64.5949 48.7161 62.594C48.4643 61.4028 45.8287 60.7207 44.2643 59.8087C44.1485 59.7476 44.0457 59.66 43.938 59.58Z" fill="#435EA6"/>
<path d="M65.3075 44.0296C63.1121 44.4629 62.8684 46.3146 63.0406 48.419C63.0956 49.0887 63.0792 49.7664 63.0588 50.437C62.9415 54.3958 62.941 54.3866 66.7021 55.4995C67.479 55.7287 68.2414 56.0232 68.9901 56.335C70.203 56.8433 70.826 56.6827 70.7525 55.1516C70.5919 51.8035 70.1455 48.5019 69.2642 45.2761C68.4331 42.244 68.3624 42.2611 65.3075 44.0296Z" fill="#435EA6"/>
</svg>
