<svg width="36" height="36" viewBox="0 0 36 36" fill="none" xmlns="http://www.w3.org/2000/svg">
<circle cx="18" cy="18" r="17.25" stroke="#B2EBFF" stroke-width="1.5"/>
<path d="M17.8929 19.6C19.5696 19.6 20.9286 18.2571 20.9286 16.6V12.6C20.9286 10.9428 19.5696 9.59998 17.8929 9.59998C16.2161 9.59998 14.8571 10.9428 14.8571 12.6V16.6C14.8571 18.2571 16.2161 19.6 17.8929 19.6ZM23.7857 16.5643C23.7857 16.4857 23.7214 16.4214 23.6429 16.4214H22.5714C22.4929 16.4214 22.4286 16.4857 22.4286 16.5643C22.4286 19.0696 20.3982 21.1 17.8929 21.1C15.3875 21.1 13.3571 19.0696 13.3571 16.5643C13.3571 16.4857 13.2929 16.4214 13.2143 16.4214H12.1429C12.0643 16.4214 12 16.4857 12 16.5643C12 19.5768 14.2607 22.0625 17.1786 22.4143V24.2428H14.5839C14.3393 24.2428 14.1429 24.4982 14.1429 24.8143V25.4571C14.1429 25.5357 14.1929 25.6 14.2536 25.6H21.5321C21.5929 25.6 21.6429 25.5357 21.6429 25.4571V24.8143C21.6429 24.4982 21.4464 24.2428 21.2018 24.2428H18.5357V22.4232C21.4875 22.1018 23.7857 19.6018 23.7857 16.5643Z" fill="#B2EBFF"/>
</svg>
