<svg width="27" height="24" viewBox="0 0 27 24" fill="none" xmlns="http://www.w3.org/2000/svg">
<path d="M3.84043 3.35906H23.0413C23.2656 3.35895 23.4897 3.37318 23.7121 3.40166C23.6367 2.8723 23.4549 2.36369 23.1776 1.9065C22.9003 1.44931 22.5333 1.05302 22.0987 0.741498C21.6641 0.429981 21.171 0.209698 20.649 0.0939306C20.1269 -0.0218364 19.5869 -0.0306898 19.0613 0.0679042L3.2704 2.76383H3.2524C2.2612 2.95338 1.37975 3.51418 0.788086 4.3317C1.67948 3.69767 2.74654 3.35764 3.84043 3.35906Z" fill="white"/>
<path d="M23.0411 4.79907H3.84018C2.82204 4.80018 1.84592 5.20513 1.12599 5.92506C0.406058 6.64499 0.00111176 7.62111 0 8.63925V20.1598C0.00111176 21.1779 0.406058 22.154 1.12599 22.874C1.84592 23.5939 2.82204 23.9988 3.84018 24H23.0411C24.0592 23.9988 25.0353 23.5939 25.7553 22.874C26.4752 22.154 26.8801 21.1779 26.8812 20.1598V8.63925C26.8801 7.62111 26.4752 6.64499 25.7553 5.92506C25.0353 5.20513 24.0592 4.80018 23.0411 4.79907ZM20.1909 16.3196C19.8112 16.3196 19.4399 16.207 19.1242 15.996C18.8084 15.785 18.5623 15.4852 18.417 15.1343C18.2717 14.7835 18.2336 14.3974 18.3077 14.0249C18.3818 13.6525 18.5647 13.3103 18.8332 13.0418C19.1018 12.7733 19.4439 12.5904 19.8163 12.5163C20.1888 12.4422 20.5749 12.4803 20.9257 12.6256C21.2766 12.7709 21.5764 13.017 21.7874 13.3328C21.9984 13.6485 22.111 14.0198 22.111 14.3995C22.111 14.9088 21.9087 15.3971 21.5486 15.7572C21.1886 16.1173 20.7002 16.3196 20.1909 16.3196Z" fill="white"/>
<path d="M0.0302734 12.6895V6.71922C0.0302734 5.41896 0.750307 3.23906 3.24942 2.76684C5.37052 2.36902 7.47062 2.36902 7.47062 2.36902C7.47062 2.36902 8.85068 3.32906 7.71063 3.32906C6.57057 3.32906 6.60058 4.79913 7.71063 4.79913C8.82068 4.79913 7.71063 6.2092 7.71063 6.2092L3.24042 11.2794L0.0302734 12.6895Z" fill="white"/>
</svg>
